<ttFont>
          <CharString index="0">
            272 557 rmoveto
            -363 224 -217 412 140 162 50 88 129 vhcurveto
            -92 6 27 -29 39 51 30 6 29 32 79 -9 44 hhcurveto
            79 21 39 25 17 -15 19 -23 hvcurveto
            -10 -21 -12 -26 hhcurveto
            -98 -5 59 217 -1 hvcurveto
            -3 890 rlineto
            154 1 15 79 96 35 30 callsubr
            13 -39 callsubr
            -20 39 -74 hvcurveto
            -106 -50 -15 -82 -85 -47 15 -27 callgsubr
            -72 -22 -43 callgsubr
            27 9 32 callsubr
            -66 -167 hvcurveto
            -968 vlineto
            -93 -109 -131 -58 -158 hhcurveto
            -257 -176 137 275 hvcurveto
            707 vlineto
            167 17 66 95 -13 callsubr
            25 hhcurveto
            23 14 -29 callsubr
            -72 hvcurveto
            -109 -48 -15 -83 -83 -51 15 -105 hhcurveto
            -73 0 callgsubr
            29 hhcurveto
            94 19 -68 -165 hvcurveto
            return
          </CharString>
          <CharString index="1">
            952 -14 -21 1507 104 -97 97 hstemhm
            -54 2534 hintmask 00000000
            hintmask 10110000
            669 -17 rmoveto
            -10 4 -8 11 vhcurveto
            hintmask 11010000
            31 203 23 312 111 hvcurveto
            222 618 224 -631 rlineto
            -219 80 189 -106 53 hhcurveto
            35 3 29 14 hvcurveto
            24 -44 2 40 vvcurveto
            25 -1 10 131 345 vhcurveto
            260 754 rlineto
            265 94 40 9 70 20 15 -7 21 hhcurveto
            24 15 21 20 32 -39 31 -44 hvcurveto
            -60 -52 -15 -54 -50 -80 15 -95 hhcurveto
            -67 -32 -35 -28 -20 16 -20 22 hvcurveto
            27 26 9 25 hhcurveto
            44 19 -12 -25 -38 -17 -51 -25 -71 hvcurveto
            -292 -848 rlineto
            -46 -17 -8 -13 -7 hhcurveto
            -7 -33 1 93 -29 hvcurveto
            -275 834 rlineto
            -24 74 -11 39 18 vvcurveto
            30 14 14 46 vhcurveto
            31 20 -8 25 hhcurveto
            30 8 23 17 32 -36 31 -66 hvcurveto
            -95 -67 -15 -88 -68 -58 15 -65 hhcurveto
            -64 -31 -36 -27 -21 14 -20 25 hvcurveto
            23 18 7 15 hhcurveto
            57 35 -19 -184 64 hvcurveto
            48 -117 -259 -733 rlineto
            -49 -17 -19 -9 -8 hhcurveto
            -6 -32 3 91 -35 hvcurveto
            -346 844 rlineto
            -29 72 -12 43 14 vvcurveto
            30 19 16 46 vhcurveto
            34 17 -8 25 hhcurveto
            30 8 23 17 32 -36 31 -66 hvcurveto
            -95 -68 -15 -87 -77 -61 15 -61 hhcurveto
            -64 -31 -36 -27 -21 14 -20 25 hvcurveto
            23 17 7 16 hhcurveto
            40 43 -38 -169 74 hvcurveto
            140 -335 153 -356 140 -334 rrcurveto
            38 -91 27 -95 -20 vvcurveto
            -19 -4 -8 -10 -8 vhcurveto
            -3 -2 rlineto
            -4 -4 -6 -5 -12 vvcurveto
            return
          </CharString>
          <CharString index="2">
            100 515 rmoveto
            -338 259 -201 316 170 152 61 121 91 vhcurveto
            34 45 5 33 13 vvcurveto
            17 -24 34 -18 -21 -22 -12 -29 -20 vhcurveto
            -82 -57 -119 -51 -99 hhcurveto
            -171 -175 87 209 -48 hvcurveto
            235 59 223 45 284 105 rrcurveto
            45 17 5 33 26 vvcurveto
            25 -108 321 -368 -339 -230 -259 -279 vhcurveto
            239 33 rmoveto
            -1 12 0 11 12 vvcurveto
            264 229 54 95 156 75 -106 -73 -10 -3 -9 -17 -6 vhcurveto
            -144 -50 -196 -51 -194 -48 rrcurveto
            return
          </CharString>
          <CharString index="3">
            -33 -23 139 1330 146 24 -20 hstemhm
            177 213 697 220 hintmask 00000000
            hintmask 11011000
            153 127 rmoveto
            -71 149 142 -79 299 hhcurveto
            353 211 178 277 237 -152 155 -417 108 hvcurveto
            -288 75 -60 111 126 vvcurveto
            100 85 102 214 206 156 -70 -176 85 vhcurveto
            -39 18 11 -18 18 hhcurveto
            16 14 12 35 32 -9 37 -8 36 hvcurveto
            -27 110 -6 93 -2 63 rrcurveto
            43 -1 -20 12 -20 hhcurveto
            -12 -17 -15 -22 -16 hvcurveto
            -38 -28 -12 -4 -11 -3 -108 55 -196 hhcurveto
            -375 -165 -221 -212 -205 154 -182 374 -85 hvcurveto
            325 -75 57 -139 -119 vvcurveto
            hintmask 10111000
            -153 -116 -85 -233 -225 -250 159 268 -30 vhcurveto
            46 -6 -14 14 -18 hhcurveto
            hintmask 11011000
            -25 -17 -33 -89 hvcurveto
            return
          </CharString>
          <CharString index="4">
            -54 callsubr
            125 16 -15 94 hhcurveto
            65 47 34 27 21 -15 23 -22 hvcurveto
            -30 -15 -8 -24 hhcurveto
            -86 -35 38 237 hvcurveto
            549 vlineto
            -1 76 52 -3 61 hhcurveto
            85 28 46 33 27 -15 45 -73 -29 -86 -3 -3 -99 hvcurveto
            259 vlineto
            238 83 94 106 50 68 -42 -149 49 vhcurveto
            -37 12 10 -6 18 hhcurveto
            16 12 8 28 hvcurveto
            290 vlineto
            17 -73 -70 10 -65 hhcurveto
            -265 -187 -168 -449 hvcurveto
            -91 vlineto
            2 -35 -53 2 -32 hhcurveto
            -53 -23 -36 -36 -27 17 -53 87 hvcurveto
            25 -1 33 1 34 1 rrcurveto
            -545 vlineto
            -201 -32 -74 -73 vhcurveto
            -15 -7 callsubr
            -23 -15 -22 -21 hvcurveto
            return
          </CharString>
          <CharString index="5">
            10 24 7 15 22 hvcurveto
            260 168 263 -168 22 -14 26 -9 10 1 rlinecurve
            24 7 17 13 hvcurveto
            -1 9 -4 21 -13 13 -221 250 rcurveline
            63 -53 -32 18 -28 hhcurveto
            -31 -21 -14 -67 -57 hvcurveto
            -222 -250 -24 callsubr
            -19 -10 vvcurveto
            -13 callgsubr
            24 vhcurveto
            endchar
          </CharString>
          <CharString index="6">
            hintmask 00000000
            hintmask 10001010
            646 23 rmoveto
            -38 20 16 -20 21 hhcurveto
            25 43 19 38 18 hvcurveto
            255 556 rlineto
            hintmask 11000010
            294 -555 rlineto
            -39 21 19 -19 22 hhcurveto
            21 21 24 33 18 hvcurveto
            310 611 rlineto
            hintmask 10001010
            278 140 41 21 52 19 17 -7 20 hhcurveto
            hintmask 10010010
            23 15 24 17 hvcurveto
            hintmask 10100010
            32 -39 31 -52 vhcurveto
            -63 -39 -16 -52 hhcurveto
            hintmask 10010010
            -71 -88 16 -78 hhcurveto
            hintmask 10001010
            -67 -30 -33 -30 -17 17 -24 20 hvcurveto
            hintmask 11000010
            44 23 9 25 hhcurveto
            42 29 -16 -34 hvcurveto
            hintmask 10001010
            -1 -47 -5 -38 -57 -112 -159 -336 rcurveline
            -36 -18 -8 -7 -8 hhcurveto
            -11 -9 13 29 -14 hvcurveto
            -218 448 rlineto
            hintmask 11000010
            -18 35 -18 22 28 vvcurveto
            32 14 19 46 vhcurveto
            27 25 -9 26 hhcurveto
            24 13 24 17 hvcurveto
            hintmask 10001010
            23 -24 40 -74 vhcurveto
            hintmask 10100010
            -51 -1 -36 0 -50 -6 -26 -3 rcurveline
            hintmask 10010010
            -4 -30 -23 -2 -31 hhcurveto
            hintmask 10001010
            -26 -18 callgsubr
            hintmask 11000010
            3 -29 -20 3 -36 hhcurveto
            hintmask 10001010
            -66 -33 -35 -28 -17 16 -24 22 hvcurveto
            24 17 7 15 hhcurveto
            43 36 -18 -176 90 hvcurveto
            -176 -387 rlineto
            -33 -16 -8 -10 -9 hhcurveto
            -10 -4 8 27 -14 hvcurveto
            -252 455 rlineto
            -34 60 -11 25 21 vvcurveto
            20 6 10 29 vhcurveto
            26 25 -9 27 hhcurveto
            hintmask 11000010
            26 11 24 17 23 -22 40 -77 hvcurveto
            hintmask 10001010
            -74 -66 -16 -66 hhcurveto
            -26 -24 2 4 -25 hvcurveto
            -28 4 rlineto
            4 -31 -27 2 -36 hhcurveto
            -66 -32 -35 -28 -17 15 -24 23 hvcurveto
            20 16 7 20 hhcurveto
            41 40 -32 -169 92 hvcurveto
            127 -231 131 -244 126 -233 rrcurveto
            hintmask 00000101
            return
          </CharString>
          <CharString index="7">
            rmoveto
            10 11 5 13 23 hvcurveto
            235 135 117 66 18 49 -2 49 rlinecurve
            -2 52 -43 33 -51 -2 -57 -3 -44 -14 -80 -109 -153 -208 rcurveline
            -10 -14 -6 -11 1 -12 rrcurveto
            -13 10 -17 23 1 vhcurveto
            endchar
          </CharString>
          <CharString index="8">
            74 23 -5 callsubr
            -25 hvcurveto
            -30 -7 -6 -37 hhcurveto
            -94 -18 67 165 hvcurveto
            843 vlineto
            1058 -1147 rlineto
            -43 61 29 -7 19 hhcurveto
            15 18 10 14 11 1 12 -15 11 hvcurveto
            -28 21 -11 28 74 vvcurveto
            3 1104 rlineto
            168 8 66 94 vhcurveto
            34 7 -7 25 hhcurveto
            23 14 23 19 30 callgsubr
            -83 -42 -15 -58 -64 -61 15 -66 hhcurveto
            -72 -24 -39 -23 -19 15 -23 24 hvcurveto
            31 7 7 35 hhcurveto
            94 19 -67 -167 hvcurveto
            -856 vlineto
            -1068 1171 rlineto
            -101 -55 14 -107 hhcurveto
            -44 -15 -25 -13 -17 16 -22 21 -10 hvcurveto
            155 -71 49 -169 -59 vvcurveto
            -1 -874 rlineto
            -165 -8 -67 -95 vhcurveto
            -33 -8 6 -23 hhcurveto
            -25 -14 -23 -19 hvcurveto
            return
          </CharString>
          <CharString index="9">
            rmoveto
            10 11 4 12 24 hvcurveto
            236 110 rlineto
            91 49 46 49 58 vvcurveto
            50 -40 35 -50 -58 -48 -19 -96 -77 vhcurveto
            -159 -187 rlineto
            -11 -14 -6 -10 -12 vvcurveto
            -12 9 -17 22 vhcurveto
            endchar
          </CharString>
          <CharString index="10">
            230 -23 146 1323 146 16 -20 hstemhm
            99 237 hintmask 00000000
            hintmask 11010000
            99 764 rmoveto
            -429 317 -358 527 240 206 83 148 157 vhcurveto
            289 vlineto
            38 -12 26 -25 -25 -21 -27 -36 -9 vhcurveto
            -298 -74 -181 -77 -172 hhcurveto
            -377 -314 258 451 hvcurveto
            hintmask 10110000
            350 267 264 276 262 213 -105 -211 114 vhcurveto
            -20 10 19 -6 16 hhcurveto
            hintmask 11010000
            19 21 12 36 22 -9 34 -12 48 hvcurveto
            -14 54 rlineto
            -24 87 -8 66 89 vvcurveto
            42 -8 14 -23 -14 -15 -15 -46 -45 vhcurveto
            -31 -31 -25 -14 -19 -47 -105 90 -222 hhcurveto
            -472 -361 -320 -508 hvcurveto
            return
          </CharString>
          <CharString index="11">
            100 513 rmoveto
            -244 148 -293 429 366 198 244 312 252 -176 269 -392 -321 -252 -245 -295 vhcurveto
            249 82 rmoveto
            208 119 98 149 179 193 -148 -333 -206 -121 -87 -145 -191 -183 175 293 vhcurveto
            return
          </CharString>
          <CharString index="12">
            rmoveto
            27 29 16 63 55 hvcurveto
            217 236 12 13 4 18 1 10 rlinecurve
            13 -7 17 -23 -10 -24 -7 -15 -23 vhcurveto
            -258 -155 -255 155 rlineto
            14 -22 -23 8 -10 hhcurveto
            -23 -9 -17 -13 -10 6 -17 12 -14 hvcurveto
            217 -236 rlineto
            -66 56 21 -13 30 hhcurveto
            endchar
          </CharString>
          <CharString index="13">
            181 -15 98 -95 114 593 104 646 147 -115 98 hstemhm
            320 234 645 256 hintmask 00000000
            hintmask 10110110
            103 47 rmoveto
            -24 22 -38 73 vhcurveto
            104 51 15 84 84 51 -15 104 hhcurveto
            73 22 -28 callgsubr
            -15 23 -24 hvcurveto
            -28 -9 -6 -27 hhcurveto
            -95 -19 67 165 hvcurveto
            hintmask 01110110
            381 vlineto
            146 1 58 -54 68 -118 rrcurveto
            -440 254 96 -97 283 hhcurveto
            110 49 37 30 26 -1 32 -43 2 hvcurveto
            1 -22 -7 -14 -28 hhcurveto
            -64 -94 29 186 -109 hvcurveto
            -123 208 -101 100 -121 70 rrcurveto
            16 hlineto
            hintmask 10101110
            282 252 146 313 219 -151 219 -394 hvcurveto
            -145 -176 -31 -139 -120 -24 14 -27 callgsubr
            -73 -22 -38 -23 -22 15 -21 24 hvcurveto
            21 11 6 18 hhcurveto
            107 21 -78 -167 hvcurveto
            -917 vlineto
            22 callsubr
            -95 vhcurveto
            -32 -8 6 -24 hhcurveto
            hintmask 10110110
            -24 -15 -23 -19 hvcurveto
            451 781 rmoveto
            502 vlineto
            91 47 24 179 302 117 -144 -198 -212 -171 -92 -186 -119 -79 -10 39 -90 vhcurveto
            return
          </CharString>
          <CharString index="14">
            100 0 129 1302 130 64 -20 hstem
            112 1349 vstem
            112 45 rmoveto
            -27 25 -18 53 vhcurveto
            1142 hlineto
            32 136 21 60 47 100 rrcurveto
            -1 hlineto
            22 44 8 25 14 vvcurveto
            28 -22 9 -15 -13 -13 -8 -26 -24 vhcurveto
            -211 -199 -65 -42 -179 hhcurveto
            -480 -2 950 1337 rlineto
            23 30 2 19 15 vvcurveto
            19 -15 14 -45 vhcurveto
            -928 hlineto
            -77 -20 8 14 -14 hvcurveto
            33 -23 -12 9 -16 hhcurveto
            -15 -15 -10 -44 -7 hvcurveto
            -28 -167 -59 -126 -54 vvcurveto
            -23 9 -10 13 15 12 11 16 13 vhcurveto
            48 58 78 77 113 48 rrcurveto
            18 50 105 12 70 hhcurveto
            406 hlineto
            -939 -1321 rlineto
            -23 -30 -10 -17 -18 vvcurveto
            return
          </CharString>
          <CharString index="15">
            100 515 rmoveto
            -318 243 -221 321 186 247 148 125 17 -22 27 -31 -3 vhcurveto
            -22 -2 -11 -9 -21 -30 rrcurveto
            -91 -64 -102 -32 -96 hhcurveto
            -202 -178 168 280 223 147 104 167 128 117 -15 -120 97 hvcurveto
            -44 35 21 -13 15 hhcurveto
            17 12 10 20 11 -3 15 -7 19 hvcurveto
            -26 72 -2 52 106 vvcurveto
            30 -11 9 -22 vhcurveto
            -29 -59 -44 -37 -33 -38 44 -151 hhcurveto
            -340 -246 -267 -271 hvcurveto
            return
          </CharString>
          <CharString index="16">
            107 -14 callsubr
            126 15 -15 95 hhcurveto
            64 47 34 27 21 -14 23 -23 hvcurveto
            -29 -16 -8 -24 hhcurveto
            -86 -35 23 237 hvcurveto
            322 vlineto
            86 40 103 113 115 hhcurveto
            88 88 -33 -135 36 hvcurveto
            -33 8 14 -8 13 hhcurveto
            16 13 14 19 hvcurveto
            77 2 95 75 vvcurveto
            76 -50 43 -136 -145 -126 -79 -123 -79 vhcurveto
            70 vlineto
            79 -31 25 -48 vhcurveto
            -58 -47 -12 -46 -73 -35 12 -39 -21 callsubr
            -53 121 11 41 -53 hvcurveto
            30 -39 14 -53 -139 vvcurveto
            -305 vlineto
            -202 -32 -58 -73 vhcurveto
            -15 -7 callsubr
            -23 -15 -22 -21 hvcurveto
            return
          </CharString>
          <CharString index="17">
            rmoveto
            -24 21 -38 72 vhcurveto
            110 48 15 149 hhcurveto
            779 hlineto
            -9 89 9 66 31 141 rrcurveto
            10 46 16 23 14 vvcurveto
            18 -10 9 -14 -14 -12 -7 -27 -25 vhcurveto
            -204 -171 -93 -39 -151 hhcurveto
            -203 10 callgsubr
            981 vlineto
            166 19 67 29 callgsubr
            24 15 -39 callsubr
            -22 39 -73 hvcurveto
            -106 -50 -15 -83 -85 -46 15 -109 hhcurveto
            -72 -58 callgsubr
            26 13 callgsubr
            -67 -166 hvcurveto
            -915 vlineto
            -169 -13 -78 -99 vhcurveto
            -34 -8 7 -23 hhcurveto
            -24 -14 -24 -19 hvcurveto
            return
          </CharString>
          <CharString index="18">
            642 0 98 -98 129 337 98 170 129 157 -20 414 129 -82 98 hstemhm
            930 236 hintmask 00000000
            hintmask 10111011
            11 15 rmoveto
            74 62 -15 72 hhcurveto
            73 38 32 35 19 -13 19 -20 hvcurveto
            -25 -5 -7 -21 hhcurveto
            hintmask 01111101
            -47 -18 13 24 hvcurveto
            1 26 42 52 50 72 82 117 rcurveline
            42 29 19 22 73 hhcurveto
            453 -85 hlineto
            -166 -11 -54 -25 -46 vhcurveto
            -22 -14 -30 -10 -32 -34 -7 7 -24 hhcurveto
            -24 -14 -24 -19 -24 22 -38 72 hvcurveto
            108 44 15 104 hhcurveto
            835 hlineto
            34 101 37 85 51 86 rrcurveto
            24 42 13 31 17 vvcurveto
            14 -10 8 -14 vhcurveto
            -15 -2 -13 -1 -35 -35 -38 -38 rcurveline
            -93 -93 -116 -86 -256 hhcurveto
            -210 10 callgsubr
            408 vlineto
            34 32 28 54 vhcurveto
            250 hlineto
            48 76 -27 -88 38 hvcurveto
            -18 8 5 -12 16 hhcurveto
            19 13 15 41 21 -2 25 -2 21 hvcurveto
            6 vlineto
            -3 26 -1 26 33 63 8 62 36 vvcurveto
            41 -13 15 -19 -16 -6 -12 -18 -7 vhcurveto
            -88 -39 -74 -39 -49 hhcurveto
            -249 hlineto
            -64 -23 20 33 hvcurveto
            409 vlineto
            57 22 32 71 vhcurveto
            270 hlineto
            202 91 -110 -100 80 hvcurveto
            -25 20 8 -3 12 hhcurveto
            12 10 10 19 36 -67 170 -16 132 hvcurveto
            -757 hlineto
            -137 -50 16 -109 hhcurveto
            -73 -21 -38 -24 -21 14 -21 24 hvcurveto
            21 11 6 18 hhcurveto
            41 38 0 -31 -15 -9 -22 -60 -82 hvcurveto
            -220 -310 -227 -324 -221 -309 rrcurveto
            -249 -176 -84 -21 -52 -20 -12 6 -15 hhcurveto
            -30 -15 -25 -23 -24 24 -32 51 hvcurveto
            48 65 15 63 hhcurveto
            463 571 rmoveto
            12 11 20 10 15 vhcurveto
            435 630 rlineto
            -699 -408 vlineto
            -34 -14 7 15 hvcurveto
            return
          </CharString>
          <CharString index="19">
            84 44 rmoveto
            -27 6 10 -17 55 hhcurveto
            895 hlineto
            19 111 19 50 44 89 rrcurveto
            23 46 7 25 17 vvcurveto
            20 -12 10 -17 -17 -9 -9 -30 -26 vhcurveto
            -153 -129 -57 -74 -186 hhcurveto
            -297 hlineto
            673 815 20 24 -3 21 -4 15 rlinecurve
            27 -7 -20 9 -59 hhcurveto
            -707 hlineto
            -29 -55 42 -18 hhcurveto
            -23 -14 -18 -32 -75 -27 -143 -30 -95 hvcurveto
            -15 -4 16 -15 18 hhcurveto
            16 25 14 88 66 hvcurveto
            117 88 73 31 110 hhcurveto
            256 hlineto
            -657 -787 -38 -44 2 -20 4 -17 rlinecurve
            return
          </CharString>
          <CharString index="20">
            -210 -227 -89 -237 hvcurveto
            236 22 rmoveto
            104 92 74 168 88 99 -33 -41 65 vhcurveto
            -190 vlineto
            -77 -63 -100 -43 -88 hhcurveto
            -164 -97 69 137 hvcurveto
            return
          </CharString>
          <CharString index="21">
            121 125 46 77 77 hvcurveto
            -79 8 27 -26 34 47 33 6 34 59 48 -9 47 hhcurveto
            78 22 38 25 16 -16 25 -22 hvcurveto
            -40 0 -8 -17 hhcurveto
            -86 -25 18 249 hvcurveto
            return
          </CharString>
          <CharString index="22">
            289 vlineto
            226 -86 184 -399 -104 -138 -36 0 vhcurveto
            -7 -8 6 6 -8 hvcurveto
            31 -53 -20 0 -19 hhcurveto
            -15 -23 -8 -42 -75 -8 -82 -19 -59 hvcurveto
            return
          </CharString>
          <CharString index="23">
            500 -15 98 746 143 506 98 -18 callsubr
            826 235 vstem
            104 47 -24 callgsubr
            105 51 15 82 84 48 -15 108 hhcurveto
            72 22 -5 callsubr
            -25 hvcurveto
            -26 -10 -6 -28 hhcurveto
            -95 -17 66 166 hvcurveto
            451 vlineto
            35 30 28 76 vhcurveto
            614 hlineto
            74 32 -28 -35 hvcurveto
            -451 vlineto
            -166 -19 -66 28 callgsubr
            -23 -14 -23 -19 -24 21 -38 72 hvcurveto
            109 46 15 85 83 50 -15 106 hhcurveto
            73 21 -28 callgsubr
            -15 23 -23 hvcurveto
            -28 -9 -6 -28 hhcurveto
            -94 -19 68 164 hvcurveto
            930 vlineto
            165 19 68 29 callgsubr
            23 15 22 20 30 callgsubr
            -106 -50 -15 -83 -85 -46 15 -109 hhcurveto
            -72 -67 callsubr
            23 17 callsubr
            -66 -167 hvcurveto
            -222 vlineto
            -32 -25 -19 -81 vhcurveto
            -614 hlineto
            -84 -22 19 32 hvcurveto
            222 vlineto
            167 17 66 95 vhcurveto
            34 8 -6 22 5 callgsubr
            -108 -48 -15 -84 -82 -51 15 -105 hhcurveto
            -74 0 callgsubr
            30 hhcurveto
            93 19 -67 -166 hvcurveto
            -930 vlineto
            -48 callgsubr
            -25 hhcurveto
            -24 -14 -23 -19 hvcurveto
            return
          </CharString>
          <CharString index="24">
            rmoveto
            90 59 77 71 80 -47 76 -100 -91 -60 -66 -87 -72 43 -79 106 hvcurveto
            -575 hmoveto
            90 60 77 71 80 -48 76 -100 -90 -60 -66 -87 -72 42 -79 106 hvcurveto
            endchar
          </CharString>
          <CharString index="25">
            rmoveto
            -16 -11 -10 -22 hvcurveto
            -262 vlineto
            -17 70 74 -11 59 hhcurveto
            265 193 173 447 hvcurveto
            793 vlineto
            119 -13 9 -49 vhcurveto
            -60 -54 -12 -55 -77 -33 12 -37 hhcurveto
            -52 -14 -34 -18 -53 123 11 40 -53 hvcurveto
            28 -39 16 -62 -1 -141 rrcurveto
            -532 vlineto
            -425 -75 -67 -97 -60 -56 31 117 -55 vhcurveto
            27 -14 -20 19 -19 hhcurveto
            return
          </CharString>
          <CharString index="26">
            rmoveto
            -22 callsubr
            -71 51 -90 116 hvcurveto
            endchar
          </CharString>
          <CharString index="27">
            678 -15 98 1397 95 hstem
            297 134 1165 236 vstem
            92 47 rmoveto
            -24 21 -38 73 vhcurveto
            80 43 15 60 62 60 -15 62 hhcurveto
            72 22 -28 callgsubr
            -15 23 -24 -9 callsubr
            -28 hhcurveto
            -95 -18 66 166 hvcurveto
            800 vlineto
            171 -260 180 -325 168 -257 rrcurveto
            -52 33 14 -22 21 hhcurveto
            22 24 28 28 14 hvcurveto
            528 1008 -10 -948 rlineto
            -164 -18 -68 -94 -14 callgsubr
            -24 hhcurveto
            -25 -13 -23 -19 -24 20 -38 74 hvcurveto
            105 51 15 82 84 48 -15 108 hhcurveto
            73 21 -5 callsubr
            -24 -9 callsubr
            -29 hhcurveto
            -95 -17 66 166 hvcurveto
            928 vlineto
            185 18 52 87 vhcurveto
            23 21 -7 21 hhcurveto
            23 15 23 20 23 -21 39 -74 hvcurveto
            -119 -55 -16 -168 hhcurveto
            -526 -1021 -651 1020 rlineto
            -146 -58 14 -104 hhcurveto
            -45 -14 -34 -17 -35 95 9 87 -123 hvcurveto
            53 -76 4 -75 -60 vvcurveto
            -1 -849 rlineto
            -166 -7 -66 -95 vhcurveto
            -35 -7 6 -22 hhcurveto
            -25 -14 -23 -19 hvcurveto
            return
          </CharString>
          <CharString index="28">
            144 -24 151 -141 98 695 127 520 166 -115 98 hstemhm
            320 233 544 248 -117 254 hintmask 00000000
            hintmask 10110101
            104 48 rmoveto
            -24 21 -38 73 vhcurveto
            105 52 14 89 hhcurveto
            hintmask 10110110
            154 176 -24 96 hhcurveto
            403 209 224 270 hvcurveto
            hintmask 01101101
            190 -165 155 -245 59 vhcurveto
            173 76 100 133 158 vvcurveto
            172 -103 179 -396 vhcurveto
            -110 -145 -31 -147 -120 -18 14 -27 callgsubr
            -73 -21 -45 callsubr
            25 hvcurveto
            20 9 6 20 -50 callsubr
            -916 vlineto
            -165 -18 -67 -95 vhcurveto
            hintmask 10110101
            -34 -5 6 -25 hhcurveto
            -25 -14 -23 -19 hvcurveto
            449 877 rmoveto
            404 vlineto
            80 77 17 167 182 118 -67 -157 -208 -135 -88 -186 -88 -65 6 13 -70 vhcurveto
            -660 vmoveto
            hintmask 10110110
            499 vlineto
            10 66 83 5 40 hhcurveto
            301 185 -97 -222 -260 -159 -73 -210 hvcurveto
            hintmask 10110101
            -212 -94 43 95 hvcurveto
            return
          </CharString>
          <CharString index="29">
            -35 callgsubr
            -54 94 -109 -102 -69 -80 -88 -71 51 -90 116 hvcurveto
            endchar
          </CharString>
          <CharString index="30">
            1 callsubr
            90 vhcurveto
            44 83 15 86 81 44 -15 75 hhcurveto
            77 20 13 callsubr
            -21 hvcurveto
            -19 -20 -8 callgsubr
            -65 -32 67 172 hvcurveto
            178 vlineto
            -503 488 20 -5 63 40 40 9 42 31 74 -9 41 hhcurveto
            69 18 39 24 17 -17 34 -21 hvcurveto
            -21 -12 -7 -12 hhcurveto
            -46 -64 16 99 -107 hvcurveto
            -383 361 163 81 137 103 115 101 rlinecurve
            61 69 30 11 25 18 20 -7 18 hhcurveto
            23 15 25 16 24 -11 40 -78 hvcurveto
            -62 -51 -16 -55 -77 -74 16 -79 hhcurveto
            -77 -15 -40 -24 -16 16 -25 21 hvcurveto
            23 18 7 18 hhcurveto
            46 30 -11 -30 -59 -231 -152 -238 -82 hvcurveto
            1003 vlineto
            119 -8 11 -56 vhcurveto
            -53 -50 -14 -50 -76 -46 12 -60 -1 callsubr
            144 -12 24 -47 -226 vvcurveto
            -1006 vlineto
            -192 -33 -68 -69 vhcurveto
            -19 -17 7 -17 hhcurveto
            -24 -14 -22 -21 hvcurveto
            return
          </CharString>
          <CharString index="31">
            rmoveto
            -95 148 172 -34 107 hhcurveto
            283 305 164 348 hvcurveto
            756 vlineto
            166 18 67 94 -13 callsubr
            24 11 callgsubr
            -21 39 -74 hvcurveto
            -106 -49 -15 -83 -86 -69 15 -105 hhcurveto
            -73 -58 callgsubr
            28 18 6 29 hhcurveto
            95 27 -67 -166 hvcurveto
            -721 vlineto
            -295 -139 -113 -164 -151 -142 92 335 -86 vhcurveto
            41 -11 -19 19 -18 hhcurveto
            -27 -22 -24 -98 hvcurveto
            return
          </CharString>
          <CharString index="32">
            rmoveto
            232 123 132 217 65 hvcurveto
            -16 4 rlineto
            15 -45 -43 13 -43 hhcurveto
            -23 -24 -3 -9 -24 hvcurveto
            -164 -23 -78 -108 -101 hhcurveto
            return
          </CharString>
          <CharString index="33">
            rmoveto
            -233 133 -80 205 119 114 45 115 85 vhcurveto
            32 42 6 33 13 vvcurveto
            23 -15 21 -20 -21 -37 -14 -30 -22 vhcurveto
            -80 -60 -63 -21 -46 hhcurveto
            -124 -48 97 119 hvcurveto
            560 316 vlineto
            97 24 40 32 32 -23 35 -106 -44 -81 -2 -2 -80 hvcurveto
            return
          </CharString>
          <CharString index="34">
            50 -14 98 509 140 712 147 -114 98 hstemhm
            340 235 605 256 hintmask 00000000
            hintmask 11101100
            125 48 rmoveto
            -24 21 -38 72 vhcurveto
            109 46 14 85 hhcurveto
            hintmask 11011100
            87 55 27 callsubr
            -24 hvcurveto
            -35 -19 -9 -41 hhcurveto
            -95 -18 68 164 hvcurveto
            315 vlineto
            -25 90 84 -13 83 hhcurveto
            311 293 177 359 266 -152 197 -404 hvcurveto
            -200 -24 -31 -185 -119 -21 15 -113 hhcurveto
            -72 -21 -45 callsubr
            24 hvcurveto
            19 12 6 18 -50 callsubr
            -917 vlineto
            -166 -19 -66 -93 vhcurveto
            -35 -7 6 -23 hhcurveto
            -24 -14 -23 -19 hvcurveto
            450 755 rmoveto
            528 vlineto
            91 95 23 105 239 166 -112 -274 -192 -114 -134 -212 -84 -112 24 46 -83 vhcurveto
            return
          </CharString>
          <CharString index="35">
            rmoveto
            10 10 2 14 25 hvcurveto
            216 110 rlineto
            106 59 31 49 48 vvcurveto
            50 -19 35 -51 -55 -45 -11 -104 -83 vhcurveto
            -158 -187 -12 -15 -7 -9 1 -12 rlinecurve
            -12 9 -17 22 vhcurveto
            -459 hmoveto
            10 10 3 13 25 hvcurveto
            215 120 rlineto
            106 59 32 39 48 vvcurveto
            50 -20 35 -50 -57 -43 -12 -103 -83 vhcurveto
            -159 -187 -24 callsubr
            -10 -12 vvcurveto
            -12 9 -17 23 vhcurveto
            endchar
          </CharString>
          <CharString index="36">
            rmoveto
            66 70 10 59 62 61 -10 64 hhcurveto
            44 22 30 22 14 -12 26 -22 hvcurveto
            -20 -15 -7 -20 hhcurveto
            -44 -17 57 94 hvcurveto
            515 vlineto
            78 8 49 50 vvcurveto
            14 -15 10 -25 -40 -67 -104 -53 -168 vhcurveto
            -55 -17 -17 -24 -15 vvcurveto
            -16 13 -24 15 vhcurveto
            29 40 20 25 hhcurveto
            39 14 -48 -99 hvcurveto
            -336 vlineto
            -94 -16 -57 -44 vhcurveto
            -22 -25 7 -18 hhcurveto
            -22 -12 -26 -14 -22 22 -30 43 hvcurveto
            return
          </CharString>
          <CharString index="37">
            -46 -32 -30 -18 -21 hhcurveto
            -26 -27 7 51 -95 hvcurveto
            36 -66 -43 14 -57 hhcurveto
            -46 -52 -19 -57 -53 hvcurveto
            -47 -50 -39 -70 -44 vvcurveto
            -25 15 -9 13 vhcurveto
            endchar
          </CharString>
          <CharString index="38">
            41 27 27 21 42 69 213 -106 71 hhcurveto
            51 39 15 60 58 hvcurveto
            46 48 38 69 44 vvcurveto
            25 -15 9 -13 -12 -17 -10 -32 -22 vhcurveto
            return
          </CharString>
          <CharString index="39">
            -108 -37 -56 -70 -63 vvcurveto
            468 260 rmoveto
            -186 -120 91 229 136 103 58 144 149 148 -87 -241 -149 -114 -37 -124 hvcurveto
            return
          </CharString>
          <CharString index="40">
            -21 -39 -23 -20 14 -22 return
          </CharString>
          <CharString index="41">
            86 -46 200 -164 127 -146 rrcurveto
            -45 39 -5 -15 24 hhcurveto
            16 28 10 25 70 -101 192 -142 151 hvcurveto
            142 149 101 194 71 vvcurveto
            24 -28 10 -16 vhcurveto
            -13 -1 -10 -10 -35 -48 -113 -157 -214 -153 -86 -46 rrcurveto
            -22 -12 -10 -6 -15 vvcurveto
            -14 10 -6 22 -12 vhcurveto
            return
          </CharString>
          <CharString index="42">
            -316 -238 -240 -296 hvcurveto
            242 50 rmoveto
            204 118 130 209 91 103 -32 -81 62 vhcurveto
            -587 vlineto
            -60 -63 -78 -15 -74 hhcurveto
            -211 -157 165 276 hvcurveto
            return
          </CharString>
          <CharString index="43">
            rmoveto
            673 hlineto
            46 29 28 46 47 -31 25 -46 hvcurveto
            -669 hlineto
            -46 -31 -25 -47 -46 29 -28 46 hvcurveto
            endchar
          </CharString>
          <CharString index="44">
            9 24 42 10 35 hhcurveto
            85 46 -42 -71 -44 -31 -54 -50 -42 -55 10 40 -43 hvcurveto
            30 -31 -22 11 -28 hhcurveto
            -36 -21 -31 -26 return
          </CharString>
          <CharString index="45">
            -28 -24 162 -147 97 -73 -21 941 97 -3 -20 return
          </CharString>
          <CharString index="46">
            147 301 rmoveto
            -198 142 -127 285 vhcurveto
            return
          </CharString>
          <CharString index="47">
            -38 callgsubr
            hintmask 10100000
            490 hmoveto
            -58 callsubr
          </CharString>
          <CharString index="48">
            68 60 10 57 62 60 -10 66 hhcurveto
            43 22 31 22 13 -12 27 -23 hvcurveto
            -19 -14 -7 -21 hhcurveto
            -45 -16 36 94 hvcurveto
            42 137 vlineto
            22 14 6 21 9 hvcurveto
            27 69 14 40 12 vvcurveto
            13 -8 7 -13 -9 -7 -6 -9 -14 vhcurveto
            -23 -33 -35 -11 -48 hhcurveto
            -56 538 hlineto
            36 -25 17 -20 vhcurveto
            -15 -1 -26 -12 -27 -31 -488 -560 rcurveline
            -26 -29 -5 -15 -14 vvcurveto
            175 71 rmoveto
            258 296 rlineto
            -296 vlineto
            return
          </CharString>
          <CharString index="49">
            -80 callgsubr
            endchar
          </CharString>
          <CharString index="50">
            97 58 67 83 70 -37 50 -93 28 hvcurveto
            -48 14 -14 18 32 vvcurveto
            49 50 71 89 41 vhcurveto
            36 16 14 15 22 vvcurveto
            29 -19 17 -35 -128 -159 -207 -174 -156 72 -85 117 vhcurveto
            return
          </CharString>
          <CharString index="51">
            -275 -202 -135 -191 hvcurveto
            985 223 rmoveto
            -3 25 -1 25 28 vvcurveto
            224 150 93 158 156 97 -145 -72 -10 -3 -10 -19 -6 vhcurveto
            -148 -51 -187 -52 -200 -49 rrcurveto
            -740 -226 rmoveto
            138 102 75 189 71 79 -21 -31 62 vhcurveto
            6 -88 13 -58 39 -67 rrcurveto
            -84 -84 -119 -55 -97 hhcurveto
            -165 -96 79 112 hvcurveto
            return
          </CharString>
          <CharString index="52">
            rmoveto
            92 61 78 73 82 -49 77 -102 -91 -63 -67 -89 -74 44 -80 108 hvcurveto
            return
          </CharString>
          <CharString index="53">
            -23 15 -38 86 vhcurveto
            56 45 15 107 return
          </CharString>
          <CharString index="54">
            -103 -3 rlineto
            365 vlineto
            78 -20 28 -33 -25 -30 -21 -85 -13 vhcurveto
            -31 -214 -56 -109 -149 -36 rrcurveto
            return
          </CharString>
          <CharString index="55">
            -208 171 -146 229 vhcurveto
            return
          </CharString>
          <CharString index="56">
            -44 12 callgsubr
            30 14 callsubr
            25 -45 -228 vvcurveto
            -1048 vlineto
            -181 -8 -36 -38 -31 vhcurveto
            -29 -22 -9 -13 -15 vvcurveto
            322 255 rmoveto
            509 vlineto
            96 42 115 40 81 hhcurveto
            204 160 -127 -303 -217 -131 -129 -232 -101 -93 38 93 -45 hvcurveto
            return
          </CharString>
          <CharString index="57">
            hhcurveto
            108 20 -78 -167 hvcurveto
            return
          </CharString>
          <CharString index="58">
            410 -23 150 1318 147 return
          </CharString>
          <CharString index="59">
            -36 25 -10 15 15 24 21 26 9 vhcurveto
            90 30 60 60 83 hhcurveto
            81 50 -45 -73 -69 -62 -72 -94 -39 hvcurveto
            -68 -27 -20 -17 -18 vvcurveto
            -17 11 -13 22 vhcurveto
            24 33 14 18 hhcurveto
            116 72 -105 -121 -80 -58 -76 -107 -98 -80 58 90 -28 hvcurveto
            30 -9 -23 17 -15 hhcurveto
            return
          </CharString>
          <CharString index="60">
            rmoveto
            92 61 78 73 hvcurveto
            hintmask 0000001010000000
            -42 callgsubr
            hintmask 0000010010000000
            -15 callsubr
            hintmask 0000001010000000
            -32 callgsubr
            hintmask 0000001001000000
            -43 callsubr
            hintmask 0000010001000000
            -74 44 40 callgsubr
            endchar
          </CharString>
          <CharString index="61">
            rmoveto
            92 61 78 73 hvcurveto
            hintmask 00010100
            -42 callgsubr
            hintmask 00100100
            -15 callsubr
            hintmask 00010100
            -32 callgsubr
            hintmask 00010010
            -43 callsubr
            hintmask 00100010
            -74 44 40 callgsubr
            endchar
          </CharString>
          <CharString index="62">
            -38 -23 -22 14 -21 return
          </CharString>
          <CharString index="63">
            -71 51 -90 116 -22 callsubr
            vhcurveto
            return
          </CharString>
          <CharString index="64">
            82 -48 77 -102 -92 39 callsubr
            return
          </CharString>
          <CharString index="65">
            126 rmoveto
            -72 39 -47 92 -26 vhcurveto
            48 -15 15 -21 -31 vvcurveto
            -50 -51 -69 -88 -40 vhcurveto
            -37 -17 -14 -15 -24 vvcurveto
            -26 19 -18 35 128 159 207 174 157 -72 84 -117 -97 -59 -68 -83 vhcurveto
            return
          </CharString>
          <CharString index="66">
            70 hlineto
            59 278 44 145 97 vvcurveto
            81 -55 50 -72 -77 -59 -50 -81 -97 46 -145 44 -278 vhcurveto
            return
          </CharString>
          <CharString index="67">
            hhcurveto
            -24 -15 -22 -21 -8 callsubr
            90 hvcurveto
            return
          </CharString>
          <CharString index="68">
            22 20 23 return
          </CharString>
          <CharString index="69">
            rmoveto
            -56 85 88 -28 105 hhcurveto
            229 151 123 182 134 -106 88 -121 27 hvcurveto
            100 45 81 82 81 vvcurveto
            129 -133 72 -165 -117 -105 -33 -52 -77 vhcurveto
            -168 vlineto
            return
          </CharString>
          <CharString index="70">
            1 2 -8 vhcurveto
            -6 2 rlineto
            1 -6 -6 1 -8 hhcurveto
            return
          </CharString>
          <CharString index="71">
            -7 -21 -4 -16 -16 vvcurveto
            return
          </CharString>
          <CharString index="72">
            hintmask 0000000000000000
            return
          </CharString>
          <CharString index="73">
            -80 -45 12 -58 -1 callsubr
            142 -12 26 -43 -227 vvcurveto
            return
          </CharString>
          <CharString index="74">
            272 235 831 237 return
          </CharString>
          <CharString index="75">
            99 221 1181 246 return
          </CharString>
          <CharString index="76">
            -28 callgsubr
            -14 return
          </CharString>
          <CharString index="77">
            1233 -55 callsubr
            return
          </CharString>
          <CharString index="78">
            -39 callsubr
            -21 39 return
          </CharString>
          <CharString index="79">
            46 31 29 46 49 -33 25 -46 hvcurveto
            -153 471 hlineto
            47 -26 32 -47 -47 -28 -31 -46 vhcurveto
            -473 -153 vlineto
            -47 -31 -25 -49 -46 29 -29 47 hvcurveto
            155 return
          </CharString>
          <CharString index="80">
            -88 -508 135 1298 104 -95 95 return
          </CharString>
          <CharString index="81">
            -83 159 -29 73 137 135 104 104 return
          </CharString>
          <CharString index="82">
            -101 -77 108 164 -24 hvcurveto
            return
          </CharString>
          <CharString index="83">
            rlineto
            -12 -14 -6 return
          </CharString>
          <CharString index="84">
            -634 0 95 914 -20 return
          </CharString>
          <CharString index="85">
            -54 callgsubr
            -53 94 -110 -102 -69 -80 -88 return
          </CharString>
          <CharString index="86">
            hhcurveto
            -52 -13 -34 -18 return
          </CharString>
          <CharString index="87">
            -14 -9 callgsubr
            return
          </CharString>
          <CharString index="88">
            98 1390 102 -95 97 hstemhm
            290 134 return
          </CharString>
          <CharString index="89">
            hstem
            320 236 return
          </CharString>
          <CharString index="90">
            272 rmoveto
            -12 11 -36 46 vhcurveto
            376 -42 hlineto
            -96 -24 -34 -41 vhcurveto
            -23 -14 7 -18 hhcurveto
            -22 -12 -27 -13 -22 23 -31 42 hvcurveto
            return
          </CharString>
          <CharString index="91">
            rmoveto
            -197 -30 -53 -75 vhcurveto
            -14 -19 8 -16 hhcurveto
            -22 -17 -22 -21 return
          </CharString>
          <CharString index="92">
            -74 43 40 callgsubr
            return
          </CharString>
          <CharString index="93">
            46 rmoveto
            -54 callsubr
            return
          </CharString>
          <CharString index="94">
            vhcurveto
            35 6 -6 return
          </CharString>
          <CharString index="95">
            rmoveto
            12 18 9 32 22 hvcurveto
            return
          </CharString>
          <CharString index="96">
            304 181 304 return
          </CharString>
          <CharString index="97">
            hstemhm
            258 238 return
          </CharString>
          <CharString index="98">
            hvcurveto
            -27 -9 -6 return
          </CharString>
          <CharString index="99">
            -23 16 -38 return
          </CharString>
          <CharString index="100">
            -18 7 -17 hhcurveto
            return
          </CharString>
          <CharString index="101">
            vhcurveto
            -1042 -1337 rlineto
            -51 -65 return
          </CharString>
          <CharString index="102">
            -31 callsubr
            23 return
          </CharString>
          <CharString index="103">
            119 -9 11 -56 -14 -14 -4 -1 -15 vhcurveto
            -5 -45 -31 -4 -34 -77 -47 12 -57 hhcurveto
            return
          </CharString>
          <CharString index="104">
            3 callsubr
            vhcurveto
            -16 hlineto
            32 return
          </CharString>
          <CharString index="105">
            -44 97 hhcurveto
            132 127 84 231 82 hvcurveto
            -131 62 rlineto
            -166 -58 return
          </CharString>
          <CharString index="106">
            hhcurveto
            -43 -20 -28 -18 -29 28 -18 29 -2 hvcurveto
            return
          </CharString>
          <CharString index="107">
            127 146 200 164 86 46 rrcurveto
            return
          </CharString>
          <CharString index="108">
            119 18 callsubr
            return
          </CharString>
          <CharString index="109">
            147 776 139 -7 -20 return
          </CharString>
          <CharString index="110">
            -26 callsubr
            10 callsubr
            return
          </CharString>
          <CharString index="111">
            -119 vvcurveto
            -134 85 -50 105 1 vhcurveto
            return
          </CharString>
          <CharString index="112">
            -74 40 callsubr
            return
          </CharString>
          <CharString index="113">
            310 0 -20 hstemhm
            return
          </CharString>
          <CharString index="114">
            1 vhcurveto
            220 2 rlineto
            20 14 12 15 14 -8 13 -33 9 hvcurveto
            return
          </CharString>
          <CharString index="115">
            78 43 -15 74 hhcurveto
            75 20 28 22 20 -15 12 -21 hvcurveto
            -17 return
          </CharString>
          <CharString index="116">
            1005 149 -1005 hlineto
            return
          </CharString>
          <CharString index="117">
            96 -115 65 -125 return
          </CharString>
          <CharString index="118">
            -20 -10 callsubr
            return
          </CharString>
          <CharString index="119">
            166 -60 166 hstemhm
            return
          </CharString>
          <CharString index="120">
            38 23 20 -15 23 return
          </CharString>
          <CharString index="121">
            -2 hvcurveto
            142 -12 return
          </CharString>
          <CharString index="122">
            -20 -22 callgsubr
            return
          </CharString>
          <CharString index="123">
            151 -232 -212 -165 -161 -194 vhcurveto
            return
          </CharString>
          <CharString index="124">
            hvcurveto
            28 8 6 30 hhcurveto
            93 19 return
          </CharString>
          <CharString index="125">
            46 rmoveto
            -8 callsubr
            return
          </CharString>
          <CharString index="126">
            21 -15 22 -23 return
          </CharString>
          <CharString index="127">
            -553 1634 386 hstem
            96 687 vstem
            return
          </CharString>
          <CharString index="128">
            hhcurveto
            31 callsubr
            return
          </CharString>
          <CharString index="129">
            -165 -19 -67 return
          </CharString>
          <CharString index="130">
            43 83 15 85 return
          </CharString>
          <CharString index="131">
            -13 22 9 11 1 2 8 hvcurveto
            28 4 rlineto
            return
          </CharString>
          <CharString index="132">
            49 -15 106 hhcurveto
            73 21 38 23 19 -14 24 return
          </CharString>
          <CharString index="133">
            841 -15 97 808 163 -112 84 return
          </CharString>
          <CharString index="134">
            -14 117 hhcurveto
            73 31 -31 callsubr
            26 return
          </CharString>
          <CharString index="135">
            -288 -15 97 943 -20 return
          </CharString>
          <CharString index="136">
            238 hintmask 00000000
            return
          </CharString>
          <CharString index="137">
            6 -6 25 hhcurveto
            24 return
          </CharString>
          <CharString index="138">
            78 21 39 25 16 return
          </CharString>
          <CharString index="139">
            -17 callgsubr
            18 return
          </CharString>
          <CharString index="140">
            300 237 return
          </CharString>
          <CharString index="141">
            356 rlineto
            7 32 5 42 13 vvcurveto
            40 return
          </CharString>
          <CharString index="142">
            8 6 30 hhcurveto
            93 19 -67 -166 hvcurveto
            return
          </CharString>
          <CharString index="143">
            -9 callgsubr
            hstemhm
            320 236 return
          </CharString>
          <CharString index="144">
            149 hstem
            566 152 vstem
            566 return
          </CharString>
          <CharString index="145">
            -13 callgsubr
            23 vhcurveto
            endchar
          </CharString>
          <CharString index="146">
            -62 -67 -89 vhcurveto
            return
          </CharString>
          <CharString index="147">
            vhcurveto
            -14 -18 7 return
          </CharString>
        <CharString name=".notdef">
          91 0 217 -217 226 -205 -21 hstemhm
          166 168 854 171 hintmask 00000000
          hintmask 00111000
          166 hmoveto
          1193 1308 -1193 hlineto
          176 -994 rmoveto
          329 329 -337 338 92 91 337 -338 328 329 rlineto
          hintmask 10011000
          30 -31 29 -28 30 -29 -329 -329 rcurveline
          337 -338 rlineto
          hintmask 01011000
          -92 -91 -336 337 -329 -328 -31 29 -28 29 -30 30 rlinecurve
          endchar
        </CharString>
        <CharString name=".null">
          endchar
        </CharString>
        <CharString name="A">
          -56 callgsubr
          -10 callgsubr
          hintmask 00000000
          hintmask 01111000
          -30 46 rmoveto
          hintmask 10111000
          -61 callgsubr
          hintmask 01111000
          -106 callgsubr
          endchar
        </CharString>
        <CharString name="AE">
          -89 callsubr
          endchar
        </CharString>
        <CharString name="AEacute">
          -89 callsubr
          441 1063 -98 callsubr
        </CharString>
        <CharString name="Aacute">
          -56 callgsubr
          -10 callgsubr
          hintmask 00000000
          hintmask 01111000
          -30 46 rmoveto
          hintmask 10111000
          -61 callgsubr
          hintmask 01111000
          -106 callgsubr
          231 1058 -98 callsubr
        </CharString>
        <CharString name="Abreve">
          -56 callgsubr
          -10 callgsubr
          hintmask 00000000
          hintmask 01111000
          -30 46 rmoveto
          hintmask 10111000
          -61 callgsubr
          hintmask 01111000
          -106 callgsubr
          323 1039 -89 callgsubr
        </CharString>
        <CharString name="Acircumflex">
          -56 callgsubr
          -10 callgsubr
          hintmask 00000000
          hintmask 01111000
          -30 46 rmoveto
          hintmask 10111000
          -61 callgsubr
          hintmask 01111000
          -106 callgsubr
          12 1043 -104 callgsubr
        </CharString>
        <CharString name="Adieresis">
          -56 callgsubr
          -10 callgsubr
          hintmask 00000000
          hintmask 01111000
          -30 46 rmoveto
          hintmask 10111000
          -61 callgsubr
          hintmask 01111000
          -106 callgsubr
          hintmask 00000000
          611 1077 -83 callsubr
        </CharString>
        <CharString name="Agrave">
          -56 callgsubr
          -10 callgsubr
          hintmask 00000000
          hintmask 01111000
          -30 46 rmoveto
          hintmask 10111000
          -61 callgsubr
          hintmask 01111000
          -106 callgsubr
          418 1058 -85 callgsubr
        </CharString>
        <CharString name="Amacron">
          -56 callgsubr
          202 146 -10 callgsubr
          -1321 823 hintmask 00000000
          hintmask 01110100
          -30 46 rmoveto
          hintmask 10110100
          -61 callgsubr
          hintmask 01110100
          -106 callgsubr
          hintmask 00001010
          -8 1192 -64 callsubr
        </CharString>
        <CharString name="Aogonek">
          270 -15 98 -98 104 -73 -21 441 128 1037 -20 hstemhm
          1331 166 hintmask 00000000
          hintmask 10011100
          -30 46 rmoveto
          hintmask 01011100
          -61 callgsubr
          67 35 29 32 hvcurveto
          hintmask 10011100
          22 -16 22 -22 vhcurveto
          -23 -8 -7 -19 hhcurveto
          -52 -20 16 28 hvcurveto
          1 29 19 49 35 81 29 86 rcurveline
          44 19 38 20 73 hhcurveto
          524 hlineto
          70 30 -20 -38 18 hvcurveto
          hintmask 00111100
          69 -132 rlineto
          hintmask 10011100
          31 -66 10 -33 -32 vvcurveto
          -28 -25 -7 -36 vhcurveto
          -27 -22 9 -23 hhcurveto
          -30 -7 -27 -16 -23 27 -38 73 73 67 11 3 67 hvcurveto
          -70 -70 -41 -95 -116 vvcurveto
          -135 63 -49 75 1 vhcurveto
          221 2 rlineto
          20 14 13 15 13 -8 15 -33 8 hvcurveto
          -133 33 -53 87 87 vvcurveto
          79 25 64 40 44 vhcurveto
          -4 38 38 -6 42 hhcurveto
          59 27 31 30 20 -12 24 -26 hvcurveto
          -21 -12 -7 -17 hhcurveto
          -49 -49 34 158 -72 hvcurveto
          -529 1155 rlineto
          135 -61 -27 36 -25 hhcurveto
          -27 -8 -14 -150 -69 hvcurveto
          -494 -1070 rlineto
          -265 -122 -34 -19 -54 -17 -18 6 -14 hhcurveto
          -26 -13 -23 -20 hvcurveto
          558 545 rmoveto
          9 7 19 7 15 vhcurveto
          232 530 rlineto
          48 20 19 21 8 hhcurveto
          12 14 -24 -70 28 hvcurveto
          193 -470 rlineto
          20 -48 10 -22 -8 vvcurveto
          -19 -24 -8 -88 vhcurveto
          -347 hlineto
          -87 -24 8 19 hvcurveto
          endchar
        </CharString>
        <CharString name="Aring">
          -56 callgsubr
          -10 callgsubr
          hintmask 00000000
          hintmask 01111000
          -30 46 rmoveto
          hintmask 10111000
          -61 callgsubr
          hintmask 01111000
          -106 callgsubr
          325 922 -59 callgsubr
        </CharString>
        <CharString name="Atilde">
          -56 callgsubr
          87 12 callsubr
          -30 1796 -1295 761 hintmask 00000000
          hintmask 01110010
          -30 46 rmoveto
          hintmask 10110010
          -61 callgsubr
          hintmask 01110010
          -106 callgsubr
          hintmask 00000000
          -29 1079 -12 callgsubr
          hintmask 00001001
          -69 callsubr
          hintmask 00000101
          -70 callgsubr
        </CharString>
        <CharString name="B">
          -79 callsubr
          endchar
        </CharString>
        <CharString name="C">
          -97 callsubr
          endchar
        </CharString>
        <CharString name="CR">
          endchar
        </CharString>
        <CharString name="Cacute">
          -97 callsubr
          704 885 -98 callsubr
        </CharString>
        <CharString name="Ccaron">
          -97 callsubr
          795 870 -95 callsubr
        </CharString>
        <CharString name="Ccedilla">
          230 -521 78 211 80 129 146 -116 -21 1460 146 16 -20 hstemhm
          99 237 654 496 hintmask 00000000
          hintmask 11101011
          631 -409 rmoveto
          -3 callsubr
          130 rlineto
          -1 11 10 0 11 hhcurveto
          240 206 83 148 157 hvcurveto
          hintmask 11100111
          289 vlineto
          38 -12 26 -25 -25 -21 -27 -36 -9 vhcurveto
          hintmask 11011011
          -298 -74 -181 -77 -172 hhcurveto
          -377 -314 258 451 350 267 264 276 262 213 -105 -211 114 hvcurveto
          -20 10 19 -6 16 hhcurveto
          19 21 12 36 22 -9 34 -12 48 hvcurveto
          -14 54 rlineto
          -24 87 -8 66 89 vvcurveto
          42 -8 14 -23 -14 -15 -15 -46 -45 vhcurveto
          -31 -31 -25 -14 -19 -47 -105 90 -222 hhcurveto
          -472 -361 -320 -508 -391 263 -332 445 -55 hvcurveto
          hintmask 11101011
          -49 -237 rlineto
          -63 callsubr
          hvcurveto
          endchar
        </CharString>
        <CharString name="Ccircumflex">
          -97 callsubr
          485 870 -104 callgsubr
        </CharString>
        <CharString name="Cdotaccent">
          -97 callsubr
          798 927 -81 callsubr
        </CharString>
        <CharString name="D">
          -86 callgsubr
          endchar
        </CharString>
        <CharString name="Dcaron">
          -86 callgsubr
          374 1365 -95 callsubr
        </CharString>
        <CharString name="Dcroat">
          -76 callgsubr
        </CharString>
        <CharString name="Delta">
          269 0 130 1461 -20 hstem
          112 1482 vstem
          112 31 rmoveto
          -20 14 -11 25 vhcurveto
          1382 hlineto
          41 20 22 29 8 -3 11 -6 10 hvcurveto
          -719 1483 rlineto
          19 -10 -15 9 -15 hhcurveto
          -16 -16 -11 -16 -9 hvcurveto
          -666 -1507 rlineto
          1 hlineto
          -6 -10 -2 -8 -8 vvcurveto
          179 99 rmoveto
          498 1155 538 -1155 rlineto
          endchar
        </CharString>
        <CharString name="E">
          -107 callgsubr
          endchar
        </CharString>
        <CharString name="Eacute">
          -107 callgsubr
          565 1602 -98 callsubr
        </CharString>
        <CharString name="Ebreve">
          -107 callgsubr
          657 1583 -89 callgsubr
        </CharString>
        <CharString name="Ecaron">
          -107 callgsubr
          656 1587 -95 callsubr
        </CharString>
        <CharString name="Ecircumflex">
          -107 callgsubr
          346 1587 -104 callgsubr
        </CharString>
        <CharString name="Edieresis">
          -107 callgsubr
          hintmask 00000000
          945 1621 -83 callsubr
        </CharString>
        <CharString name="Edotaccent">
          -107 callgsubr
          659 1644 -81 callsubr
        </CharString>
        <CharString name="Egrave">
          -107 callgsubr
          752 1602 -85 callgsubr
        </CharString>
        <CharString name="Emacron">
          3 -15 98 -83 129 605 129 157 -20 431 130 -83 98 207 146 -29 callgsubr
          -200 823 -35 callsubr
          hintmask 0111100100000000
          104 47 rmoveto
          hintmask 1011010100000000
          -24 21 -38 73 vhcurveto
          106 43 15 108 hhcurveto
          834 hlineto
          26 101 30 84 44 87 21 41 10 33 -1 16 rrcurveto
          14 -1 -11 8 -14 hhcurveto
          -14 -2 -13 0 -34 -36 -35 -38 rcurveline
          -93 -84 -98 -86 -257 hhcurveto
          -209 hlineto
          hintmask 0111100100000000
          -60 -34 35 100 hvcurveto
          408 vlineto
          34 31 28 56 vhcurveto
          248 hlineto
          50 75 -37 -88 38 hvcurveto
          -18 8 6 -13 16 hhcurveto
          19 13 16 40 hvcurveto
          60 -8 54 55 63 8 62 36 vvcurveto
          41 -13 15 -19 -16 -7 -12 -18 -7 vhcurveto
          -88 -39 -73 -39 -51 hhcurveto
          -247 hlineto
          -65 -23 20 33 hvcurveto
          426 vlineto
          57 22 32 72 vhcurveto
          270 hlineto
          109 62 -10 -45 55 hvcurveto
          -67 83 57 -90 25 hhcurveto
          12 9 10 18 38 -46 144 -14 132 hvcurveto
          -827 hlineto
          -121 -19 15 -106 hhcurveto
          -73 -21 -45 callsubr
          25 hvcurveto
          20 11 6 18 -50 callsubr
          -903 vlineto
          -169 -15 -78 -98 vhcurveto
          -34 -6 7 -24 hhcurveto
          -25 -14 -24 -19 hvcurveto
          hintmask 0000001010000000
          326 1736 -64 callsubr
        </CharString>
        <CharString name="Eng">
          311 -518 111 392 77 1431 79 -72 77 hstemhm
          290 124 1015 125 hintmask 00000000
          hintmask 11011100
          74 37 rmoveto
          -24 21 -28 74 vhcurveto
          hintmask 11101100
          -23 callgsubr
          hintmask 11011100
          73 24 28 24 19 -14 12 -25 hvcurveto
          -30 -8 -6 -36 hhcurveto
          -94 -18 88 165 hvcurveto
          840 vlineto
          944 -1022 rlineto
          -153 vlineto
          -295 -179 -92 -165 -155 -159 41 162 -86 vhcurveto
          -1 vlineto
          47 -11 -7 14 -19 hhcurveto
          -27 -12 -23 -99 hvcurveto
          -121 vlineto
          -96 147 173 -35 106 hhcurveto
          284 305 145 347 hvcurveto
          210 vlineto
          1 3 rlineto
          1059 vlineto
          168 18 86 94 vhcurveto
          34 7 -7 24 hhcurveto
          24 14 14 18 23 -21 29 -73 hvcurveto
          -83 -42 -15 -58 -65 -60 15 -66 hhcurveto
          -73 -23 -29 -23 -18 14 -14 25 hvcurveto
          30 8 7 35 hhcurveto
          94 18 -87 -167 hvcurveto
          -805 vlineto
          -1046 1120 rlineto
          -101 -107 11 -107 hhcurveto
          -44 -14 -14 -14 -17 15 -13 21 -8 hvcurveto
          186 -72 59 -189 -59 vvcurveto
          -1 -871 rlineto
          -165 -18 -88 -95 vhcurveto
          -33 -8 6 -23 hhcurveto
          -25 -14 -12 -19 hvcurveto
          endchar
        </CharString>
        <CharString name="Eogonek">
          3 -15 98 -83 129 605 129 157 -20 431 130 -83 98 -29 callgsubr
          398 318 hintmask 00000000
          hintmask 01111011
          104 47 rmoveto
          hintmask 10110111
          -24 21 -38 73 vhcurveto
          106 43 15 108 hhcurveto
          628 hlineto
          -76 -71 -54 -92 4 callsubr
          -3 callgsubr
          74 40 65 56 53 vhcurveto
          hintmask 01111011
          74 hlineto
          26 101 30 84 44 87 21 41 10 33 -1 16 rrcurveto
          14 -1 -11 8 -14 hhcurveto
          -14 -2 -13 0 -34 -36 -35 -38 rcurveline
          -93 -84 -98 -86 -257 hhcurveto
          -209 hlineto
          -60 -34 35 100 hvcurveto
          408 vlineto
          34 31 28 56 vhcurveto
          248 hlineto
          50 75 -37 -88 38 hvcurveto
          -18 8 6 -13 16 hhcurveto
          19 13 16 40 hvcurveto
          60 -8 54 55 63 8 62 36 vvcurveto
          41 -13 15 -19 -16 -7 -12 -18 -7 vhcurveto
          -88 -39 -73 -39 -51 hhcurveto
          -247 hlineto
          -65 -23 20 33 hvcurveto
          426 vlineto
          57 22 32 72 vhcurveto
          270 hlineto
          109 62 -10 -45 55 hvcurveto
          -67 83 57 -90 25 hhcurveto
          12 9 10 18 38 -46 144 -14 132 hvcurveto
          -827 hlineto
          -121 -19 15 -106 hhcurveto
          -73 -21 -45 callsubr
          25 hvcurveto
          20 11 6 18 -50 callsubr
          -903 vlineto
          -169 -15 -78 -98 vhcurveto
          -34 -6 7 -24 hhcurveto
          -25 -14 -24 -19 hvcurveto
          endchar
        </CharString>
        <CharString name="Eth">
          -76 callgsubr
        </CharString>
        <CharString name="Euro">
          263 -23 136 414 119 250 117 445 129 14 -20 hstemhm
          152 257 1079 101 hintmask 00000000
          hintmask 11110110
          71 527 rmoveto
          106 hlineto
          -358 78 313 -192 430 hhcurveto
          323 268 234 219 27 -33 11 -19 -16 -33 -25 -37 hvcurveto
          -183 -72 -183 -110 -191 hhcurveto
          -256 -247 104 310 -99 hvcurveto
          648 hlineto
          57 33 20 59 hvcurveto
          hintmask 11101110
          38 -50 2 -41 vhcurveto
          -667 hlineto
          -12 57 -3 127 7 66 rrcurveto
          hintmask 11110110
          798 hlineto
          55 33 8 59 39 -50 11 -40 hvcurveto
          -788 hlineto
          249 38 178 196 289 hhcurveto
          197 290 -126 -149 104 hvcurveto
          -16 11 10 -7 15 hhcurveto
          19 10 12 35 23 -8 34 -13 47 hvcurveto
          -14 54 rlineto
          -14 52 -2 56 74 vvcurveto
          42 -8 12 -23 -13 -16 -12 -47 -45 vhcurveto
          -32 -32 -12 -2 -19 -37 -135 79 -229 hhcurveto
          -413 -290 -252 -322 -78 hvcurveto
          -86 hlineto
          -55 -36 -3 -62 -37 27 -15 41 hvcurveto
          88 hlineto
          -5 -32 -2 -66 -33 vvcurveto
          -31 2 -60 4 -28 vhcurveto
          -64 hlineto
          -55 -36 -4 -62 -36 27 -17 41 hvcurveto
          endchar
        </CharString>
        <CharString name="F">
          -77 callgsubr
          endchar
        </CharString>
        <CharString name="G">
          -98 callgsubr
          endchar
        </CharString>
        <CharString name="Gbreve">
          -98 callgsubr
          864 886 -89 callgsubr
        </CharString>
        <CharString name="Gcircumflex">
          -98 callgsubr
          553 890 -104 callgsubr
        </CharString>
        <CharString name="Gcommaaccent">
          390 -504 -21 502 146 622 98 603 146 27 -20 hstemhm
          98 247 602 175 290 231 hintmask 00000000
          hintmask 01110101
          98 744 rmoveto
          -421 319 -346 559 235 157 53 89 124 vhcurveto
          30 22 52 27 69 35 rrcurveto
          309 vlineto
          96 -2 137 55 vhcurveto
          25 21 -9 25 hhcurveto
          hintmask 01101101
          25 14 25 19 24 23 callgsubr
          -69 -43 -16 -74 hhcurveto
          hintmask 01110101
          -84 -48 16 -113 hhcurveto
          -73 -21 -39 -24 -19 14 -27 25 hvcurveto
          29 23 11 22 hhcurveto
          94 18 -66 -167 hvcurveto
          -190 vlineto
          -130 -219 -69 -146 -391 -312 263 430 1 vhcurveto
          362 1 247 268 371 hhcurveto
          231 241 -87 -180 99 hvcurveto
          -19 10 10 -4 16 hhcurveto
          13 14 12 35 hvcurveto
          59 -65 185 118 vvcurveto
          24 -4 30 -26 -16 -15 -11 -48 -45 vhcurveto
          -33 -32 -16 -8 -12 hhcurveto
          -15 -26 5 11 -27 hvcurveto
          33 -83 -105 24 -113 hhcurveto
          -538 -362 -362 -486 hvcurveto
          hintmask 10000010
          730 -960 -94 callgsubr
        </CharString>
        <CharString name="Gdotaccent">
          -98 callgsubr
          866 947 -81 callsubr
        </CharString>
        <CharString name="H">
          -84 callsubr
          endchar
        </CharString>
        <CharString name="Hbar">
          500 -15 98 746 143 115 106 285 98 -18 callsubr
          826 235 vstem
          104 47 -24 callgsubr
          105 51 15 82 84 48 -15 108 hhcurveto
          72 22 -5 callsubr
          -25 hvcurveto
          -26 -10 -6 -28 hhcurveto
          -95 -17 66 166 hvcurveto
          451 vlineto
          35 30 28 76 vhcurveto
          614 hlineto
          74 32 -28 -35 hvcurveto
          -451 vlineto
          -166 -19 -66 28 callgsubr
          -23 -14 -23 -19 -24 21 -38 72 hvcurveto
          109 46 15 85 83 50 -15 106 hhcurveto
          73 21 -28 callgsubr
          -15 23 -23 hvcurveto
          -28 -9 -6 -28 hhcurveto
          -94 -19 68 164 hvcurveto
          772 126 vlineto
          48 50 7 43 53 -54 3 -45 hvcurveto
          -125 52 hlineto
          165 19 68 29 callgsubr
          23 15 22 20 30 callgsubr
          -106 -50 -15 -83 -85 -46 15 -109 hhcurveto
          -72 -67 callsubr
          23 17 callsubr
          -66 -167 hvcurveto
          -52 -826 52 vlineto
          167 17 66 95 vhcurveto
          34 8 -6 22 5 callgsubr
          -108 -48 -15 -84 -82 -51 15 -105 hhcurveto
          -74 0 callgsubr
          30 hhcurveto
          93 19 -67 -166 hvcurveto
          -52 -130 vlineto
          -62 -37 -17 -32 -39 37 -18 59 hvcurveto
          133 -772 hlineto
          -48 callgsubr
          -25 hhcurveto
          -24 -14 -23 -19 hvcurveto
          452 976 rmoveto
          64 826 -64 vlineto
          -32 -25 -19 -81 vhcurveto
          -614 hlineto
          -84 -22 19 32 hvcurveto
          endchar
        </CharString>
        <CharString name="Hcircumflex">
          -84 callsubr
          535 1587 -104 callgsubr
        </CharString>
        <CharString name="I">
          -39 callgsubr
          hstem
          320 236 vstem
          -105 callgsubr
          endchar
        </CharString>
        <CharString name="IJ">
          860 -23 139 -130 36 callsubr
          1255 236 hintmask 01110000
          -105 callgsubr
          hintmask 10101000
          927 58 -76 callsubr
          endchar
        </CharString>
        <CharString name="Iacute">
          -39 callgsubr
          hstem
          320 236 vstem
          -105 callgsubr
          231 1601 -98 callsubr
        </CharString>
        <CharString name="Ibreve">
          -39 callgsubr
          hstem
          320 236 vstem
          -105 callgsubr
          323 1582 -89 callgsubr
        </CharString>
        <CharString name="Icircumflex">
          -39 callgsubr
          hstem
          320 236 vstem
          -105 callgsubr
          12 1586 -104 callgsubr
        </CharString>
        <CharString name="Idieresis">
          -561 -14 36 callsubr
          vstemhm
          -105 callgsubr
          611 1620 -83 callsubr
        </CharString>
        <CharString name="Idotaccent">
          -39 callgsubr
          hstem
          320 236 vstem
          -105 callgsubr
          325 1643 -81 callsubr
        </CharString>
        <CharString name="Igrave">
          -39 callgsubr
          hstem
          320 236 vstem
          -105 callgsubr
          418 1601 -85 callgsubr
        </CharString>
        <CharString name="Imacron">
          -39 callgsubr
          207 146 hstemhm
          22 823 -525 236 hintmask 11001000
          -105 callgsubr
          hintmask 00110000
          -8 1735 -64 callsubr
        </CharString>
        <CharString name="Iogonek">
          -39 callgsubr
          hstemhm
          105 330 -166 502 -451 236 hintmask 00000000
          hintmask 11001000
          105 48 rmoveto
          -24 21 -38 73 vhcurveto
          hintmask 11010000
          89 48 10 3 62 hvcurveto
          -76 -71 -53 -91 4 callsubr
          hintmask 11100000
          -3 callgsubr
          72 37 63 54 52 vhcurveto
          -4 43 43 -5 65 hhcurveto
          74 20 -28 callgsubr
          -13 23 -25 -9 callsubr
          -29 hhcurveto
          -94 -18 67 165 hvcurveto
          929 vlineto
          166 18 67 94 -13 callsubr
          24 hhcurveto
          25 13 -39 callsubr
          -20 39 -74 hvcurveto
          -106 -50 -15 -82 -85 -47 15 -27 callgsubr
          -73 -67 callsubr
          25 hvcurveto
          25 13 callgsubr
          -66 -167 hvcurveto
          -929 -7 callgsubr
          -66 -94 vhcurveto
          -35 -7 6 -22 hhcurveto
          -25 -14 -23 -19 hvcurveto
          endchar
        </CharString>
        <CharString name="Itilde">
          -39 callgsubr
          92 12 callsubr
          48 761 -489 236 hintmask 11000100
          -105 callgsubr
          hintmask 00000000
          -29 1622 -12 callgsubr
          hintmask 00101000
          -69 callsubr
          hintmask 00011000
          -70 callgsubr
        </CharString>
        <CharString name="J">
          -16 -23 139 1362 98 hstem
          935 236 vstem
          156 106 -76 callsubr
          endchar
        </CharString>
        <CharString name="Jcircumflex">
          -16 -23 139 1362 98 hstem
          935 236 vstem
          156 106 -76 callsubr
          569 1153 -104 callgsubr
        </CharString>
        <CharString name="K">
          188 -20 callsubr
          hstem
          320 235 vstem
          -81 callgsubr
          endchar
        </CharString>
        <CharString name="Kcommaaccent">
          188 -504 -21 511 -9 callgsubr
          -29 callgsubr
          303 175 hintmask 01110000
          -81 callgsubr
          hintmask 10001000
          635 -264 -94 callgsubr
        </CharString>
        <CharString name="L">
          -43 0 129 1349 98 hstem
          320 235 vstem
          105 47 -90 callsubr
          endchar
        </CharString>
        <CharString name="Lacute">
          -47 -15 96 -81 126 1306 96 hstemhm
          320 231 hintmask 01110000
          796 1643 rmoveto
          10 11 4 12 24 hvcurveto
          236 120 rlineto
          91 49 46 49 58 vvcurveto
          50 -40 35 -50 -58 -48 -19 -96 -77 vhcurveto
          -159 -197 rlineto
          -11 -14 -6 -10 -12 vvcurveto
          -12 9 -17 22 vhcurveto
          hintmask 10110000
          -687 -1597 rmoveto
          -23 21 -38 71 vhcurveto
          107 47 15 147 hhcurveto
          hintmask 01110000
          773 hlineto
          32 136 20 58 47 96 rrcurveto
          20 42 6 26 14 vvcurveto
          17 -10 9 -14 -14 -11 -7 -26 -25 vhcurveto
          -200 -195 -105 -39 -175 hhcurveto
          -209 hlineto
          -57 -34 35 98 hvcurveto
          945 vlineto
          162 18 66 92 vhcurveto
          34 6 -6 24 hhcurveto
          24 14 22 19 23 -21 38 -72 hvcurveto
          -104 -49 -15 -81 -83 -46 15 -106 hhcurveto
          -71 -21 -38 -23 -19 14 -22 24 hvcurveto
          25 10 6 28 hhcurveto
          93 17 -66 -162 hvcurveto
          -880 vlineto
          -166 -13 -77 -97 vhcurveto
          hintmask 10110000
          -33 -8 7 -22 hhcurveto
          -24 -14 -23 -19 hvcurveto
          endchar
        </CharString>
        <CharString name="Lcaron">
          -43 5 129 1349 98 -25 -20 -29 callgsubr
          555 148 hintmask 11010000
          105 52 -90 callsubr
          hintmask 00101000
          902 894 -73 callgsubr
        </CharString>
        <CharString name="Lcommaaccent">
          -43 -504 -21 525 129 1349 98 -29 callgsubr
          183 175 hintmask 01110000
          105 47 -90 callsubr
          hintmask 10001000
          514 -263 -94 callgsubr
        </CharString>
        <CharString name="Ldot">
          -43 0 129 658 -21 712 98 -29 callgsubr
          534 341 hintmask 10110000
          105 47 -90 callsubr
          hintmask 01001000
          984 883 rmoveto
          -55 callgsubr
          endchar
        </CharString>
        <CharString name="Lslash">
          -43 0 129 899 -20 470 98 hstem
          320 235 vstem
          105 47 rmoveto
          -24 21 -38 72 vhcurveto
          110 48 15 149 hhcurveto
          779 hlineto
          -9 89 9 66 31 141 rrcurveto
          10 46 16 23 14 vvcurveto
          18 -10 9 -14 -14 -12 -7 -27 -25 vhcurveto
          -204 -171 -93 -39 -151 hhcurveto
          -203 10 callgsubr
          486 vlineto
          267 145 rlineto
          59 32 25 29 26 vvcurveto
          28 -24 18 -23 -21 -25 -13 -32 -60 vhcurveto
          -198 -107 rlineto
          369 vlineto
          166 19 67 29 callgsubr
          24 15 -39 callsubr
          -22 39 -73 hvcurveto
          -106 -50 -15 -83 -85 -46 15 -109 hhcurveto
          -72 -58 callgsubr
          26 13 callgsubr
          -67 -166 hvcurveto
          -495 vlineto
          -139 -74 rlineto
          -32 -17 -29 -25 -33 vvcurveto
          -29 21 -19 29 13 22 7 28 52 vhcurveto
          63 34 rlineto
          -292 vlineto
          -169 -13 -78 -99 vhcurveto
          -34 -8 7 -23 hhcurveto
          -24 -14 -24 -19 hvcurveto
          endchar
        </CharString>
        <CharString name="M">
          -80 callsubr
          endchar
        </CharString>
        <CharString name="N">
          329 -15 -19 callsubr
          1016 134 hintmask 00000000
          hintmask 10111000
          84 47 -24 callgsubr
          hintmask 11011000
          -23 callgsubr
          hintmask 10111000
          -99 callsubr
          endchar
        </CharString>
        <CharString name="Nacute">
          329 -15 -19 callsubr
          1016 134 hintmask 00000000
          hintmask 10111000
          84 47 -24 callgsubr
          hintmask 11011000
          -23 callgsubr
          hintmask 10111000
          -99 callsubr
          756 1602 -98 callsubr
        </CharString>
        <CharString name="Ncaron">
          329 -15 -19 callsubr
          1016 134 hintmask 00000000
          hintmask 10111000
          84 47 -24 callgsubr
          hintmask 11011000
          -23 callgsubr
          hintmask 10111000
          -99 callsubr
          847 1587 -95 callsubr
        </CharString>
        <CharString name="Ncommaaccent">
          329 -504 -21 510 -19 callsubr
          515 175 326 134 hintmask 00000000
          hintmask 01011010
          84 47 -24 callgsubr
          hintmask 01101010
          -23 callgsubr
          hintmask 01011010
          -99 callsubr
          hintmask 10000100
          736 -263 -94 callgsubr
        </CharString>
        <CharString name="Ntilde">
          329 -15 98 1390 102 -95 97 91 12 callsubr
          290 134 128 761 127 134 hintmask 00000000
          hintmask 10100101
          84 47 -24 callgsubr
          hintmask 11000101
          -23 callgsubr
          hintmask 10100101
          -99 callsubr
          hintmask 00000000
          496 1623 -12 callgsubr
          hintmask 00010010
          -69 callsubr
          hintmask 00001010
          -70 callgsubr
        </CharString>
        <CharString name="O">
          -49 callsubr
          hstem
          -32 callsubr
          vstem
          -96 callgsubr
          endchar
        </CharString>
        <CharString name="OE">
          853 -23 145 -122 129 616 118 157 -20 431 130 -111 142 hstemhm
          104 221 816 236 hintmask 00000000
          hintmask 10110111
          104 744 rmoveto
          -457 319 -310 494 vhcurveto
          154 87 23 119 hhcurveto
          hintmask 01111011
          834 hlineto
          34 101 36 85 51 86 rrcurveto
          25 42 13 31 17 vvcurveto
          14 -10 8 -14 vhcurveto
          -16 -2 -12 -1 -36 -35 -37 -38 rcurveline
          -93 -93 -116 -86 -257 hhcurveto
          -210 hlineto
          -58 -34 35 100 hvcurveto
          418 vlineto
          34 31 29 54 vhcurveto
          250 hlineto
          49 76 -38 -88 37 hvcurveto
          -18 8 7 -12 16 hhcurveto
          17 14 15 41 hvcurveto
          56 -9 51 51 63 9 62 36 vvcurveto
          41 -14 15 -17 -16 -8 -12 -18 -7 vhcurveto
          -88 -38 -74 -39 -50 hhcurveto
          -249 hlineto
          -63 -23 20 33 hvcurveto
          426 vlineto
          57 22 32 70 vhcurveto
          272 hlineto
          200 91 -110 -100 81 hvcurveto
          -25 19 9 -3 12 hhcurveto
          12 9 11 18 37 -66 169 -16 133 hvcurveto
          -654 hlineto
          -305 0 31 -179 hhcurveto
          -524 -326 -362 -486 hvcurveto
          221 162 rmoveto
          331 226 213 290 95 113 -27 -47 92 vhcurveto
          -1241 vlineto
          -10 -36 -38 -3 -36 hhcurveto
          -344 -362 282 502 hvcurveto
          endchar
        </CharString>
        <CharString name="Oacute">
          -49 callsubr
          hstem
          -32 callsubr
          vstem
          -96 callgsubr
          488 743 -98 callsubr
        </CharString>
        <CharString name="Obreve">
          -49 callsubr
          hstem
          -32 callsubr
          vstem
          -96 callgsubr
          580 724 -89 callgsubr
        </CharString>
        <CharString name="Ocircumflex">
          -49 callsubr
          hstem
          -32 callsubr
          vstem
          -96 callgsubr
          269 728 -104 callgsubr
        </CharString>
        <CharString name="Odieresis">
          -49 callsubr
          hstemhm
          -32 callsubr
          vstemhm
          -96 callgsubr
          868 762 -83 callsubr
        </CharString>
        <CharString name="Ograve">
          -49 callsubr
          hstem
          -32 callsubr
          vstem
          -96 callgsubr
          675 743 -85 callgsubr
        </CharString>
        <CharString name="Ohungarumlaut">
          -49 callsubr
          hstem
          -32 callsubr
          vstem
          -96 callgsubr
          790 744 -72 callsubr
        </CharString>
        <CharString name="Omacron">
          -49 callsubr
          191 146 hstemhm
          99 221 174 823 184 246 hintmask 11010100
          -96 callgsubr
          hintmask 00101000
          249 877 -64 callsubr
        </CharString>
        <CharString name="Omega">
          605 0 195 1252 137 hstemhm
          194 110 12 228 947 229 12 112 hintmask 00000000
          hintmask 11111000
          194 hmoveto
          706 hlineto
          30 6 11 30 33 vvcurveto
          42 -19 49 -28 17 vhcurveto
          -160 94 -190 237 331 vvcurveto
          431 198 177 286 240 223 -152 -422 vhcurveto
          hintmask 11011000
          -320 -128 -247 -197 -129 vhcurveto
          -26 -17 -18 -47 -40 vvcurveto
          -36 13 -32 26 -5 vhcurveto
          687 hlineto
          -4 371 rlineto
          28 -22 9 -24 vhcurveto
          hintmask 11011100
          -30 -34 -15 -14 -2 hvcurveto
          -32 -184 rlineto
          -326 hlineto
          172 150 174 296 254 vvcurveto
          442 -285 247 -394 -360 -365 -246 -500 vhcurveto
          hintmask 11011000
          -288 180 -244 165 -111 vhcurveto
          -324 hlineto
          -33 184 rlineto
          14 -2 -32 15 -30 hhcurveto
          hintmask 11111000
          -24 -22 -9 -28 hvcurveto
          endchar
        </CharString>
        <CharString name="Oslash">
          413 -18 125 1369 121 hstem
          103 221 1181 246 vstem
          246 -150 rmoveto
          -37 25 -19 31 30 21 12 39 26 vhcurveto
          145 215 rlineto
          -51 112 132 -27 148 hhcurveto
          447 388 298 527 248 -115 226 -187 147 hvcurveto
          125 186 rlineto
          24 33 14 26 30 vvcurveto
          30 -26 19 -30 -27 -19 -9 -44 -29 vhcurveto
          -137 -201 rlineto
          63 -113 -133 36 -145 hhcurveto
          -524 -326 -362 -486 -273 113 -220 196 -134 hvcurveto
          -132 -194 rlineto
          -26 -39 -8 -21 -18 vvcurveto
          300 471 rmoveto
          -132 139 -90 200 251 vvcurveto
          331 226 234 290 139 134 -57 -97 112 vhcurveto
          -581 -1085 rmoveto
          670 991 rlineto
          117 -144 74 -197 -220 vvcurveto
          -369 -219 -191 -256 -134 -135 45 85 -117 vhcurveto
          endchar
        </CharString>
        <CharString name="Otilde">
          -49 callsubr
          76 12 callsubr
          99 221 200 761 220 246 hintmask 11001010
          -96 callgsubr
          hintmask 00000000
          228 764 -12 callgsubr
          hintmask 00100100
          -69 callsubr
          hintmask 00010100
          -70 callgsubr
        </CharString>
        <CharString name="P">
          -73 callsubr
          endchar
        </CharString>
        <CharString name="Q">
          410 -441 150 207 211 -126 126 -119 -21 35 -21 1444 147 hstemhm
          -32 callsubr
          hintmask 00000000
          hintmask 10001111
          661 -113 rmoveto
          -23 19 -27 25 vhcurveto
          hintmask 10010111
          19 -1 9 10 17 11 rrcurveto
          hintmask 11000111
          40 55 47 19 52 hhcurveto
          97 32 -17 -72 76 hvcurveto
          -161 167 166 -107 201 hhcurveto
          157 99 92 49 21 -23 33 -22 hvcurveto
          -39 -18 -45 -82 hhcurveto
          -70 -58 17 58 -66 hvcurveto
          -104 92 -109 97 -201 28 rrcurveto
          359 74 281 284 448 vvcurveto
          425 -337 360 -460 vhcurveto
          hintmask 10001111
          -525 -326 -357 -486 -424 273 -296 433 -42 hvcurveto
          -95 -27 -49 -44 -29 vvcurveto
          -341 1024 rmoveto
          331 227 203 289 vhcurveto
          hintmask 10100111
          347 318 -302 -476 -369 -219 -171 -256 hvcurveto
          hintmask 10001111
          -344 -362 262 522 hvcurveto
          endchar
        </CharString>
        <CharString name="R">
          -94 callsubr
          endchar
        </CharString>
        <CharString name="Racute">
          -94 callsubr
          182 821 -98 callsubr
        </CharString>
        <CharString name="Rcaron">
          -94 callsubr
          273 806 -95 callsubr
        </CharString>
        <CharString name="Rcommaaccent">
          181 -504 -21 510 98 -95 114 593 104 646 147 -115 98 hstemhm
          320 234 227 175 243 256 -35 callsubr
          hintmask 0101101010000000
          103 47 rmoveto
          -24 22 -38 73 vhcurveto
          104 51 15 84 84 51 -15 104 hhcurveto
          73 22 -28 callgsubr
          -15 23 -24 hvcurveto
          -28 -9 -6 -27 hhcurveto
          -95 -19 67 165 hvcurveto
          hintmask 0011101010000000
          381 vlineto
          146 1 58 -54 68 -118 rrcurveto
          -440 254 96 -97 283 hhcurveto
          110 49 37 30 26 -1 32 -43 2 hvcurveto
          1 -22 -7 -14 -28 hhcurveto
          -64 -94 29 186 -109 hvcurveto
          -123 208 -101 100 -121 70 rrcurveto
          16 hlineto
          hintmask 0101011010000000
          282 252 146 313 219 -151 219 -394 hvcurveto
          -145 -176 -31 -139 -120 -24 14 -27 callgsubr
          -73 -22 -38 -23 -22 15 -21 24 hvcurveto
          21 11 6 18 hhcurveto
          107 21 -78 -167 hvcurveto
          -917 vlineto
          22 callsubr
          -95 vhcurveto
          -32 -8 6 -24 hhcurveto
          hintmask 0101101010000000
          -24 -15 -23 -19 hvcurveto
          451 781 rmoveto
          502 vlineto
          91 47 24 179 302 117 -144 -198 -212 -171 -92 -186 -119 -79 -10 39 -90 vhcurveto
          hintmask 1000000100000000
          108 -1044 -94 callgsubr
        </CharString>
        <CharString name="S">
          -104 callsubr
          endchar
        </CharString>
        <CharString name="Sacute">
          -104 callsubr
          450 1168 -98 callsubr
        </CharString>
        <CharString name="Scaron">
          -104 callsubr
          541 1153 -95 callsubr
        </CharString>
        <CharString name="Scedilla">
          -33 -521 78 211 80 132 136 1330 146 24 -20 hstemhm
          177 213 441 330 -74 220 hintmask 00000000
          hintmask 11110110
          153 127 rmoveto
          132 -63 127 -69 235 -15 -48 -231 rcurveline
          hintmask 11110101
          -63 callsubr
          3 callsubr
          hvcurveto
          hintmask 11110110
          -16 hlineto
          32 129 rlineto
          347 3 208 177 275 vvcurveto
          237 -152 155 -417 108 vhcurveto
          -288 75 -60 111 126 vvcurveto
          100 85 102 214 206 156 -70 -176 85 vhcurveto
          -39 18 11 -18 18 hhcurveto
          16 14 12 35 32 -9 37 -8 36 hvcurveto
          hintmask 11110101
          -27 110 -6 93 -2 63 rrcurveto
          43 -1 -20 12 -20 hhcurveto
          -12 -17 -15 -22 -16 hvcurveto
          -38 -28 -12 -4 -11 hhcurveto
          hintmask 11110110
          -3 -108 55 -196 hhcurveto
          -375 -165 -221 -212 -205 154 -182 374 -85 hvcurveto
          325 -75 57 -139 -119 vvcurveto
          hintmask 11101110
          -153 -116 -85 -233 -225 -250 159 268 -30 vhcurveto
          46 -6 -14 14 -18 hhcurveto
          hintmask 11110110
          -25 -17 -33 -89 hvcurveto
          endchar
        </CharString>
        <CharString name="Scircumflex">
          -104 callsubr
          231 1153 -104 callgsubr
        </CharString>
        <CharString name="Scommaaccent">
          -33 -499 -21 497 139 1330 146 24 -20 hstemhm
          177 213 306 175 216 220 hintmask 00000000
          hintmask 01101010
          153 127 rmoveto
          -71 149 142 -79 299 hhcurveto
          353 211 178 277 237 -152 155 -417 108 hvcurveto
          -288 75 -60 111 126 vvcurveto
          100 85 102 214 206 156 -70 -176 85 vhcurveto
          -39 18 11 -18 18 hhcurveto
          16 14 12 35 32 -9 37 -8 36 hvcurveto
          -27 110 -6 93 -2 63 rrcurveto
          43 -1 -20 12 -20 hhcurveto
          -12 -17 -15 -22 -16 hvcurveto
          -38 -28 -12 -4 -11 -3 -108 55 -196 hhcurveto
          -375 -165 -221 -212 -205 154 -182 374 -85 hvcurveto
          325 -75 57 -139 -119 vvcurveto
          hintmask 01011010
          -153 -116 -85 -233 -225 -250 159 268 -30 vhcurveto
          46 -6 -14 14 -18 hhcurveto
          hintmask 01101010
          -25 -17 -33 -89 hvcurveto
          hintmask 10000100
          424 -692 -94 callgsubr
        </CharString>
        <CharString name="T">
          102 -15 98 1338 140 64 -20 hstem
          673 235 vstem
          -93 callgsubr
          endchar
        </CharString>
        <CharString name="Tbar">
          102 -15 98 784 107 447 140 64 -20 hstem
          673 235 vstem
          427 47 rmoveto
          -24 33 -38 71 vhcurveto
          119 52 15 89 87 55 -15 117 hhcurveto
          72 32 -31 callsubr
          26 -24 hvcurveto
          -34 -20 -9 -41 hhcurveto
          -95 -18 88 165 hvcurveto
          531 193 vlineto
          48 51 7 43 54 -35 3 -45 hvcurveto
          -212 446 hlineto
          181 1 99 -22 65 -32 78 -41 13 -43 17 -83 rrcurveto
          -24 4 11 -8 16 hhcurveto
          11 16 11 37 7 hvcurveto
          15 74 47 170 52 128 rrcurveto
          33 13 -36 4 -7 -35 -21 -64 -27 callgsubr
          -1012 hlineto
          -78 -17 6 16 -13 hvcurveto
          34 -26 -11 8 -16 hhcurveto
          -14 -15 -10 -44 -7 hvcurveto
          -32 -180 -56 -39 -148 vvcurveto
          -24 9 -9 15 35 95 175 40 157 vhcurveto
          13 60 17 22 236 hhcurveto
          -447 -278 vlineto
          -62 -37 -17 -33 -39 37 -18 59 hvcurveto
          281 -531 hlineto
          -166 -18 -87 -94 vhcurveto
          -42 -19 9 -34 hhcurveto
          -25 -14 -26 -19 hvcurveto
          endchar
        </CharString>
        <CharString name="Tcaron">
          102 -15 98 1338 140 64 -20 hstem
          673 235 vstem
          -93 callgsubr
          342 1587 -95 callsubr
        </CharString>
        <CharString name="Tcommaaccent">
          102 -499 -21 505 98 1338 140 64 -20 hstemhm
          673 235 -137 175 hintmask 01111000
          -93 callgsubr
          hintmask 10000100
          225 -258 -94 callgsubr
        </CharString>
        <CharString name="Thorn">
          81 -15 98 246 131 670 130 218 98 hstem
          340 236 635 256 vstem
          125 47 rmoveto
          -24 22 -38 72 vhcurveto
          108 47 15 85 86 55 -15 118 hhcurveto
          72 32 -31 callsubr
          26 -24 hvcurveto
          -36 -18 -9 -42 hhcurveto
          -102 -9 109 166 -1 hvcurveto
          -22 90 83 -7 84 hhcurveto
          310 324 146 345 266 -225 174 -393 -69 -104 -13 -24 -100 hvcurveto
          5 vlineto
          164 17 86 95 vhcurveto
          42 18 -9 36 hhcurveto
          24 14 25 20 23 -32 39 -72 hvcurveto
          -118 -55 -15 -86 -85 -47 15 -27 callgsubr
          -72 -22 -39 -23 -20 14 -22 25 hvcurveto
          25 11 6 28 hhcurveto
          94 18 -84 -166 hvcurveto
          -898 -7 callgsubr
          -81 -94 vhcurveto
          -35 -7 6 -22 hhcurveto
          -25 -14 -23 -19 hvcurveto
          451 473 rmoveto
          469 vlineto
          90 95 51 105 250 185 -136 -249 -193 -144 -92 -213 -83 -112 17 43 -83 vhcurveto
          endchar
        </CharString>
        <CharString name="U">
          -52 callgsubr
          hstem
          -33 callsubr
          vstem
          -107 callsubr
          endchar
        </CharString>
        <CharString name="Uacute">
          -52 callgsubr
          hstem
          -33 callsubr
          vstem
          -107 callsubr
          550 404 -98 callsubr
        </CharString>
        <CharString name="Ubreve">
          -52 callgsubr
          hstem
          -33 callsubr
          vstem
          -107 callsubr
          642 385 -89 callgsubr
        </CharString>
        <CharString name="Ucircumflex">
          -52 callgsubr
          hstem
          -33 callsubr
          vstem
          -107 callsubr
          331 389 -104 callgsubr
        </CharString>
        <CharString name="Udieresis">
          -52 callgsubr
          hstemhm
          -33 callsubr
          vstemhm
          -107 callsubr
          930 423 -83 callsubr
        </CharString>
        <CharString name="Ugrave">
          -52 callgsubr
          hstem
          -33 callsubr
          vstem
          -107 callsubr
          737 404 -85 callgsubr
        </CharString>
        <CharString name="Uhungarumlaut">
          -52 callgsubr
          hstem
          -33 callsubr
          vstem
          -107 callsubr
          852 405 -72 callsubr
        </CharString>
        <CharString name="Umacron">
          -52 callgsubr
          207 146 hstemhm
          272 235 1 823 7 237 hintmask 11010100
          -107 callsubr
          hintmask 00101000
          311 538 -64 callsubr
        </CharString>
        <CharString name="Uogonek">
          -52 callgsubr
          hstemhm
          272 235 616 352 -165 479 -451 237 hintmask 00000000
          hintmask 11100100
          272 557 rmoveto
          -363 224 -217 412 vhcurveto
          hintmask 11101000
          140 162 50 88 129 hvcurveto
          5 -78 20 -32 29 -8 rrcurveto
          -49 -74 -34 -101 -104 vvcurveto
          hintmask 11110000
          -134 92 -50 105 1 vhcurveto
          221 2 rlineto
          20 14 13 15 14 -8 13 -33 9 hvcurveto
          -175 33 -71 88 86 vvcurveto
          74 24 68 29 50 vhcurveto
          -1 35 72 -8 41 hhcurveto
          79 21 39 25 17 -15 19 -23 hvcurveto
          -10 -21 -12 -26 hhcurveto
          -98 -5 59 217 -1 hvcurveto
          -3 890 rlineto
          154 1 15 79 96 35 30 callsubr
          13 -39 callsubr
          -20 39 -74 hvcurveto
          -106 -50 -15 -82 -85 -47 15 -27 callgsubr
          -72 -22 -43 callgsubr
          27 9 32 callsubr
          -66 -167 hvcurveto
          -968 vlineto
          -93 -109 -131 -58 -158 hhcurveto
          -257 -176 137 275 hvcurveto
          707 vlineto
          167 17 66 95 -13 callsubr
          25 hhcurveto
          23 14 -29 callsubr
          -72 hvcurveto
          -109 -48 -15 -83 -83 -51 15 -105 hhcurveto
          -73 0 callgsubr
          29 hhcurveto
          94 19 -68 -165 hvcurveto
          endchar
        </CharString>
        <CharString name="Uring">
          -52 callgsubr
          hstem
          -33 callsubr
          vstem
          -107 callsubr
          644 268 -59 callgsubr
        </CharString>
        <CharString name="Utilde">
          -52 callgsubr
          92 12 callsubr
          272 235 27 761 43 237 hintmask 11001010
          -107 callsubr
          hintmask 00000000
          290 425 -12 callgsubr
          hintmask 00100100
          -69 callsubr
          hintmask 00010100
          -70 callgsubr
        </CharString>
        <CharString name="V">
          270 -17 -21 1516 97 hstem
          -30 1796 vstem
          654 340 rmoveto
          -334 153 132 -44 52 hhcurveto
          18 8 7 12 hvcurveto
          25 -47 -3 46 vvcurveto
          39 22 81 129 282 vhcurveto
          336 753 rlineto
          247 115 38 27 61 21 16 -7 20 hhcurveto
          24 14 21 20 32 -38 31 -45 hvcurveto
          -60 -52 -14 -54 -50 -85 14 -94 hhcurveto
          -66 -32 -35 -28 -20 16 -20 22 hvcurveto
          32 15 9 40 hhcurveto
          34 20 -11 -26 -43 -7 -58 -34 -78 hvcurveto
          -373 -806 rlineto
          -48 -20 -7 -10 -6 hhcurveto
          -7 -10 4 90 -38 hvcurveto
          -367 810 rlineto
          -33 71 -9 44 14 vvcurveto
          30 18 16 45 vhcurveto
          32 19 -8 27 hhcurveto
          29 8 23 17 32 -35 31 -68 hvcurveto
          -94 -87 -14 -88 -76 -59 14 -65 hhcurveto
          -63 -31 -36 -27 -21 15 -20 24 hvcurveto
          23 16 7 16 hhcurveto
          42 37 -23 -180 79 hvcurveto
          endchar
        </CharString>
        <CharString name="W">
          -106 callsubr
          endchar
        </CharString>
        <CharString name="Wacute">
          -106 callsubr
          429 1666 -98 callsubr
        </CharString>
        <CharString name="Wcircumflex">
          -106 callsubr
          210 1651 -104 callgsubr
        </CharString>
        <CharString name="Wdieresis">
          -106 callsubr
          hintmask 00000000
          809 1685 -83 callsubr
        </CharString>
        <CharString name="Wgrave">
          -106 callsubr
          616 1666 -85 callgsubr
        </CharString>
        <CharString name="X">
          132 -14 95 1400 95 hstem
          -19 1636 vstem
          -19 49 rmoveto
          -33 38 -30 45 vhcurveto
          60 52 14 54 49 78 -14 98 hhcurveto
          66 32 34 29 19 -16 21 -21 hvcurveto
          -27 -27 -9 -24 hhcurveto
          -45 -19 12 24 23 28 61 130 160 hvcurveto
          236 271 304 -386 rlineto
          45 -61 13 -44 -23 vvcurveto
          -20 -19 -16 -44 vhcurveto
          -66 10 8 -22 hhcurveto
          -29 -8 -24 -16 -33 35 -30 67 hvcurveto
          95 87 14 88 80 56 -14 64 hhcurveto
          63 30 35 28 20 -14 21 -24 hvcurveto
          -22 -19 -8 callgsubr
          -32 -13 10 44 -33 hvcurveto
          -501 678 424 547 rlineto
          74 61 40 43 30 22 16 -7 19 hhcurveto
          24 14 21 20 32 -38 31 -45 hvcurveto
          -60 -52 -15 -54 -50 -70 15 -94 hhcurveto
          -66 -32 -35 -28 -20 15 -20 23 hvcurveto
          25 28 9 23 hhcurveto
          45 19 -12 -25 hvcurveto
          -1 -23 -6 -63 -130 -161 -220 -269 rcurveline
          -299 413 rlineto
          -46 63 -13 16 23 vvcurveto
          21 19 16 46 vhcurveto
          31 20 -8 26 hhcurveto
          29 8 23 17 32 -35 31 -67 hvcurveto
          -95 -87 -15 -87 -78 -57 15 -65 hhcurveto
          -65 -29 -36 -27 -21 13 -20 25 hvcurveto
          23 17 7 16 hhcurveto
          31 13 -11 -43 32 hvcurveto
          497 -669 -470 -566 rlineto
          -75 -61 -40 -32 -31 -21 -17 7 -19 hhcurveto
          -23 -15 -22 -19 hvcurveto
          endchar
        </CharString>
        <CharString name="Y">
          102 0 98 1380 97 hstem
          659 236 vstem
          -103 callgsubr
          endchar
        </CharString>
        <CharString name="Yacute">
          102 0 98 1380 97 hstem
          659 236 vstem
          -103 callgsubr
          264 1587 -98 callsubr
        </CharString>
        <CharString name="Ycircumflex">
          102 0 98 1380 97 hstem
          659 236 vstem
          -103 callgsubr
          45 1572 -104 callgsubr
        </CharString>
        <CharString name="Ydieresis">
          102 0 98 1380 97 hstemhm
          659 236 vstemhm
          -103 callgsubr
          644 1606 -83 callsubr
        </CharString>
        <CharString name="Ygrave">
          102 0 98 1380 97 hstem
          659 236 vstem
          -103 callgsubr
          451 1587 -85 callgsubr
        </CharString>
        <CharString name="Z">
          -93 callsubr
          endchar
        </CharString>
        <CharString name="Zacute">
          -93 callsubr
          562 1604 -98 callsubr
        </CharString>
        <CharString name="Zcaron">
          -93 callsubr
          653 1589 -95 callsubr
        </CharString>
        <CharString name="Zdotaccent">
          -93 callsubr
          656 1646 -81 callsubr
        </CharString>
        <CharString name="a">
          -67 callgsubr
          6 callgsubr
          512 233 -35 callsubr
          hintmask 1001100110000000
          -61 callsubr
          hintmask 1001011110000000
          -86 callsubr
          hintmask 1001100110000000
          -85 callsubr
          hintmask 0011100110000000
          -36 callsubr
          hintmask 0101100110000000
          -84 callgsubr
          hintmask 1001100110000000
          -87 callsubr
          endchar
        </CharString>
        <CharString name="aacute">
          -67 callgsubr
          562 -20 6 callgsubr
          159 445 -92 -97 callgsubr
          192 879 -100 callsubr
        </CharString>
        <CharString name="abreve">
          -67 callgsubr
          171 -33 callgsubr
          147 236 -140 839 -187 233 -35 callsubr
          hintmask 1001100000010100
          -61 callsubr
          hintmask 1001011000010100
          -86 callsubr
          hintmask 1001100000010100
          -85 callsubr
          hintmask 0011100000010100
          -36 callsubr
          hintmask 0101100000010100
          -84 callgsubr
          hintmask 1001100000010100
          -30 callgsubr
          279 888 -75 callsubr
          hintmask 0000000110101000
          -25 callsubr
          hintmask 0000000101101000
          -75 callgsubr
          -132 232 hhcurveto
          endchar
        </CharString>
        <CharString name="acircumflex">
          -67 callgsubr
          571 -20 6 callgsubr
          -62 701 -127 -97 callgsubr
          -29 884 rmoveto
          -102 callsubr
        </CharString>
        <CharString name="acute">
          -793 1602 -20 hstem
          199 445 vstem
          232 1202 -100 callsubr
        </CharString>
        <CharString name="acute.cap">
          -793 1649 367 hstem
          196 449 vstem
          227 1649 -98 callsubr
        </CharString>
        <CharString name="adieresis">
          -67 callgsubr
          192 310 0 -20 6 callgsubr
          -105 -11 callsubr
          -172 233 -35 callsubr
          hintmask 1001100001001000
          -61 callsubr
          hintmask 1001011001001000
          -86 callsubr
          hintmask 1001100001001000
          -85 callsubr
          hintmask 0011100001001000
          -36 callsubr
          hintmask 0101100001001000
          -84 callgsubr
          hintmask 1001100001001000
          -30 callgsubr
          531 909 rmoveto
          92 61 78 73 hvcurveto
          hintmask 0000000010100000
          -42 callgsubr
          hintmask 0000000100100000
          -15 callsubr
          hintmask 0000000010100000
          -32 callgsubr
          hintmask 0000000010010000
          -43 callsubr
          hintmask 0000000100010000
          -74 44 40 callgsubr
          endchar
        </CharString>
        <CharString name="ae">
          576 -6 callgsubr
          hstemhm
          147 245 501 235 -35 callsubr
          hintmask 1010100110000000
          147 301 rmoveto
          -198 161 -127 284 vhcurveto
          hintmask 1010011110000000
          -41 callgsubr
          hintmask 1011000110000000
          -53 callgsubr
          hintmask 0110100110000000
          -34 callgsubr
          hintmask 1010100110000000
          -56 callsubr
          endchar
        </CharString>
        <CharString name="aeacute">
          575 -6 callgsubr
          562 -20 hstemhm
          175 245 501 235 -225 445 -35 callsubr
          hintmask 1010100011000000
          175 301 rmoveto
          -198 161 -127 284 vhcurveto
          hintmask 1010011011000000
          -41 callgsubr
          hintmask 1011000011000000
          -53 callgsubr
          hintmask 0110100011000000
          -34 callgsubr
          hintmask 1010100011000000
          -56 callsubr
          hintmask 0000000100100000
          544 904 -100 callsubr
        </CharString>
        <CharString name="agrave">
          -67 callgsubr
          562 -20 6 callgsubr
          -24 445 91 -97 callgsubr
          388 879 -87 callgsubr
        </CharString>
        <CharString name="amacron">
          -67 callgsubr
          276 139 6 callgsubr
          -58 692 -122 -97 callgsubr
          -58 993 -25 callgsubr
        </CharString>
        <CharString name="ampersand">
          444 -23 149 -134 79 -55 -21 837 125 510 125 hstemhm
          171 243 -58 221 412 222 hintmask 00000000
          hintmask 10011101
          171 376 rmoveto
          -218 190 -181 316 164 167 63 167 168 vhcurveto
          105 -103 rlineto
          -89 90 31 -20 35 hhcurveto
          hintmask 10011011
          45 32 5 25 31 71 -8 41 hhcurveto
          hintmask 10011101
          67 42 21 34 19 -17 14 -22 hvcurveto
          -18 -14 -9 -19 hhcurveto
          -30 -33 5 28 -27 hvcurveto
          hintmask 00111101
          -103 102 -95 97 -87 83 rrcurveto
          hintmask 01011101
          69 83 71 106 70 127 44 91 41 35 48 1 rrcurveto
          17 16 -6 16 hhcurveto
          21 27 27 46 27 -19 34 -67 hvcurveto
          -51 -44 -15 -46 -62 -59 15 -74 hhcurveto
          -76 -38 -25 -34 -50 23 -22 26 hvcurveto
          16 -1 6 51 hhcurveto
          44 23 -15 -34 -97 -79 -123 -84 -105 hvcurveto
          -165 154 -135 126 -101 108 rrcurveto
          231 100 132 148 190 vvcurveto
          171 -134 137 -265 -305 -151 -173 -184 -126 39 -112 155 -171 vhcurveto
          -276 -123 -103 -129 -198 vvcurveto
          606 548 rmoveto
          -166 195 -34 34 113 vvcurveto
          113 88 88 116 94 114 -55 -200 -64 -50 -133 -162 -91 vhcurveto
          -363 -517 rmoveto
          115 58 139 149 91 vhcurveto
          479 -472 rlineto
          -112 -116 -128 -42 -121 hhcurveto
          -193 -128 95 186 hvcurveto
          endchar
        </CharString>
        <CharString name="aogonek">
          -86 -24 141 -126 96 -70 -21 23 -21 503 126 284 142 -36 -20 63 -20 6 callgsubr
          512 233 -222 166 -35 callsubr
          hintmask 1000110011000000
          -61 callsubr
          hintmask 1000101111000000
          121 125 46 77 77 hvcurveto
          -79 8 27 -26 34 hhcurveto
          18 16 1 1 15 hvcurveto
          -68 -70 -41 -93 -114 vvcurveto
          -135 63 -48 75 7 callsubr
          hintmask 1000110011000000
          -133 34 -52 87 86 vvcurveto
          80 24 65 42 44 vhcurveto
          -3 34 31 -4 31 hhcurveto
          78 22 38 25 16 -16 25 -22 hvcurveto
          -40 0 -8 -17 hhcurveto
          -86 -25 18 249 hvcurveto
          hintmask 0010110011000000
          289 vlineto
          226 -86 184 -399 vhcurveto
          hintmask 0001110010100000
          -104 -138 -36 0 hvcurveto
          -7 -8 6 6 -8 hvcurveto
          31 -53 -20 0 -19 hhcurveto
          -15 -23 -8 -42 -75 -8 -82 -19 -59 hvcurveto
          -36 callsubr
          -16 8 -14 21 vhcurveto
          hintmask 0100110011000000
          20 13 6 58 43 hvcurveto
          120 87 81 16 109 hhcurveto
          171 132 -50 -194 hvcurveto
          -114 vlineto
          50 -95 -111 24 -105 hhcurveto
          hintmask 1000110011000000
          -87 callsubr
          endchar
        </CharString>
        <CharString name="approxequal">
          -73 211 158 93 159 83 158 93 159 -95 -20 hstemhm
          58 1247 hintmask 00000000
          hintmask 11101100
          190 734 rmoveto
          hintmask 11110100
          168 72 73 53 68 hhcurveto
          79 35 -15 -102 141 hvcurveto
          -90 124 85 -2 callsubr
          -74 -53 -60 hhcurveto
          hintmask 11101100
          -74 -44 14 101 -137 hvcurveto
          103 -141 -88 34 21 callgsubr
          132 -557 rmoveto
          167 72 73 53 68 hhcurveto
          79 35 -14 -102 141 hvcurveto
          -91 124 85 -44 97 hhcurveto
          132 127 85 230 82 hvcurveto
          -131 63 rlineto
          -167 -58 -74 -53 -60 hhcurveto
          -74 -44 15 100 -137 hvcurveto
          104 -141 -88 33 21 callgsubr
          endchar
        </CharString>
        <CharString name="aring">
          -67 callgsubr
          165 101 232 105 6 callgsubr
          50 117 226 118 1 233 -35 callsubr
          hintmask 1001100001001000
          -61 callsubr
          hintmask 1001011001001000
          -86 callsubr
          hintmask 1001100001001000
          -85 callsubr
          hintmask 0011100001001000
          -36 callsubr
          hintmask 0101100001001000
          -84 callgsubr
          hintmask 1001100001001000
          -87 callsubr
          hintmask 0000000110110000
          280 882 -57 callgsubr
        </CharString>
        <CharString name="asciicircum">
          -296 1588 -20 hstem
          136 868 vstem
          136 982 rmoveto
          177 hlineto
          251 380 257 -380 rlineto
          183 hlineto
          -403 606 rlineto
          -66 hlineto
          endchar
        </CharString>
        <CharString name="asciitilde">
          0 446 158 93 159 hstem
          95 1247 vstem
          227 476 rmoveto
          168 72 73 53 68 hhcurveto
          78 36 -15 -102 141 hvcurveto
          -90 123 86 -2 callsubr
          -75 -53 -60 hhcurveto
          -73 -44 14 101 -138 hvcurveto
          103 -140 -88 34 -90 hhcurveto
          -149 -139 -148 -167 -62 hvcurveto
          endchar
        </CharString>
        <CharString name="asterisk">
          -413 747 880 -498 241 -230 244 hstemhm
          395 29 callsubr
          hintmask 10010000
          307 757 rmoveto
          63 32 30 146 46 hvcurveto
          15 49 18 44 24 46 25 -47 25 -67 10 -40 rrcurveto
          hintmask 00110000
          -128 32 37 -43 62 hhcurveto
          59 69 46 75 2 hvcurveto
          95 -106 12 -138 147 vhcurveto
          12 91 74 -5 76 hhcurveto
          79 51 45 62 72 -48 62 -65 -47 -38 -25 -56 -72 hvcurveto
          -41 -32 -41 -26 -49 -21 rrcurveto
          114 81 85 108 vvcurveto
          72 -52 38 -67 -66 -53 -43 -67 -77 58 -114 11 -110 vhcurveto
          hintmask 01010000
          22 -86 -92 146 -107 hhcurveto
          -59 -50 -55 -77 -97 94 -15 80 68 61 -1 -10 60 hvcurveto
          -46 -48 -50 -41 -42 -23 rrcurveto
          -52 -33 -65 -39 -71 vvcurveto
          hintmask 10010000
          -68 61 -49 68 vhcurveto
          endchar
        </CharString>
        <CharString name="at">
          888 -526 119 393 121 -95 108 660 105 394 115 hstemhm
          690 270 1051 213 hintmask 00000000
          hintmask 10111110
          164 147 rmoveto
          -472 29 384 -201 397 hhcurveto
          329 223 65 145 67 hvcurveto
          15 31 -12 37 -40 19 -34 19 -35 -14 -12 -24 -5 -11 2 -14 -4 -8 rrcurveto
          -55 -26 -226 -71 -196 hhcurveto
          -428 -187 254 352 -22 hvcurveto
          494 -31 391 586 669 hhcurveto
          349 229 -189 -327 21 hvcurveto
          -430 27 -284 -213 -201 hhcurveto
          -3 -2 2 4 hvcurveto
          1 1 1 2 vvcurveto
          106 636 rlineto
          102 -103 -146 17 -96 hhcurveto
          -400 -239 -317 -302 19 hvcurveto
          -116 7 49 -164 258 hhcurveto
          102 105 55 78 81 hvcurveto
          hintmask 11011110
          -10 1 -9 -9 vvcurveto
          -62 4 29 -19 33 hhcurveto
          hintmask 10111110
          50 31 6 32 27 23 -4 25 hhcurveto
          302 402 378 426 -27 hvcurveto
          377 -23 -305 201 -421 hhcurveto
          -822 -529 -613 -634 40 hvcurveto
          hintmask 11011110
          796 132 rmoveto
          272 -17 187 229 142 hhcurveto
          57 37 -24 -32 29 hvcurveto
          -77 -446 rlineto
          -95 -66 -90 -76 -78 hhcurveto
          -88 -29 68 104 -7 hvcurveto
          endchar
        </CharString>
        <CharString name="atilde">
          -67 callgsubr
          208 169 -60 168 6 callgsubr
          -69 715 -134 233 -35 callsubr
          hintmask 1001100001010000
          -61 callsubr
          hintmask 1001011001010000
          -86 callsubr
          hintmask 1001100001010000
          -85 callsubr
          hintmask 0011100001010000
          -36 callsubr
          hintmask 0101100001010000
          -84 callgsubr
          hintmask 1001100001010000
          -30 callgsubr
          -41 928 -12 callsubr
          hintmask 0000000100100000
          -74 callgsubr
          hintmask 0000000010100000
          -70 callsubr
        </CharString>
        <CharString name="b">
          25 callgsubr
          hstemhm
          195 238 602 250 hintmask 00000000
          hintmask 10111000
          -44 callgsubr
          hintmask 01111000
          -4 callsubr
          hintmask 10111000
          -51 callsubr
          endchar
        </CharString>
        <CharString name="backslash">
          -429 22 callgsubr
          91 826 vstem
          882 -96 rmoveto
          -202 555 -201 576 -200 555 rrcurveto
          115 -44 -32 25 -43 hhcurveto
          -36 -33 -28 -28 -23 10 -43 12 -30 hvcurveto
          643 -1794 rlineto
          -38 14 27 -34 39 hhcurveto
          51 30 36 35 15 -6 29 -29 77 hvcurveto
          endchar
        </CharString>
        <CharString name="bar">
          -577 22 callgsubr
          346 168 vstem
          346 -204 rmoveto
          -48 38 -36 49 40 41 33 48 vhcurveto
          1858 vlineto
          47 -35 32 -48 -47 -38 -31 -46 vhcurveto
          endchar
        </CharString>
        <CharString name="braceleft">
          36 callgsubr
          82 655 vstem
          332 192 rmoveto
          -310 34 132 -157 137 hhcurveto
          54 48 20 32 17 -14 9 -20 hvcurveto
          -22 -19 -8 -17 hhcurveto
          -53 -22 39 172 483 -90 183 -147 55 hvcurveto
          147 54 90 184 483 vvcurveto
          173 22 39 53 vhcurveto
          19 19 -9 20 hhcurveto
          20 14 10 17 30 -48 22 -54 -137 -132 -157 -310 -34 hvcurveto
          -57 -428 -41 -49 -101 -19 rrcurveto
          -41 -10 -10 -15 -15 vvcurveto
          -14 10 -15 41 -11 vhcurveto
          101 -19 41 -50 57 -426 rrcurveto
          endchar
        </CharString>
        <CharString name="braceright">
          36 callgsubr
          72 655 vstem
          477 192 rmoveto
          57 426 41 50 101 19 rrcurveto
          41 11 10 15 14 vvcurveto
          15 -10 15 -41 10 vhcurveto
          -101 19 -41 49 -57 428 rrcurveto
          310 -34 -132 157 -137 hhcurveto
          -54 -48 -22 -30 -17 14 -10 20 hvcurveto
          20 19 9 19 hhcurveto
          53 22 -39 -173 -483 90 -184 147 -54 hvcurveto
          -147 -55 -90 -183 -483 vvcurveto
          -172 -22 -39 -53 vhcurveto
          -17 -19 8 -22 hhcurveto
          -20 -14 -9 -17 -32 48 -20 54 137 132 157 310 34 hvcurveto
          endchar
        </CharString>
        <CharString name="bracketleft">
          37 callgsubr
          204 235 vstem
          204 -226 rmoveto
          -46 12 -16 35 vhcurveto
          369 hlineto
          72 32 39 23 19 -14 26 -25 hvcurveto
          -48 -31 -10 -55 hhcurveto
          -100 -12 11 26 hvcurveto
          1750 vlineto
          26 12 11 100 vhcurveto
          55 31 -10 48 hhcurveto
          25 14 26 20 22 -32 39 -72 hvcurveto
          -361 hlineto
          -40 -15 -20 -41 hvcurveto
          endchar
        </CharString>
        <CharString name="bracketright">
          37 callgsubr
          416 235 vstem
          651 1669 rmoveto
          41 -15 20 -40 vhcurveto
          -361 hlineto
          -72 -32 -39 -22 -20 14 -26 25 hvcurveto
          48 31 10 55 hhcurveto
          100 12 -11 -26 hvcurveto
          -1750 vlineto
          -26 -12 -11 -100 vhcurveto
          -55 -31 10 -48 hhcurveto
          -25 -14 -26 -19 -23 32 -39 72 hvcurveto
          369 hlineto
          35 12 16 46 hvcurveto
          endchar
        </CharString>
        <CharString name="breve">
          -415 1211 -33 callgsubr
          88 839 hintmask 00000000
          hintmask 11011000
          507 1211 -75 callsubr
          hintmask 10111000
          -25 callsubr
          hintmask 11011000
          -75 callgsubr
          -132 232 hhcurveto
          endchar
        </CharString>
        <CharString name="breve.cap">
          -415 1630 97 hstem
          88 839 vstem
          507 1630 -89 callgsubr
        </CharString>
        <CharString name="brokenbar">
          -582 22 callgsubr
          343 168 vstem
          423 874 rmoveto
          52 36 35 39 hvcurveto
          708 vlineto
          39 -36 35 -52 -42 -38 -27 -44 vhcurveto
          -713 vlineto
          -42 41 -30 39 vhcurveto
          -80 -1090 rmoveto
          -45 38 -27 42 52 36 35 39 vhcurveto
          719 vlineto
          39 -36 34 -52 -39 -41 -29 -42 vhcurveto
          endchar
        </CharString>
        <CharString name="bullet">
          -748 424 437 hstem
          122 444 vstem
          344 424 rmoveto
          133 89 117 92 104 -70 124 -148 -135 -91 -108 -116 -94 67 -119 155 hvcurveto
          endchar
        </CharString>
        <CharString name="c">
          -263 -51 callgsubr
          hstem
          100 248 vstem
          -92 callsubr
          endchar
        </CharString>
        <CharString name="cacute">
          -263 -51 callgsubr
          549 -20 hstemhm
          100 248 190 445 hintmask 11010000
          -92 callsubr
          hintmask 00101000
          471 687 -100 callsubr
        </CharString>
        <CharString name="caron">
          -553 1579 -20 hstem
          96 687 vstem
          438 1183 -90 callgsubr
        </CharString>
        <CharString name="caron.cap">
          20 callsubr
          438 1634 -95 callsubr
        </CharString>
        <CharString name="caronvertical">
          -926 1556 -20 hstem
          240 148 vstem
          137 946 -73 callgsubr
        </CharString>
        <CharString name="ccaron">
          -263 -51 callgsubr
          526 -20 hstemhm
          100 248 -33 687 hintmask 11010000
          -92 callsubr
          hintmask 00101000
          557 668 -90 callgsubr
        </CharString>
        <CharString name="ccedilla">
          -263 -526 78 211 80 133 150 -112 -21 908 152 hstemhm
          100 248 346 145 hintmask 00000000
          hintmask 11101110
          514 -7 rmoveto
          -52 -249 rlineto
          -63 callsubr
          -26 callsubr
          hvcurveto
          hintmask 11011110
          10 callsubr
          vhcurveto
          -16 hlineto
          34 135 rlineto
          -1 15 16 -1 16 hhcurveto
          186 247 148 125 17 -22 27 -31 -3 hvcurveto
          -22 -2 -11 -9 -21 -30 rrcurveto
          -91 -64 -102 -32 -96 hhcurveto
          -202 -178 168 280 223 147 104 167 128 117 -15 -120 97 hvcurveto
          -44 35 21 -13 15 hhcurveto
          hintmask 11101110
          17 12 10 20 11 -3 15 -7 19 hvcurveto
          -26 72 -2 52 106 vvcurveto
          30 -11 9 -22 vhcurveto
          -29 -59 -44 -37 -33 -38 44 -151 hhcurveto
          -340 -246 -267 -271 -266 170 -199 244 -57 hvcurveto
          endchar
        </CharString>
        <CharString name="ccircumflex">
          -263 -51 callgsubr
          558 -20 hstemhm
          100 248 -31 701 hintmask 11010000
          -92 callsubr
          hintmask 00101000
          250 692 rmoveto
          -102 callsubr
        </CharString>
        <CharString name="cdotaccent">
          -263 -51 callgsubr
          140 329 hstemhm
          100 248 145 334 hintmask 11010000
          -92 callsubr
          hintmask 00101000
          560 678 -78 callsubr
        </CharString>
        <CharString name="cedilla">
          -767 -526 78 211 80 hstem
          437 145 vstem
          268 46 rmoveto
          -63 -302 rlineto
          -63 callsubr
          3 callsubr
          hvcurveto
          -16 hlineto
          47 186 rlineto
          endchar
        </CharString>
        <CharString name="cent">
          -221 -1 -21 22 -21 939 134 -43 -20 60 -20 hstemhm
          108 248 264 109 hintmask 00000000
          hintmask 01011110
          108 515 rmoveto
          -321 227 -189 285 -26 vhcurveto
          -186 vlineto
          -52 19 -29 38 31 21 16 62 vhcurveto
          188 vlineto
          180 16 216 140 115 vvcurveto
          17 -17 34 -15 -22 -30 -22 -29 -23 vhcurveto
          hintmask 10100110
          -92 -61 -74 -23 -117 hhcurveto
          -13 -12 1 1 -12 hvcurveto
          782 vlineto
          105 -6 65 -4 113 -142 rrcurveto
          -44 35 20 -13 16 hhcurveto
          17 32 10 20 11 -3 15 -7 19 hvcurveto
          -25 72 -2 52 106 vvcurveto
          30 -13 9 -21 vhcurveto
          -27 -63 -44 -34 hhcurveto
          -14 -12 4 7 -20 hvcurveto
          -45 13 -48 15 -69 4 rrcurveto
          160 vlineto
          hintmask 01011110
          53 -16 26 -42 -34 -17 -25 -55 vhcurveto
          hintmask 01100110
          -162 vlineto
          -312 -31 -200 -249 -254 vvcurveto
          512 -356 rmoveto
          -145 52 -119 105 227 vvcurveto
          228 107 109 157 32 vhcurveto
          endchar
        </CharString>
        <CharString name="circumflex">
          -553 1611 -20 hstem
          98 701 vstem
          131 1207 rmoveto
          -102 callsubr
        </CharString>
        <CharString name="circumflex.cap">
          20 callsubr
          128 1634 -104 callgsubr
        </CharString>
        <CharString name="colon">
          -753 -3 -21 704 -21 hstemhm
          171 341 hintmask 10100000
          171 140 rmoveto
          -55 callgsubr
          hintmask 01100000
          683 vmoveto
          -55 callgsubr
          endchar
        </CharString>
        <CharString name="comma">
          -753 -345 622 hstem
          363 151 vstem
          169 -42 callsubr
          endchar
        </CharString>
        <CharString name="commaaccent">
          -950 -504 -21 hstem
          234 175 vstem
          115 -216 -94 callgsubr
        </CharString>
        <CharString name="copyright">
          470 -24 121 213 139 668 117 232 121 hstem
          117 141 222 240 931 139 vstem
          117 781 rmoveto
          -441 372 -364 470 435 396 339 465 483 -387 324 -443 -510 -333 -389 -417 vhcurveto
          141 -4 rmoveto
          388 300 301 395 351 347 -274 -411 -409 -318 -275 -358 -401 -316 304 376 vhcurveto
          222 -10 rmoveto
          -249 182 -208 293 147 129 61 100 80 vhcurveto
          30 38 5 30 11 vvcurveto
          16 -17 27 -13 -18 -31 -15 -25 -19 vhcurveto
          -88 -56 -86 -16 -63 hhcurveto
          -188 -135 122 280 145 112 121 136 138 67 -38 -97 80 hvcurveto
          -36 29 20 -15 15 hhcurveto
          13 12 10 18 10 -3 12 -7 18 hvcurveto
          -22 63 -1 45 93 vvcurveto
          26 -11 13 -20 vhcurveto
          -26 -49 -43 -24 -12 -20 14 -26 hhcurveto
          18 -66 -28 6 -83 hhcurveto
          -272 -192 -212 -255 hvcurveto
          endchar
        </CharString>
        <CharString name="currency">
          14 232 124 571 126 hstem
          290 151 557 149 vstem
          136 196 rmoveto
          109 -109 211 220 rlineto
          -49 72 89 -26 101 hhcurveto
          103 93 29 53 74 hvcurveto
          218 -227 109 109 -231 221 rlineto
          40 62 23 76 87 vvcurveto
          87 -23 77 -37 62 vhcurveto
          228 219 -109 109 -216 -224 rlineto
          52 -71 -90 29 -99 hhcurveto
          -109 -91 -30 -49 -71 hvcurveto
          -214 222 -109 -109 223 -214 rlineto
          -46 -67 -23 -80 -84 vvcurveto
          -91 23 -79 43 -64 vhcurveto
          85 235 rmoveto
          163 110 121 166 163 118 -121 -163 -180 -114 -107 -164 -165 -114 120 167 vhcurveto
          endchar
        </CharString>
        <CharString name="d">
          -95 -23 -21 callgsubr
          34 callgsubr
          hintmask 10010110
          80 517 -46 callgsubr
          hintmask 00110110
          46 33 6 31 hhcurveto
          hintmask 01001110
          -69 callgsubr
          hintmask 10010110
          -65 callsubr
          endchar
        </CharString>
        <CharString name="dagger">
          -581 1031 -4 callgsubr
          1238 155 vlineto
          -28 callsubr
          hlineto
          endchar
        </CharString>
        <CharString name="daggerdbl">
          -581 372 149 510 -4 callgsubr
          579 155 vlineto
          46 31 29 47 48 -33 25 -46 hvcurveto
          -153 510 155 hlineto
          -28 callsubr
          -510 -153 hlineto
          -47 -31 -25 -48 -47 29 -29 47 hvcurveto
          155 hlineto
          endchar
        </CharString>
        <CharString name="dcaron">
          245 -18 -21 callgsubr
          724 -20 hstemhm
          80 242 583 237 305 148 -35 callsubr
          hintmask 1001001100000000
          80 522 -46 callgsubr
          hintmask 0011001100000000
          46 33 6 31 hhcurveto
          hintmask 0100101100000000
          -69 callgsubr
          hintmask 1001001100000000
          -65 callsubr
          hintmask 0000010010000000
          1022 524 -73 callgsubr
        </CharString>
        <CharString name="dcroat">
          -95 -23 -21 callgsubr
          245 93 34 callgsubr
          hintmask 10010111
          80 517 -46 callgsubr
          hintmask 00110111
          46 33 6 31 hhcurveto
          hintmask 01001111
          30 82 -9 42 21 callsubr
          -16 14 -21 hvcurveto
          -10 -24 -7 -23 hhcurveto
          -95 -9 53 223 hvcurveto
          868 81 vlineto
          46 49 6 37 48 -53 2 -43 hvcurveto
          -80 285 hlineto
          119 -8 11 -55 -16 -14 -4 -1 -14 vhcurveto
          -19 -2 rlineto
          -3 -26 -32 -4 -33 -76 -46 12 -60 hhcurveto
          -43 -20 -28 -18 -29 27 -18 30 14 callsubr
          26 -43 -228 vvcurveto
          -35 -343 vlineto
          -59 -37 -15 -29 -33 37 -16 56 hvcurveto
          346 -225 hlineto
          35 -73 -90 21 -27 callgsubr
          hintmask 10010111
          -65 callsubr
          endchar
        </CharString>
        <CharString name="degree">
          -582 1021 116 333 117 hstem
          143 134 304 131 vstem
          428 1021 rmoveto
          167 117 113 170 174 -113 109 -163 -190 -103 -130 -153 -170 115 -113 170 hvcurveto
          2 116 rmoveto
          -96 -57 71 96 94 54 72 97 94 59 -72 -94 -106 -57 -61 -94 hvcurveto
          endchar
        </CharString>
        <CharString name="dieresis">
          -466 1232 6 callsubr
          98 -11 callsubr
          hintmask 00000000
          hintmask 01100000
          734 1232 rmoveto
          92 61 78 73 hvcurveto
          hintmask 10100000
          -42 callgsubr
          hintmask 01100000
          -15 callsubr
          hintmask 01010000
          -32 callgsubr
          hintmask 10010000
          -43 callsubr
          hintmask 01010000
          -74 44 40 callgsubr
          endchar
        </CharString>
        <CharString name="dieresis.cap">
          -366 1668 304 hstemhm
          97 298 276 298 hintmask 00000000
          hintmask 11100000
          820 1668 -83 callsubr
        </CharString>
        <CharString name="divide">
          -152 120 310 150 149 150 310 hstem
          491 304 cntrmask 11100000
          643 879 rmoveto
          92 60 79 72 82 -48 77 -102 -92 -62 -67 -89 -73 44 -81 108 hvcurveto
          -503 -299 rmoveto
          9 callsubr
          351 -456 rmoveto
          -73 44 -80 108 92 60 78 72 83 -48 77 -102 -92 -62 -68 -89 vhcurveto
          endchar
        </CharString>
        <CharString name="dollar">
          10 -22 129 1477 -20 22 -20 44 -20 hstemhm
          167 212 266 108 322 220 hintmask 00000000
          hintmask 10011110
          175 130 rmoveto
          175 -92 144 -48 151 -11 rrcurveto
          -186 vlineto
          hintmask 11001110
          -52 19 -29 38 31 20 16 62 vhcurveto
          188 vlineto
          339 13 203 173 267 vvcurveto
          230 -145 168 -397 98 vhcurveto
          531 vlineto
          181 -16 133 -85 79 -162 rrcurveto
          -38 19 11 -18 18 hhcurveto
          16 14 12 35 32 -8 37 -9 35 hvcurveto
          -26 108 -16 95 -4 62 rrcurveto
          43 -2 -8 12 -20 hhcurveto
          -11 -18 -15 -21 -16 hvcurveto
          -28 -37 -11 -6 -12 1 rrcurveto
          -4 -107 48 6 -171 hvcurveto
          186 vlineto
          52 -15 27 -41 -35 -17 -26 -54 vhcurveto
          -187 vlineto
          -329 -26 -149 -205 -198 vvcurveto
          hintmask 10011110
          -198 125 -184 353 -89 vhcurveto
          -574 vlineto
          -241 29 -122 158 -28 244 rrcurveto
          hintmask 10101110
          45 -5 -15 15 -18 hhcurveto
          -24 -17 -33 -89 hvcurveto
          470 480 rmoveto
          -218 74 -48 105 113 vvcurveto
          117 84 71 182 18 vhcurveto
          108 -1350 rmoveto
          551 vlineto
          241 -67 81 -108 -130 vvcurveto
          -148 -69 -89 -253 -9 vhcurveto
          endchar
        </CharString>
        <CharString name="dotaccent">
          -850 1193 329 hstem
          125 334 vstem
          292 1193 -78 callsubr
        </CharString>
        <CharString name="dotaccent.cap">
          -887 1712 -21 hstem
          107 334 vstem
          274 1691 -81 callsubr
        </CharString>
        <CharString name="dotlessi">
          -23 callsubr
          hstem
          310 233 vstem
          -99 callgsubr
          endchar
        </CharString>
        <CharString name="dotlessj">
          -664 18 callgsubr
          hstem
          349 238 vstem
          -47 -194 -82 callsubr
          endchar
        </CharString>
        <CharString name="e">
          -217 -51 callgsubr
          hstem
          100 238 555 252 vstem
          -105 callsubr
          endchar
        </CharString>
        <CharString name="eacute">
          -217 -51 callgsubr
          549 -20 33 callgsubr
          200 445 -90 252 hintmask 11010100
          -105 callsubr
          hintmask 00101000
          232 654 -100 callsubr
        </CharString>
        <CharString name="ebreve">
          -217 -51 callgsubr
          158 -33 callgsubr
          100 238 -99 839 -185 252 hintmask 1100001010000000
          -105 callsubr
          -35 callsubr
          319 663 -75 callsubr
          hintmask 0011010100000000
          -25 callsubr
          hintmask 0010110100000000
          -75 callgsubr
          -132 232 hhcurveto
          endchar
        </CharString>
        <CharString name="ecaron">
          -217 -51 callgsubr
          526 -20 33 callgsubr
          -23 687 -109 252 hintmask 11010100
          -105 callsubr
          hintmask 00101000
          318 635 -90 callgsubr
        </CharString>
        <CharString name="ecircumflex">
          -217 -51 callgsubr
          558 -20 33 callgsubr
          -21 701 -125 252 hintmask 11010100
          -105 callsubr
          hintmask 00101000
          11 659 rmoveto
          -102 callsubr
        </CharString>
        <CharString name="edieresis">
          -217 -51 callgsubr
          179 6 callsubr
          100 238 -64 -11 callsubr
          -170 252 hintmask 11001001
          -105 callsubr
          hintmask 00000000
          571 684 -46 callsubr
        </CharString>
        <CharString name="edotaccent">
          -217 -51 callgsubr
          140 329 33 callgsubr
          155 334 66 252 hintmask 11010100
          -105 callsubr
          hintmask 00101000
          321 645 -78 callsubr
        </CharString>
        <CharString name="egrave">
          -217 -51 callgsubr
          549 -20 33 callgsubr
          17 445 93 252 hintmask 11010100
          -105 callsubr
          hintmask 00101000
          428 654 -87 callgsubr
        </CharString>
        <CharString name="eight">
          -71 -24 151 1318 146 hstemhm
          70 218 -129 233 615 209 -162 246 hintmask 00000000
          hintmask 11011000
          70 423 rmoveto
          -216 170 -231 451 373 236 220 245 vhcurveto
          hintmask 11100100
          140 -96 145 -233 120 vhcurveto
          141 72 104 144 160 vvcurveto
          191 -197 178 -330 -340 -190 -203 -182 vhcurveto
          hintmask 11011000
          -132 82 -127 168 -110 vhcurveto
          -184 -58 -155 -160 -196 vvcurveto
          729 497 rmoveto
          hintmask 11100100
          -315 119 -92 150 78 vvcurveto
          114 99 64 176 219 121 -87 -171 -95 -43 -126 -113 -66 vhcurveto
          hintmask 11011000
          -17 6 -18 7 -17 7 rrcurveto
          -511 -479 rmoveto
          174 107 111 139 43 vhcurveto
          22 -11 22 -10 24 -11 rrcurveto
          221 -90 231 -115 -175 vvcurveto
          -164 -125 -66 -184 -267 -190 122 192 vhcurveto
          endchar
        </CharString>
        <CharString name="ellipsis">
          615 -24 329 hstemhm
          173 334 350 334 350 334 cntrmask 01110000
          hintmask 00000000
          hintmask 11110000
          1541 137 rmoveto
          -44 callsubr
          -684 hmoveto
          -44 callsubr
          -684 hmoveto
          -44 callsubr
          endchar
        </CharString>
        <CharString name="emacron">
          -217 -51 callgsubr
          263 139 33 callgsubr
          -17 692 -120 252 hintmask 11010100
          -105 callsubr
          hintmask 00101000
          -18 768 -25 callgsubr
        </CharString>
        <CharString name="emdash">
          264 549 168 hstem
          -17 1735 vstem
          60 549 rmoveto
          1580 hlineto
          47 31 37 47 48 -33 36 -47 hvcurveto
          -1575 hlineto
          -47 -33 -36 -48 -47 31 -37 46 hvcurveto
          endchar
        </CharString>
        <CharString name="endash">
          -78 549 168 hstem
          -15 1389 vstem
          61 549 rmoveto
          1237 hlineto
          46 30 37 47 48 -32 36 -46 hvcurveto
          -1233 hlineto
          -46 -32 -36 -48 -47 30 -37 46 hvcurveto
          endchar
        </CharString>
        <CharString name="eng">
          86 -516 97 404 76 862 130 -113 83 hstemhm
          300 238 501 239 hintmask 00000000
          hintmask 11011100
          107 36 rmoveto
          hintmask 11101100
          -23 17 -28 84 vhcurveto
          59 45 15 104 hhcurveto
          41 60 -5 -3 32 hvcurveto
          hintmask 11011100
          -1 hlineto
          24 -3 rlineto
          -2 16 16 -2 28 hhcurveto
          85 20 24 27 21 -15 11 -23 hvcurveto
          -18 -17 -8 callgsubr
          -78 -34 48 233 hvcurveto
          406 vlineto
          91 74 105 84 118 hhcurveto
          170 36 -155 -120 hvcurveto
          -2 -564 rlineto
          -425 -76 -78 -97 -60 -56 42 117 -54 vhcurveto
          27 -13 -22 19 -19 hhcurveto
          -15 -12 -10 -22 hvcurveto
          -242 vlineto
          -17 71 73 -11 59 hhcurveto
          266 190 153 447 2 hvcurveto
          2 601 rlineto
          164 -61 204 -292 -165 -117 -71 -112 -105 vhcurveto
          26 vlineto
          119 -33 9 -47 vhcurveto
          -60 -44 -12 -48 -71 -38 12 -37 hhcurveto
          -53 -13 -23 -19 -53 123 24 40 -55 hvcurveto
          29 -38 14 -70 -139 vvcurveto
          -309 vlineto
          -202 -29 -79 -76 vhcurveto
          -13 -20 7 -16 hhcurveto
          -22 -17 -11 -21 hvcurveto
          endchar
        </CharString>
        <CharString name="eogonek">
          -217 -51 callgsubr
          33 callgsubr
          365 165 25 252 hintmask 00000000
          hintmask 11111000
          100 515 rmoveto
          -338 259 -201 316 39 38 4 6 37 vhcurveto
          hintmask 11110000
          -53 -76 -33 -92 -99 vvcurveto
          -134 62 -49 76 1 vhcurveto
          220 2 rlineto
          19 14 12 15 13 -8 15 -32 8 hvcurveto
          -133 34 -53 86 87 vvcurveto
          109 47 78 47 51 vhcurveto
          49 29 43 37 34 45 rrcurveto
          34 45 5 33 13 vvcurveto
          17 -24 34 -18 -21 -22 -12 -29 -20 vhcurveto
          -82 -57 -119 -51 -99 hhcurveto
          -171 -175 87 209 -48 hvcurveto
          235 59 223 45 284 105 rrcurveto
          hintmask 11111000
          45 17 5 33 26 vvcurveto
          25 -108 321 -368 -339 -230 -259 -279 vhcurveto
          239 33 rmoveto
          -1 12 0 11 12 vvcurveto
          264 229 54 95 156 75 -106 -73 -10 -3 -9 -17 -6 vhcurveto
          -144 -50 -196 -51 -194 -48 rrcurveto
          endchar
        </CharString>
        <CharString name="equal">
          2 callgsubr
          724 rmoveto
          9 callsubr
          -482 vmoveto
          9 callsubr
          endchar
        </CharString>
        <CharString name="eth">
          -82 -20 125 773 124 557 -20 hstem
          120 243 654 247 vstem
          120 487 rmoveto
          -313 230 -194 335 317 262 262 435 250 -89 244 -172 193 vhcurveto
          226 72 rlineto
          -1 hlineto
          67 22 19 23 27 vvcurveto
          27 -22 24 -31 -26 -32 -10 -14 -45 vhcurveto
          -247 -78 -118 104 -148 83 -176 54 rlinecurve
          17 -54 -53 15 -54 hhcurveto
          -46 -18 -14 -25 -25 17 -15 48 -16 hvcurveto
          172 -61 136 -80 104 -99 -256 -81 rcurveline
          -45 -15 -17 -18 -29 vvcurveto
          -30 20 -24 31 21 33 10 10 33 vhcurveto
          266 84 83 -109 57 -127 32 -149 rlinecurve
          51 -88 -107 34 -119 hhcurveto
          -316 -229 -220 -295 hvcurveto
          243 51 rmoveto
          203 108 137 209 197 140 -133 -222 -291 -116 -127 -181 vhcurveto
          -199 1 -158 178 254 vvcurveto
          endchar
        </CharString>
        <CharString name="exclam">
          -753 -3 -21 1611 -20 hstem
          196 295 vstem
          342 471 rmoveto
          31 13 51 85 9 hvcurveto
          28 285 59 464 19 95 rrcurveto
          8 44 5 33 19 vvcurveto
          24 -11 16 -31 vhcurveto
          -38 -35 -8 -56 -56 -41 8 -34 hhcurveto
          -30 -12 -16 -24 -19 5 -33 10 -51 hvcurveto
          22 -120 54 -445 28 -272 rrcurveto
          -85 8 12 -51 33 hhcurveto
          -146 -354 rmoveto
          -62 45 -79 102 79 69 57 81 70 -48 81 -97 -90 -60 -70 -78 vhcurveto
          endchar
        </CharString>
        <CharString name="exclamdown">
          -753 -525 20 1570 21 hstem
          196 295 vstem
          342 591 rmoveto
          -33 -12 -51 -85 -8 hvcurveto
          -28 -272 -54 -445 -22 -120 rrcurveto
          -10 -51 -5 -33 -19 vvcurveto
          -24 12 -16 30 vhcurveto
          34 41 8 56 56 35 -8 38 hhcurveto
          31 11 16 24 19 -5 33 -8 44 hvcurveto
          -19 95 -59 464 -28 285 rrcurveto
          85 -9 -13 51 -31 hhcurveto
          -146 354 rmoveto
          -78 60 -70 90 97 48 81 70 81 -69 57 -79 -102 -45 -79 -62 vhcurveto
          endchar
        </CharString>
        <CharString name="f">
          -583 -11 callgsubr
          hstem
          286 236 vstem
          93 46 rmoveto
          -103 callsubr
          endchar
        </CharString>
        <CharString name="ff">
          271 -11 callgsubr
          hstemhm
          286 236 618 236 hintmask 11110000
          93 46 rmoveto
          -103 callsubr
          hintmask 11101000
          854 hmoveto
          -103 callsubr
          endchar
        </CharString>
        <CharString name="fi">
          224 -15 97 820 151 -28 -20 538 -20 115 119 hstemhm
          286 236 585 305 hintmask 11001100
          93 46 rmoveto
          -103 callsubr
          hintmask 00000000
          1166 1187 -55 callsubr
          hintmask 10110010
          -288 -1187 rmoveto
          -8 callsubr
          85 vhcurveto
          57 45 15 106 76 69 -15 70 -79 callgsubr
          endchar
        </CharString>
        <CharString name="five">
          -73 -24 139 786 152 309 199 hstem
          228 104 661 233 vstem
          142 113 rmoveto
          -94 136 192 -43 138 hhcurveto
          291 327 182 356 299 -211 240 -363 -129 -106 -23 -41 -85 hvcurveto
          373 669 vlineto
          11 97 71 152 40 vvcurveto
          18 -12 9 -14 -14 -9 -8 -23 -25 vhcurveto
          -69 -73 -95 -17 -253 hhcurveto
          -313 hlineto
          -27 -16 -18 -23 -4 hvcurveto
          -686 vlineto
          -31 13 -16 20 14 18 17 19 22 vhcurveto
          64 70 120 14 86 hhcurveto
          235 167 -178 -265 -286 -191 -57 -140 -214 -161 108 183 -71 hvcurveto
          40 -17 -11 18 -17 hhcurveto
          -17 -12 -14 -34 hvcurveto
          endchar
        </CharString>
        <CharString name="fl">
          204 -11 callgsubr
          hstemhm
          286 236 632 237 hintmask 11110000
          93 46 rmoveto
          -103 callsubr
          hintmask 10001000
          871 hmoveto
          -88 callgsubr
          endchar
        </CharString>
        <CharString name="florin">
          -258 -260 99 1100 93 -93 99 -99 100 620 98 -6 -21 hstemhm
          16 1173 hintmask 00000000
          hintmask 10010110
          41 56 rmoveto
          -25 -290 rlineto
          -17 69 70 -9 64 hhcurveto
          241 188 168 449 38 hvcurveto
          51 585 rlineto
          -1 51 39 -2 43 hhcurveto
          86 38 19 33 27 -25 20 -72 -24 -57 -1 -2 -70 hvcurveto
          8 92 8 90 7 89 rrcurveto
          228 23 76 125 81 hhcurveto
          hintmask 10101010
          51 62 -63 -148 36 hvcurveto
          -37 9 9 -7 17 hhcurveto
          18 12 9 27 2 hvcurveto
          24 290 rlineto
          17 -71 -69 10 -65 hhcurveto
          -240 -186 -168 -449 -40 hvcurveto
          -10 -108 rlineto
          hintmask 10010110
          -60 2 -50 6 -51 -1 rrcurveto
          hintmask 11001010
          -53 -44 -12 -36 -27 17 -25 87 hvcurveto
          41 -1 55 3 51 2 rrcurveto
          hintmask 10010110
          -66 -752 rlineto
          -229 -24 -78 -123 -79 hhcurveto
          -48 -64 60 150 -35 hvcurveto
          37 -10 -8 7 -19 hhcurveto
          -17 -10 -9 -28 -2 hvcurveto
          endchar
        </CharString>
        <CharString name="four">
          -67 -15 97 384 141 988 -20 hstem
          722 235 vstem
          477 46 rmoveto
          -23 32 -38 72 vhcurveto
          115 56 15 87 84 25 callsubr
          -25 hvcurveto
          -27 -7 -7 -30 hhcurveto
          -92 -20 80 167 hvcurveto
          137 vlineto
          255 15 -73 22 hhcurveto
          25 22 139 82 53 hvcurveto
          16 23 3 8 10 vvcurveto
          16 -13 8 -13 -11 -8 -4 -12 -19 vhcurveto
          -33 -52 -54 -23 -103 hhcurveto
          -138 921 hlineto
          50 -16 17 -19 -24 -34 -42 -45 -39 vhcurveto
          1 vlineto
          -743 -907 rlineto
          -37 -44 -15 -28 -21 vvcurveto
          -20 19 -23 72 vhcurveto
          601 -137 hlineto
          -167 -18 -80 -94 vhcurveto
          -41 -19 10 -35 hhcurveto
          -24 -14 -27 -19 hvcurveto
          -229 570 rmoveto
          8 7 16 20 25 vhcurveto
          447 547 rlineto
          -605 -434 vlineto
          -31 -9 4 5 hvcurveto
          endchar
        </CharString>
        <CharString name="fraction">
          432 -3 -21 1611 -20 hstem
          291 1287 vstem
          291 34 rmoveto
          -35 23 -23 38 30 30 21 50 40 vhcurveto
          356 455 367 476 356 455 rrcurveto
          35 46 12 30 31 callgsubr
          -34 -38 -29 -25 -67 -49 -6 callsubr
          -16 -32 -27 vvcurveto
          endchar
        </CharString>
        <CharString name="g">
          -50 callgsubr
          hstemhm
          113 220 -207 235 -162 201 505 238 -109 186 -35 callsubr
          hintmask 1111001010000000
          -40 callgsubr
          hintmask 1111000110000000
          -47 callgsubr
          hintmask 1111010001000000
          -64 callgsubr
          hintmask 1110100110000000
          -72 callgsubr
          hintmask 1111001010000000
          -68 callsubr
          hintmask 1111010001000000
          -62 callgsubr
          endchar
        </CharString>
        <CharString name="gbreve">
          -50 callgsubr
          215 97 252 -20 24 -20 48 15 callsubr
          -194 839 -140 238 -109 186 -35 callsubr
          hintmask 1111000000100100
          -40 callgsubr
          hintmask 1111000000010100
          -47 callgsubr
          hintmask 1111000001000010
          -64 callgsubr
          hintmask 1110100000010100
          -72 callgsubr
          hintmask 1111000000100100
          -68 callsubr
          hintmask 1111000001000010
          -62 callgsubr
          -35 callsubr
          292 1434 -75 callsubr
          hintmask 0000011010001000
          -25 callsubr
          hintmask 0000010110001000
          -75 callgsubr
          -132 232 hhcurveto
          endchar
        </CharString>
        <CharString name="gcircumflex">
          -50 callgsubr
          615 15 callsubr
          -116 701 -80 -78 callgsubr
          -16 1430 rmoveto
          -102 callsubr
        </CharString>
        <CharString name="gcommaaccent">
          -50 callgsubr
          617 15 callsubr
          84 175 246 238 -109 186 hintmask 0000010001000000
          639 1179 rmoveto
          80 59 56 69 hvcurveto
          103 -119 -25 59 vvcurveto
          28 14 21 44 23 vhcurveto
          31 17 17 19 19 vvcurveto
          23 -16 22 -30 -107 -128 -83 -162 -129 59 -60 96 vhcurveto
          -35 callsubr
          -440 -1052 rmoveto
          -61 43 -58 90 -41 vhcurveto
          -158 -51 -61 -89 -84 vvcurveto
          hintmask 1111000100100000
          -47 callgsubr
          hintmask 1111000010100000
          -64 callgsubr
          hintmask 1111001000010000
          -72 callgsubr
          hintmask 1110100010100000
          -68 callsubr
          hintmask 1111000100100000
          -62 callgsubr
          endchar
        </CharString>
        <CharString name="gdotaccent">
          -50 callgsubr
          197 329 -22 callgsubr
          60 334 111 -78 callgsubr
          294 1416 -78 callsubr
        </CharString>
        <CharString name="germandbls">
          -9 -24 122 -113 97 1532 116 hstemhm
          220 237 413 243 -31 248 hintmask 00000000
          hintmask 01110100
          27 18 callsubr
          85 vhcurveto
          hintmask 01111000
          58 44 15 106 53 53 -15 58 hhcurveto
          87 18 34 27 21 -13 22 -24 hvcurveto
          hintmask 10110100
          -19 -16 -7 -15 hhcurveto
          -49 -12 5 255 hvcurveto
          962 vlineto
          236 87 74 119 132 75 -92 -223 -232 -112 -75 -110 -28 vhcurveto
          -37 -9 -19 -18 -28 vvcurveto
          -32 40 -15 63 -7 vhcurveto
          hintmask 01111000
          230 -34 157 -130 -301 vvcurveto
          -190 -59 -102 -117 -59 -62 20 71 -32 vhcurveto
          20 -9 -23 12 -16 hhcurveto
          -20 -23 -15 -24 -102 108 -104 143 272 145 179 294 247 -208 216 -276 47 hvcurveto
          145 66 122 143 163 vvcurveto
          229 -163 170 -269 -282 -179 -166 -405 vhcurveto
          -817 vlineto
          -202 -3 -27 -58 -76 -14 -18 7 -16 hhcurveto
          -23 -16 -22 -21 hvcurveto
          endchar
        </CharString>
        <CharString name="grave">
          -793 1602 -20 hstem
          16 445 vstem
          428 1202 -87 callgsubr
        </CharString>
        <CharString name="grave.cap">
          -793 1649 367 hstem
          -4 449 vstem
          414 1649 -85 callgsubr
        </CharString>
        <CharString name="greater">
          16 callgsubr
          88 rmoveto
          706 433 rlineto
          67 vlineto
          -706 428 rlineto
          -177 vlineto
          463 -281 -463 -288 rlineto
          endchar
        </CharString>
        <CharString name="greaterequal">
          26 callgsubr
          181 323 rmoveto
          707 434 rlineto
          66 vlineto
          -707 429 rlineto
          -177 vlineto
          464 -282 -464 -287 rlineto
          -44 -506 rmoveto
          746 hlineto
          -3 149 rlineto
          -741 hlineto
          endchar
        </CharString>
        <CharString name="guillemotleft">
          -73 85 896 hstemhm
          78 547 30 547 hintmask 11000000
          110 501 rmoveto
          -66 callsubr
          hintmask 10100000
          577 hmoveto
          -66 callsubr
          endchar
        </CharString>
        <CharString name="guillemotright">
          -73 85 896 hstemhm
          189 547 30 547 hintmask 11000000
          704 501 rmoveto
          -63 callgsubr
          0 callsubr
          577 hmoveto
          -63 callgsubr
          hintmask 10100000
          0 callsubr
          endchar
        </CharString>
        <CharString name="guilsinglleft">
          -745 85 896 hstem
          78 547 vstem
          110 501 rmoveto
          -66 callsubr
          endchar
        </CharString>
        <CharString name="guilsinglright">
          -745 85 896 hstem
          81 547 vstem
          596 501 rmoveto
          -63 callgsubr
          0 callsubr
          endchar
        </CharString>
        <CharString name="h">
          97 3 callgsubr
          -66 callgsubr
          726 vlineto
          119 -7 11 -56 -16 -14 -3 -2 -14 vhcurveto
          -18 -2 rlineto
          -3 -27 -32 -4 -32 -34 callsubr
          -1009 vlineto
          -201 -31 -59 5 callsubr
          -18 hhcurveto
          -22 -16 -22 -21 hvcurveto
          endchar
        </CharString>
        <CharString name="hbar">
          97 3 callgsubr
          136 126 -66 callgsubr
          315 355 vlineto
          47 51 17 43 53 -55 13 -44 hvcurveto
          -354 285 hlineto
          119 -7 11 -56 -16 -14 -3 -2 -14 vhcurveto
          -18 -2 rlineto
          -3 -27 -32 -4 -32 -34 callsubr
          -36 -112 vlineto
          -62 -37 -27 -32 -39 37 -28 59 hvcurveto
          115 -847 hlineto
          -201 -31 -59 5 callsubr
          -18 hhcurveto
          -22 -16 -22 -21 hvcurveto
          endchar
        </CharString>
        <CharString name="hcircumflex">
          97 -15 97 -82 89 -68 -21 882 171 691 -21 hstemhm
          312 237 122 78 304 236 hintmask 10011111
          1 callsubr
          85 vhcurveto
          57 44 15 107 hhcurveto
          hintmask 00111111
          77 68 -15 71 hhcurveto
          85 20 34 27 hvcurveto
          hintmask 10011111
          19 callsubr
          vhcurveto
          -19 -17 -8 callgsubr
          hintmask 01011111
          -77 -35 26 234 hvcurveto
          hintmask 10011111
          369 vlineto
          93 73 107 78 118 hhcurveto
          169 37 -134 -121 hvcurveto
          -285 vlineto
          -205 -20 -55 -79 -8 -11 -37 callsubr
          -24 -15 -22 -21 hvcurveto
          hintmask 01011111
          -8 callsubr
          90 vhcurveto
          23 callsubr
          hhcurveto
          hintmask 10011111
          81 46 -15 72 hhcurveto
          78 19 38 23 hvcurveto
          hintmask 00111111
          39 callgsubr
          vhcurveto
          -18 -20 -7 -15 hhcurveto
          hintmask 10011111
          -64 -33 36 224 hvcurveto
          343 vlineto
          hintmask 01011111
          164 -59 204 -293 vhcurveto
          hintmask 10011111
          -166 -117 -67 -112 -105 hvcurveto
          726 vlineto
          80 -4 31 -19 12 vhcurveto
          145 88 258 -155 rlineto
          -15 23 24 -7 10 hhcurveto
          23 7 17 13 hvcurveto
          -1 9 -4 19 -12 13 -217 236 rcurveline
          62 -55 -29 17 -27 hhcurveto
          -30 -21 -13 -66 -56 hvcurveto
          -207 -225 rlineto
          -24 hlineto
          -34 callsubr
          -1009 vlineto
          -201 -31 -59 5 callsubr
          -18 hhcurveto
          -22 -16 -22 -21 hvcurveto
          endchar
        </CharString>
        <CharString name="hungarumlaut">
          -149 1556 -20 hstem
          296 889 vstem
          787 1178 -71 callgsubr
        </CharString>
        <CharString name="hungarumlaut.cap">
          -887 1650 367 hstem
          -9 889 vstem
          482 1650 -72 callsubr
        </CharString>
        <CharString name="hyphen">
          -562 559 148 hstem
          132 611 vstem
          208 559 rmoveto
          458 hlineto
          46 31 27 47 48 -33 26 -46 hvcurveto
          -454 hlineto
          -46 -32 -26 -48 -47 30 -27 46 hvcurveto
          endchar
        </CharString>
        <CharString name="i">
          -630 -15 8 callgsubr
          hintmask 00000000
          hintmask 11110000
          -37 callgsubr
          hintmask 11101000
          -288 -1187 rmoveto
          -8 callsubr
          85 vhcurveto
          57 45 15 106 76 69 -15 70 -79 callgsubr
          endchar
        </CharString>
        <CharString name="iacute">
          -23 callsubr
          613 -20 hstemhm
          280 445 -415 233 hintmask 11001000
          -99 callgsubr
          hintmask 00110000
          192 1142 -100 callsubr
        </CharString>
        <CharString name="ibreve">
          -23 callsubr
          222 -33 callgsubr
          -19 839 -510 233 hintmask 11000001
          -99 callgsubr
          hintmask 00000000
          279 1151 -75 callsubr
          hintmask 00110110
          -25 callsubr
          hintmask 00101110
          -75 callgsubr
          -132 232 hhcurveto
          endchar
        </CharString>
        <CharString name="icircumflex">
          -23 callsubr
          622 -20 hstemhm
          59 701 -450 233 hintmask 11001000
          -99 callgsubr
          hintmask 00110000
          -29 1147 rmoveto
          -102 callsubr
        </CharString>
        <CharString name="idieresis">
          -23 callsubr
          243 6 callsubr
          16 304 -10 233 -42 304 hintmask 11000100
          -99 callgsubr
          hintmask 00000000
          531 1172 rmoveto
          92 61 78 73 hvcurveto
          hintmask 00011000
          -42 callgsubr
          hintmask 00101000
          -15 callsubr
          hintmask 00011000
          -32 callgsubr
          hintmask 00010010
          -43 callsubr
          hintmask 00100010
          -74 44 40 callgsubr
          endchar
        </CharString>
        <CharString name="igrave">
          -23 callsubr
          613 -20 hstemhm
          97 445 -232 233 hintmask 11001000
          -99 callgsubr
          hintmask 00110000
          388 1142 -87 callgsubr
        </CharString>
        <CharString name="ij">
          143 -516 128 373 8 callgsubr
          609 29 callsubr
          hintmask 01111000
          -37 callgsubr
          hintmask 01110100
          -288 -1187 rmoveto
          -8 callsubr
          85 vhcurveto
          57 45 15 106 76 69 -15 70 -79 callgsubr
          hintmask 10110010
          1139 1187 -55 callsubr
          -496 -1427 -82 callsubr
          endchar
        </CharString>
        <CharString name="imacron">
          -23 callsubr
          327 139 hstemhm
          63 692 -445 233 hintmask 11001000
          -99 callgsubr
          hintmask 00110000
          -58 1256 -25 callgsubr
        </CharString>
        <CharString name="infinity">
          436 222 148 -148 164 474 174 -159 159 hstemhm
          138 167 1251 178 hintmask 00000000
          hintmask 01011100
          543 222 rmoveto
          154 107 154 131 100 hvcurveto
          -131 108 128 -154 174 hhcurveto
          213 207 196 231 186 -129 199 -266 -154 -121 -152 -133 -106 hvcurveto
          hintmask 10011100
          131 -108 -127 154 -175 hhcurveto
          -213 -197 -196 -230 hvcurveto
          hintmask 01011100
          -187 141 -199 264 vhcurveto
          hintmask 10101100
          477 440 rmoveto
          107 84 106 106 107 hhcurveto
          137 102 -130 -134 -123 -58 -102 -133 -130 -121 146 121 -88 hvcurveto
          hintmask 01011100
          -461 -283 rmoveto
          -137 -123 137 139 118 80 96 131 119 102 -119 -149 105 hvcurveto
          -112 -79 -91 -110 -107 hhcurveto
          endchar
        </CharString>
        <CharString name="integral">
          -72 -487 141 1955 131 hstemhm
          490 228 -61 227 hintmask 00000000
          hintmask 11010000
          218 -186 rmoveto
          -44 -41 -34 -49 -15 7 -25 11 -17 hvcurveto
          hintmask 11100000
          -120 75 138 -41 68 hhcurveto
          268 184 250 285 hvcurveto
          411 -166 409 410 vvcurveto
          228 44 103 158 vhcurveto
          134 24 -146 77 hhcurveto
          37 40 25 46 23 -9 27 -22 32 hvcurveto
          hintmask 11010000
          101 -73 -106 23 -70 hhcurveto
          -267 -195 -241 -283 hvcurveto
          -411 167 -409 -410 vvcurveto
          -229 -11 -103 -182 vhcurveto
          -144 -18 160 -84 hhcurveto
          endchar
        </CharString>
        <CharString name="iogonek">
          -630 -15 97 -67 -21 1031 -20 538 -20 hstemhm
          253 465 -444 166 -130 237 hintmask 00000000
          hintmask 10110010
          -37 callgsubr
          -288 -1187 rmoveto
          hintmask 10110100
          -8 callsubr
          85 53 42 13 2 91 vhcurveto
          hintmask 10111000
          -76 -71 -54 -92 4 callsubr
          221 2 rlineto
          hintmask 01110100
          20 13 13 15 14 -7 13 -33 9 hvcurveto
          hintmask 10110010
          -175 33 -63 88 86 vvcurveto
          71 36 63 53 52 vhcurveto
          -4 38 37 -5 37 -79 callgsubr
          endchar
        </CharString>
        <CharString name="itilde">
          -23 callsubr
          259 169 -60 168 hstemhm
          52 715 -457 233 hintmask 11000100
          -99 callgsubr
          hintmask 00000000
          -41 1191 -12 callsubr
          hintmask 00101000
          -74 callgsubr
          hintmask 00011000
          -70 callsubr
        </CharString>
        <CharString name="j">
          -664 18 callgsubr
          538 -20 hstem
          349 238 vstem
          449 -30 callsubr
          -496 -1427 -82 callsubr
          endchar
        </CharString>
        <CharString name="jcircumflex">
          -682 18 callgsubr
          606 -20 hstemhm
          70 701 -422 238 hintmask 11001000
          -47 -194 -82 callsubr
          hintmask 00110000
          150 1401 rmoveto
          -102 callsubr
        </CharString>
        <CharString name="k">
          -12 -15 97 849 98 hstem
          312 237 vstem
          -77 callsubr
          endchar
        </CharString>
        <CharString name="kcommaaccent">
          -12 -504 -21 510 97 849 98 hstemhm
          312 237 135 175 hintmask 01110000
          -77 callsubr
          hintmask 10001000
          446 -262 -94 callgsubr
        </CharString>
        <CharString name="kgreenlandic">
          -10 0 75 868 76 hstem
          312 232 vstem
          123 50 rmoveto
          -22 16 -28 88 vhcurveto
          43 82 15 85 8 callsubr
          -22 -7 -12 hhcurveto
          -64 -32 56 219 hvcurveto
          169 vlineto
          -493 479 49 -26 62 39 40 9 41 30 73 -9 40 hhcurveto
          68 17 28 24 17 -16 14 -21 hvcurveto
          -21 -11 -7 -12 hhcurveto
          -45 -63 36 97 -105 hvcurveto
          -405 374 159 79 155 111 112 99 rlinecurve
          60 68 30 11 24 21 16 -7 18 hhcurveto
          22 15 14 16 24 -11 29 -76 hvcurveto
          -61 -50 -16 -54 -75 -75 16 -75 hhcurveto
          -76 -14 -29 -24 -16 15 -14 21 hvcurveto
          22 19 7 17 hhcurveto
          45 29 -11 -29 -58 -246 -169 -234 -81 hvcurveto
          289 vlineto
          117 -31 8 -47 vhcurveto
          -55 -48 -12 -45 -71 -35 12 -38 hhcurveto
          -51 -13 -23 -18 -51 119 20 40 -52 hvcurveto
          29 -38 14 -73 -137 vvcurveto
          -287 vlineto
          -187 -31 -88 -69 -49 callgsubr
          -22 -15 -11 -21 hvcurveto
          endchar
        </CharString>
        <CharString name="l">
          -650 -15 97 hstem
          33 callsubr
          vstem
          110 46 rmoveto
          -88 callgsubr
          endchar
        </CharString>
        <CharString name="lacute">
          -654 0 75 hstem
          300 233 vstem
          114 50 rmoveto
          -22 16 -28 88 vhcurveto
          41 82 15 84 8 callsubr
          -20 -8 callgsubr
          -65 -30 55 220 hvcurveto
          1048 20 callgsubr
          -18 -2 rlineto
          -3 -27 35 callgsubr
          -17 -19 -27 28 -8 28 14 callsubr
          23 -69 -218 vvcurveto
          -801 vlineto
          -200 -18 -75 -79 -49 callgsubr
          -22 -15 -11 -21 hvcurveto
          223 1607 -98 callsubr
        </CharString>
        <CharString name="lcaron">
          -449 -10 97 1619 -20 19 callgsubr
          256 148 hintmask 10100000
          110 51 rmoveto
          -88 callgsubr
          hintmask 01010000
          580 1045 -73 callgsubr
        </CharString>
        <CharString name="lcommaaccent">
          -650 -499 -21 505 97 19 callgsubr
          -127 175 hintmask 01100000
          110 46 rmoveto
          -88 callgsubr
          hintmask 10010000
          181 -257 -94 callgsubr
        </CharString>
        <CharString name="ldot">
          -30 -15 97 383 329 19 callgsubr
          494 334 hintmask 01010000
          1031 626 rmoveto
          -44 callsubr
          hintmask 10100000
          -921 -580 rmoveto
          -88 callgsubr
          endchar
        </CharString>
        <CharString name="less">
          16 callgsubr
          521 rmoveto
          706 -433 rlineto
          182 vlineto
          -463 288 463 281 rlineto
          177 vlineto
          -706 -428 rlineto
          endchar
        </CharString>
        <CharString name="lessequal">
          26 callgsubr
          137 757 rmoveto
          707 -434 rlineto
          183 vlineto
          -464 287 464 282 rlineto
          177 vlineto
          -707 -429 rlineto
          5 -823 rmoveto
          746 hlineto
          -2 149 rlineto
          -742 hlineto
          endchar
        </CharString>
        <CharString name="logicalnot">
          -152 580 149 hstem
          992 153 vstem
          140 580 rmoveto
          852 -326 153 475 -1005 hlineto
          endchar
        </CharString>
        <CharString name="lozenge">
          -22 6 -21 hstem
          174 1067 vstem
          605 1 rmoveto
          -11 36 33 -5 31 hhcurveto
          33 32 5 10 30 hvcurveto
          436 681 rlineto
          4 10 1 9 9 vvcurveto
          10 -1 10 -4 10 vhcurveto
          -425 699 rlineto
          20 -13 -41 10 -44 hhcurveto
          -41 -43 -10 -20 -16 hvcurveto
          -432 -673 rlineto
          -5 -9 -2 -12 -13 vvcurveto
          -13 1 -12 7 -11 vhcurveto
          533 -552 rmoveto
          -355 606 339 548 354 -605 rlineto
          endchar
        </CharString>
        <CharString name="lslash">
          -654 5 95 947 -20 hstem
          300 233 vstem
          114 65 rmoveto
          -22 16 -38 88 vhcurveto
          41 82 15 84 78 43 -15 74 hhcurveto
          75 20 38 22 20 -15 22 -21 hvcurveto
          -17 -20 -8 callgsubr
          -65 -30 35 220 hvcurveto
          559 vlineto
          136 89 rlineto
          54 35 28 28 26 vvcurveto
          29 -23 18 -23 -22 -27 -13 -37 -58 vhcurveto
          -65 -42 rlineto
          527 20 callgsubr
          -5 -45 35 callgsubr
          -27 -18 -28 28 -18 28 -2 hvcurveto
          141 -12 24 -46 -221 vvcurveto
          -432 vlineto
          -144 -93 rlineto
          -30 -21 -30 -20 -33 vvcurveto
          -29 21 -19 29 14 24 9 30 50 vhcurveto
          66 43 rlineto
          -407 vlineto
          -200 -18 -55 -79 vhcurveto
          -20 -15 7 -17 hhcurveto
          -22 -15 -21 -21 hvcurveto
          endchar
        </CharString>
        <CharString name="m">
          26 callsubr
          hstemhm
          300 236 512 237 510 29 callsubr
          hintmask 10111100
          107 46 rmoveto
          hintmask 11011100
          -54 callsubr
          77 69 -15 69 hhcurveto
          86 18 34 27 hvcurveto
          hintmask 10111100
          -83 callgsubr
          endchar
        </CharString>
        <CharString name="macron">
          -561 1316 139 hstem
          98 692 vstem
          98 1316 -25 callgsubr
        </CharString>
        <CharString name="macron.cap">
          -415 1783 146 hstem
          99 823 vstem
          174 1783 -64 callsubr
        </CharString>
        <CharString name="minus">
          -241 559 148 hstem
          226 744 vstem
          226 559 rmoveto
          744 148 -742 hlineto
          endchar
        </CharString>
        <CharString name="mu">
          95 -505 -21 502 121 -100 76 -52 -21 956 76 -3 -20 hstemhm
          263 238 481 29 callsubr
          hintmask 10101011
          263 -39 rmoveto
          hintmask 10100111
          -403 103 -84 104 vhcurveto
          hintmask 11001011
          59 51 39 54 39 -15 35 -49 42 hvcurveto
          1 hlineto
          -57 45 -41 30 78 vvcurveto
          76 15 73 22 71 vhcurveto
          -50 73 90 -30 95 hhcurveto
          100 94 25 58 84 hvcurveto
          -46 11 22 -13 29 48 31 6 31 -20 callgsubr
          78 21 28 26 hvcurveto
          hintmask 10100111
          16 -15 14 -23 vhcurveto
          hintmask 11001011
          -10 -10 -1 -2 -8 hvcurveto
          -28 -5 rlineto
          -96 -8 60 221 hvcurveto
          522 vlineto
          129 -17 24 -55 vhcurveto
          -47 -34 -6 -29 -30 -82 9 -43 hhcurveto
          -77 -21 -28 -26 -16 15 24 callsubr
          95 9 -58 -223 hvcurveto
          -507 vlineto
          -48 -63 -66 -23 -72 hhcurveto
          -161 -119 121 158 hvcurveto
          501 vlineto
          hintmask 10011011
          129 -17 23 -55 vhcurveto
          -47 -34 -6 -30 hhcurveto
          hintmask 10101011
          -29 -82 9 -43 hhcurveto
          -77 -22 -28 -26 -16 16 24 callsubr
          96 8 -60 -220 hvcurveto
          endchar
        </CharString>
        <CharString name="multiply">
          -244 997 -20 hstem
          146 901 vstem
          260 213 rmoveto
          335 334 343 -343 109 109 -343 343 335 334 -106 106 -335 -334 -343 344 -109 -109 343 -344 -335 -334 rlineto
          endchar
        </CharString>
        <CharString name="n">
          85 3 callgsubr
          hstem
          33 callsubr
          504 236 vstem
          -102 callgsubr
          endchar
        </CharString>
        <CharString name="nacute">
          85 3 callgsubr
          549 -20 19 callgsubr
          119 445 -60 236 hintmask 11010100
          -102 callgsubr
          hintmask 00101000
          582 1156 -100 callsubr
        </CharString>
        <CharString name="nbspace">
          -887 endchar
        </CharString>
        <CharString name="ncaron">
          85 3 callgsubr
          526 -20 19 callgsubr
          -104 687 -79 236 hintmask 11010100
          -102 callgsubr
          hintmask 00101000
          668 1137 -90 callgsubr
        </CharString>
        <CharString name="ncommaaccent">
          85 -499 -21 505 97 800 171 19 callgsubr
          294 175 35 236 hintmask 01110100
          -102 callgsubr
          hintmask 10001000
          605 -257 -94 callgsubr
        </CharString>
        <CharString name="nine">
          -71 -24 150 400 162 758 145 hstem
          99 241 677 249 vstem
          169 246 rmoveto
          -98 123 -172 294 421 259 368 494 449 -236 304 -385 -287 -259 -205 -335 -309 233 -216 269 182 146 87 122 88 vhcurveto
          -445 -15 -231 -164 -230 hhcurveto
          -153 -91 43 98 -44 hvcurveto
          32 -14 -14 12 -24 hhcurveto
          -21 -11 -40 -25 hvcurveto
          516 442 rmoveto
          -148 -197 165 296 206 113 91 177 188 149 -148 -351 34 hvcurveto
          -175 -58 -87 -84 -171 hhcurveto
          endchar
        </CharString>
        <CharString name="notequal">
          2 callgsubr
          391 rmoveto
          348 hlineto
          -52 -141 rlineto
          -31 -85 -4 -18 -16 vvcurveto
          -34 20 -36 49 40 26 34 37 14 vhcurveto
          94 259 rlineto
          501 149 -446 hlineto
          67 184 rlineto
          379 149 -325 hlineto
          67 183 rlineto
          12 29 10 43 22 vvcurveto
          28 -22 27 -35 -43 -31 -24 -114 -42 vhcurveto
          -72 -194 rlineto
          -524 -149 470 hlineto
          -68 -184 rlineto
          -402 hlineto
          endchar
        </CharString>
        <CharString name="ntilde">
          85 3 callgsubr
          195 169 -60 168 19 callgsubr
          -109 715 -102 236 hintmask 11001010
          -102 callgsubr
          hintmask 00000000
          349 1205 -12 callsubr
          hintmask 00100100
          -74 callgsubr
          hintmask 00010100
          -70 callsubr
        </CharString>
        <CharString name="numbersign">
          89 -3 -21 532 149 273 149 508 -20 hstem
          86 1349 vstem
          285 47 rmoveto
          -35 24 -36 49 39 33 35 38 9 vhcurveto
          106 459 rlineto
          337 24 callgsubr
          -35 24 -36 49 39 33 35 38 10 vhcurveto
          106 459 rlineto
          207 hlineto
          46 40 29 45 49 -42 26 -46 hvcurveto
          -171 hlineto
          64 273 rlineto
          210 hlineto
          46 40 29 46 49 -42 25 -46 hvcurveto
          -174 hlineto
          83 34 callsubr
          -31 25 -35 -43 -32 -33 -109 -25 vhcurveto
          -86 -366 rlineto
          -337 hlineto
          82 34 callsubr
          -32 25 -34 -44 -30 -33 -109 -26 vhcurveto
          -86 -366 rlineto
          -256 hlineto
          -45 -43 -25 -49 -46 41 -29 45 hvcurveto
          223 hlineto
          -64 -273 rlineto
          -247 hlineto
          -47 -42 -26 -49 -45 40 -29 47 hvcurveto
          214 24 callgsubr
          295 610 rmoveto
          64 273 rlineto
          336 hlineto
          -64 -273 rlineto
          endchar
        </CharString>
        <CharString name="o">
          -45 callgsubr
          hstem
          100 249 640 252 vstem
          -96 callsubr
          endchar
        </CharString>
        <CharString name="oacute">
          -45 callgsubr
          549 14 callgsubr
          188 445 7 252 hintmask 11010100
          -96 callsubr
          hintmask 00101000
          221 607 -100 callsubr
        </CharString>
        <CharString name="obreve">
          -45 callgsubr
          158 -33 callgsubr
          100 249 -111 839 -88 252 hintmask 1100001010000000
          -96 callsubr
          -35 callsubr
          308 616 -75 callsubr
          hintmask 0011010100000000
          -25 callsubr
          hintmask 0010110100000000
          -75 callgsubr
          -132 232 hhcurveto
          endchar
        </CharString>
        <CharString name="ocircumflex">
          -45 callgsubr
          558 14 callgsubr
          -33 701 -28 252 hintmask 11010100
          -96 callsubr
          hintmask 00101000
          612 vmoveto
          -102 callsubr
        </CharString>
        <CharString name="odieresis">
          -45 callgsubr
          179 310 0 14 callgsubr
          -76 -11 callsubr
          -73 252 hintmask 11001001
          -96 callsubr
          hintmask 00000000
          560 637 -46 callsubr
        </CharString>
        <CharString name="oe">
          669 -24 119 -119 137 817 123 hstemhm
          100 249 639 250 542 251 hintmask 00000000
          hintmask 10111100
          100 513 rmoveto
          -244 148 -293 429 183 161 80 108 101 vhcurveto
          -117 107 158 -71 174 hhcurveto
          170 153 61 121 91 hvcurveto
          34 45 5 33 13 vvcurveto
          17 -24 24 -18 -22 -12 -13 -28 -20 vhcurveto
          -82 -56 -130 -54 -99 hhcurveto
          -170 -163 110 209 -48 hvcurveto
          34 9 rlineto
          hintmask 01111100
          204 49 208 49 284 103 rrcurveto
          44 16 5 23 26 vvcurveto
          28 -111 318 -365 -188 -152 -78 -115 -100 vhcurveto
          112 -94 -147 81 -201 hhcurveto
          hintmask 10111100
          -321 -252 -245 -295 hvcurveto
          249 82 rmoveto
          208 119 127 149 179 192 -177 -333 -206 -131 -119 -145 -190 -173 207 293 vhcurveto
          890 -68 rmoveto
          -1 13 0 11 12 vvcurveto
          263 131 103 158 157 96 -155 -72 -10 -3 -10 -18 -6 vhcurveto
          -144 -50 -182 -51 -194 -48 rrcurveto
          endchar
        </CharString>
        <CharString name="ogonek">
          -208 -463 565 hstem
          242 165 vstem
          242 -281 rmoveto
          -134 92 -49 105 1 vhcurveto
          220 2 rlineto
          20 13 12 15 14 -7 13 -33 9 hvcurveto
          -174 34 -71 87 86 vvcurveto
          125 72 110 44 30 vhcurveto
          -88 28 rlineto
          -105 -70 -88 -145 -168 vvcurveto
          endchar
        </CharString>
        <CharString name="ograve">
          -45 callgsubr
          549 14 callgsubr
          5 445 190 252 hintmask 11010100
          -96 callsubr
          hintmask 00101000
          417 607 -87 callgsubr
        </CharString>
        <CharString name="ohungarumlaut">
          -45 callgsubr
          503 14 callgsubr
          -37 889 -212 252 hintmask 11010100
          -96 callsubr
          hintmask 00101000
          454 583 -71 callgsubr
        </CharString>
        <CharString name="omacron">
          -45 callgsubr
          263 139 hstemhm
          100 249 -29 692 -23 252 hintmask 11010100
          -96 callsubr
          hintmask 00101000
          -29 721 -25 callgsubr
        </CharString>
        <CharString name="one">
          -585 -15 97 1505 -20 hstem
          333 233 vstem
          87 46 rmoveto
          -23 32 -38 72 vhcurveto
          116 54 15 88 83 25 callsubr
          -23 hvcurveto
          -29 -8 -7 -29 hhcurveto
          -92 -20 65 167 hvcurveto
          942 vlineto
          179 13 56 58 vvcurveto
          23 -9 15 -17 -18 -16 -13 -24 -33 vhcurveto
          -86 -62 -131 -54 -111 -41 rrcurveto
          -76 -28 -15 -14 -19 vvcurveto
          -18 15 -12 19 vhcurveto
          65 43 14 30 hhcurveto
          70 24 -75 -167 hvcurveto
          -760 vlineto
          -167 -21 -65 -92 vhcurveto
          -40 -21 10 -34 hhcurveto
          -24 -14 -27 -19 hvcurveto
          endchar
        </CharString>
        <CharString name="onehalf">
          622 -3 -21 22 163 478 85 123 99 641 -20 24 -20 hstemhm
          276 204 -98 1287 97 207 hintmask 1000100100000000
          382 34 rmoveto
          -35 23 -23 38 30 27 21 50 39 vhcurveto
          356 455 368 -16 callgsubr
          -34 -33 -18 -15 -77 -60 -6 callsubr
          -21 -32 -27 vvcurveto
          hintmask 0010011000000000
          -200 605 -71 callsubr
          hintmask 0101000010000000
          1164 -641 -60 callgsubr
        </CharString>
        <CharString name="onequarter">
          606 0 86 172 119 262 85 863 -20 24 -20 hstemhm
          276 204 1067 199 hintmask 11010010
          381 34 rmoveto
          -35 24 -23 38 29 28 21 50 39 vhcurveto
          355 455 369 -16 callgsubr
          -35 -32 -18 -15 -77 -60 -6 callsubr
          -22 -32 -27 vvcurveto
          733 -17 callsubr
          -59 callsubr
          hintmask 00101100
          -1365 262 -71 callsubr
          endchar
        </CharString>
        <CharString name="onesuperior">
          -748 639 85 867 -20 hstem
          254 204 vstem
          160 639 -71 callsubr
          endchar
        </CharString>
        <CharString name="ordfeminine">
          -244 755 83 -69 65 339 71 250 93 -26 -20 51 -20 hstemhm
          168 206 349 213 hintmask 00000000
          hintmask 10110011
          493 755 rmoveto
          85 87 30 50 60 hvcurveto
          -57 7 20 -14 28 34 35 5 39 46 42 -7 42 hhcurveto
          63 20 26 20 hvcurveto
          hintmask 01110011
          19 -17 16 -18 vhcurveto
          -21 -15 -9 -16 hhcurveto
          -57 -21 30 189 hvcurveto
          213 vlineto
          176 -76 145 -312 -73 -44 -7 -11 -42 vhcurveto
          -11 -3 rlineto
          -3 -7 -6 -2 -5 -21 -45 31 -24 hhcurveto
          -12 -19 -6 -34 -58 -6 -65 -15 -45 hvcurveto
          hintmask 10101111
          -5 -15 -5 -13 1 -14 rrcurveto
          -12 12 -14 16 14 13 7 46 33 vhcurveto
          92 69 65 33 85 hhcurveto
          136 71 -74 -135 hvcurveto
          -88 vlineto
          32 -69 -78 15 -75 hhcurveto
          hintmask 10110011
          -174 -159 -67 -177 -149 109 -96 216 hvcurveto
          56 83 rmoveto
          -111 -64 80 99 84 68 72 106 60 65 -19 -26 50 hvcurveto
          -223 vlineto
          -43 -48 -65 -24 -61 hhcurveto
          endchar
        </CharString>
        <CharString name="ordmasculine">
          -244 745 95 651 96 hstem
          151 230 425 236 vstem
          601 745 rmoveto
          286 155 191 244 197 -138 210 -306 -250 -197 -193 -229 -190 114 -230 336 hvcurveto
          41 95 rmoveto
          -133 -128 165 228 149 61 109 116 127 121 -121 -280 -172 -70 -78 -94 hvcurveto
          endchar
        </CharString>
        <CharString name="oslash">
          -45 callgsubr
          -48 14 callgsubr
          640 252 hintmask 00000000
          hintmask 11011000
          191 -85 rmoveto
          -26 -39 -6 -21 -16 vvcurveto
          -36 23 -19 30 30 20 12 38 26 vhcurveto
          127 188 rlineto
          -29 72 87 -17 103 hhcurveto
          366 198 244 312 152 -65 159 -138 102 hvcurveto
          98 144 rlineto
          23 35 13 23 30 vvcurveto
          29 -25 19 -29 -27 -17 -9 -43 -29 vhcurveto
          -115 -168 rlineto
          30 -72 -86 18 -99 hhcurveto
          -321 -252 -245 -295 -152 57 -171 147 -107 hvcurveto
          hintmask 10111000
          -1 -2 rlineto
          hintmask 11011000
          137 201 rmoveto
          -56 79 -35 105 129 vvcurveto
          208 119 98 149 67 70 -21 -45 61 vhcurveto
          -286 -644 rmoveto
          373 553 rlineto
          53 -78 34 -107 -139 vvcurveto
          -206 -121 -87 -145 -68 -68 22 42 -58 vhcurveto
          endchar
        </CharString>
        <CharString name="otilde">
          -45 callgsubr
          195 169 -60 168 hstemhm
          100 249 -40 715 -35 252 hintmask 11001010
          -96 callsubr
          hintmask 00000000
          -12 656 -12 callsubr
          hintmask 00100100
          -74 callgsubr
          hintmask 00010100
          -70 callsubr
        </CharString>
        <CharString name="p">
          7 callgsubr
          hstemhm
          200 238 601 242 hintmask 00000000
          hintmask 11100110
          200 -169 -16 callsubr
          hvcurveto
          hintmask 11001110
          -23 17 -39 84 vhcurveto
          hintmask 11010110
          -65 callgsubr
          endchar
        </CharString>
        <CharString name="paragraph">
          100 -3 75 -51 -21 1494 78 -15 -20 40 -20 hstemhm
          609 231 205 230 hintmask 00000000
          hintmask 10010110
          384 50 rmoveto
          -26 20 -27 79 vhcurveto
          hintmask 10001110
          55 45 9 45 35 128 -6 49 hhcurveto
          1557 vlineto
          -27 -132 4 6 -26 hvcurveto
          9 -42 -58 1 -69 hhcurveto
          -336 -147 -199 -191 -267 212 -148 269 32 51 6 9 42 hvcurveto
          -434 vlineto
          -246 -25 -35 -86 vhcurveto
          hintmask 01100110
          -24 -26 9 -28 hhcurveto
          -21 -15 -15 -16 hvcurveto
          661 -50 rmoveto
          230 1244 hlineto
          164 20 86 92 vhcurveto
          34 5 -6 26 hhcurveto
          24 14 12 20 23 -21 29 -72 hvcurveto
          -107 -154 -15 -91 hhcurveto
          endchar
        </CharString>
        <CharString name="parenleft">
          -411 -288 93 1844 93 hstem
          166 253 vstem
          166 727 rmoveto
          -674 284 -341 317 72 40 23 25 19 -13 31 -20 vhcurveto
          -27 -12 -5 -22 hhcurveto
          -195 -171 246 676 677 171 245 195 hvcurveto
          23 17 -5 21 hhcurveto
          20 13 32 18 26 -40 22 -72 -317 -284 -342 -673 hvcurveto
          endchar
        </CharString>
        <CharString name="parenright">
          -412 -288 93 1844 93 hstem
          606 253 vstem
          859 727 rmoveto
          673 -284 342 -317 -72 -40 -22 -26 -18 13 -32 20 vhcurveto
          21 17 5 23 hhcurveto
          195 171 -245 -677 -676 -171 -246 -195 hvcurveto
          -22 -12 5 -27 hhcurveto
          -20 -13 -31 -19 -25 40 -23 72 317 284 341 674 hvcurveto
          endchar
        </CharString>
        <CharString name="partialdiff">
          98 -24 114 878 151 478 115 hstem
          262 200 615 208 vstem
          262 482 rmoveto
          -318 154 -188 277 308 284 489 527 456 -190 264 -332 -249 -132 -187 -105 -28 20 -18 17 19 24 12 35 15 vhcurveto
          106 45 100 70 129 hhcurveto
          185 141 -197 -420 hvcurveto
          -40 vlineto
          115 -67 -122 64 -145 hhcurveto
          -246 -235 -276 -361 hvcurveto
          200 -116 rmoveto
          404 205 198 139 135 88 -98 -151 32 vhcurveto
          -398 -51 -165 -231 -166 hhcurveto
          -167 -50 103 173 hvcurveto
          endchar
        </CharString>
        <CharString name="percent">
          439 -24 87 547 90 163 88 545 91 hstem
          110 200 368 200 121 201 366 200 vstem
          306 34 rmoveto
          -35 24 -23 38 30 30 21 50 40 vhcurveto
          355 455 368 476 355 455 rrcurveto
          36 47 12 29 31 callgsubr
          -34 -38 -29 -25 -67 -49 -6 callsubr
          -17 -32 -27 vvcurveto
          191 829 rmoveto
          202 179 136 237 196 -147 155 -236 -216 -169 -165 -198 -163 98 -198 289 hvcurveto
          44 88 rmoveto
          -115 -116 142 191 144 67 68 83 111 107 -141 -197 -158 -66 -49 -71 hvcurveto
          458 -613 rmoveto
          -165 99 -197 288 202 178 136 238 196 -146 154 -236 -217 -168 -165 -197 vhcurveto
          201 59 rmoveto
          145 65 68 84 110 107 -143 -197 -157 -65 -50 -71 -115 -115 144 190 vhcurveto
          endchar
        </CharString>
        <CharString name="period">
          -753 -3 -21 hstem
          171 341 vstem
          171 140 rmoveto
          -55 callgsubr
          endchar
        </CharString>
        <CharString name="periodcentered">
          -753 496 -21 hstem
          171 341 vstem
          171 639 rmoveto
          -55 callgsubr
          endchar
        </CharString>
        <CharString name="perthousand">
          1322 -24 86 536 88 160 86 535 89 hstem
          110 197 359 196 149 197 359 196 133 197 359 197 vstem
          303 33 rmoveto
          -34 23 -23 36 31 29 21 49 38 vhcurveto
          349 446 361 466 348 447 rrcurveto
          35 45 11 29 21 vvcurveto
          34 -26 22 -34 -38 -27 -25 -65 -49 vhcurveto
          -1022 -1311 rlineto
          -49 -63 -16 -33 -26 vvcurveto
          186 813 rmoveto
          198 175 133 233 192 -143 152 -232 -212 -165 -162 -194 -160 97 -194 282 hvcurveto
          43 86 rmoveto
          -112 -113 140 187 141 64 67 82 108 105 -139 -193 -155 -64 -48 -70 hvcurveto
          1364 -601 rmoveto
          -161 97 -194 282 198 176 134 233 192 -144 16 callsubr
          -885 hmoveto
          -161 97 -194 282 198 175 134 233 192 -143 16 callsubr
          1082 58 rmoveto
          142 64 67 83 107 -2 callgsubr
          -885 hmoveto
          142 64 67 82 108 -2 callgsubr
          endchar
        </CharString>
        <CharString name="pi">
          437 -12 -21 1070 146 -144 147 hstemhm
          1084 196 hintmask 00000000
          hintmask 10110000
          444 58 rmoveto
          -61 31 -30 51 62 41 37 135 23 vhcurveto
          158 902 378 -3 -93 -668 rlineto
          -6 -46 -5 -129 -12 vvcurveto
          hintmask 11010000
          -142 3 83 -83 167 hhcurveto
          48 71 15 65 52 -49 23 -52 6 hvcurveto
          -61 6 -14 44 56 vvcurveto
          37 76 567 28 208 vhcurveto
          hintmask 10110000
          62 hlineto
          213 43 74 52 23 -12 26 -66 hvcurveto
          -76 -47 -29 -76 -213 -352 4 -242 hhcurveto
          -129 -283 -12 -127 -24 16 -93 64 94 1 105 5 255 hvcurveto
          -172 -827 rlineto
          -13 -85 -7 -47 -24 vvcurveto
          endchar
        </CharString>
        <CharString name="plus">
          -152 580 37 callsubr
          143 rmoveto
          152 437 -1 callgsubr
          endchar
        </CharString>
        <CharString name="plusminus">
          -152 173 149 558 37 callsubr
          463 rmoveto
          152 417 -1 callgsubr
          -426 -707 rmoveto
          9 callsubr
          endchar
        </CharString>
        <CharString name="product">
          270 -188 77 1504 145 hstem
          288 235 663 233 vstem
          112 -104 rmoveto
          -25 -14 -13 -20 -22 21 -29 73 hvcurveto
          108 47 16 83 84 49 -16 106 hhcurveto
          72 22 29 22 20 -14 13 -25 hvcurveto
          -30 -6 -7 -28 hhcurveto
          -92 -20 85 168 hvcurveto
          1188 vlineto
          34 31 29 75 vhcurveto
          450 hlineto
          74 33 -29 -34 hvcurveto
          -1188 vlineto
          -169 -22 -84 -91 vhcurveto
          -33 -7 7 -25 hhcurveto
          -23 -15 -13 -20 -22 21 -29 73 hvcurveto
          103 51 16 84 86 50 -16 103 hhcurveto
          72 21 29 22 20 -14 13 -23 hvcurveto
          -29 -8 -7 -29 hhcurveto
          -90 -22 84 169 hvcurveto
          1072 vlineto
          166 21 77 91 vhcurveto
          34 7 -8 25 hhcurveto
          23 14 24 18 24 -21 38 -72 hvcurveto
          -103 -50 -15 -86 hhcurveto
          -897 hlineto
          -83 -47 15 -27 callgsubr
          -73 -21 -38 -24 -18 14 -24 25 hvcurveto
          27 9 8 28 hhcurveto
          93 19 -77 -166 hvcurveto
          -1072 vlineto
          -169 -19 -84 -93 vhcurveto
          -32 -8 7 -24 hhcurveto
          endchar
        </CharString>
        <CharString name="q">
          -107 -526 97 406 149 776 151 hstem
          80 242 620 238 vstem
          80 517 rmoveto
          -324 214 -216 350 114 104 38 58 80 vhcurveto
          -252 vlineto
          -199 -29 -51 -76 vhcurveto
          -13 -17 8 -19 hhcurveto
          -22 -17 -22 -21 -23 17 -39 84 hvcurveto
          59 43 6 106 74 70 -6 72 hhcurveto
          85 20 35 27 19 callsubr
          hvcurveto
          -19 -16 -8 -14 hhcurveto
          -81 -31 22 228 hvcurveto
          902 vlineto
          326 85 -85 58 vvcurveto
          20 -17 11 -18 -35 -77 -27 -74 -139 vhcurveto
          63 -85 -111 38 -149 hhcurveto
          -316 -238 -240 -296 hvcurveto
          242 50 rmoveto
          204 118 131 209 108 129 -56 -113 56 vhcurveto
          -492 vlineto
          -70 -59 -94 -45 -89 hhcurveto
          -211 -167 165 276 hvcurveto
          endchar
        </CharString>
        <CharString name="question">
          -403 -3 -21 1492 119 hstemhm
          359 295 -269 99 231 246 hintmask 00000000
          hintmask 11011000
          523 448 rmoveto
          32 37 9 43 hvcurveto
          69 -108 -34 64 vvcurveto
          70 73 83 106 87 vhcurveto
          197 163 101 128 157 vvcurveto
          166 -129 134 -305 -170 -119 -49 -55 -99 vhcurveto
          -281 vlineto
          -33 14 -15 24 21 22 32 27 5 vhcurveto
          166 44 105 89 127 hhcurveto
          125 89 -58 -133 -97 -52 -104 -88 -105 hvcurveto
          -142 -170 -48 -126 -72 vvcurveto
          -103 75 -52 63 vhcurveto
          hintmask 11101000
          -164 -331 rmoveto
          -62 46 -79 102 78 69 57 81 70 -47 81 -97 -90 -61 -70 -78 vhcurveto
          endchar
        </CharString>
        <CharString name="questiondown">
          -403 -525 119 1471 21 hstemhm
          73 246 61 295 -125 99 hintmask 00000000
          hintmask 11101000
          511 614 rmoveto
          -32 -37 -9 -43 hvcurveto
          -69 108 34 -64 vvcurveto
          -70 -73 -83 -106 -87 vhcurveto
          -197 -163 -101 -128 -157 vvcurveto
          -166 129 -134 305 170 119 49 55 99 vhcurveto
          281 vlineto
          33 -14 15 -24 -21 -22 -32 -27 -5 vhcurveto
          -166 -44 -105 -89 -127 hhcurveto
          -125 -89 58 133 97 52 104 88 105 hvcurveto
          142 170 48 126 72 vvcurveto
          103 -75 52 -63 vhcurveto
          hintmask 11110000
          164 331 rmoveto
          62 -46 79 -102 -78 -69 -57 -81 -70 47 -81 97 90 61 70 78 vhcurveto
          endchar
        </CharString>
        <CharString name="quotedbl">
          -415 1587 -20 hstemhm
          172 263 171 263 hintmask 11000000
          262 936 rmoveto
          -41 callsubr
          hintmask 10100000
          434 hmoveto
          -41 callsubr
          endchar
        </CharString>
        <CharString name="quotedblbase">
          -407 -397 15 callgsubr
          225 -60 callsubr
        </CharString>
        <CharString name="quotedblleft">
          -407 1587 -20 hstemhm
          106 152 338 152 hintmask 11000000
          295 965 rmoveto
          -57 callsubr
          hintmask 10100000
          490 hmoveto
          -57 callsubr
          endchar
        </CharString>
        <CharString name="quotedblright">
          -407 979 15 callgsubr
          1601 -60 callsubr
        </CharString>
        <CharString name="quoteleft">
          -925 1587 -20 hstem
          87 152 vstem
          276 965 rmoveto
          -57 callsubr
          endchar
        </CharString>
        <CharString name="quoteright">
          -925 979 20 hstem
          282 152 vstem
          245 1601 rmoveto
          -58 callsubr
        </CharString>
        <CharString name="quotesinglbase">
          -753 -395 20 hstem
          364 152 vstem
          327 227 rmoveto
          -58 callsubr
        </CharString>
        <CharString name="quotesingle">
          -758 1587 -20 hstem
          214 263 vstem
          304 936 rmoveto
          -41 callsubr
          endchar
        </CharString>
        <CharString name="r">
          28 callsubr
          hstem
          300 236 vstem
          -91 callsubr
          endchar
        </CharString>
        <CharString name="racute">
          28 callsubr
          597 -20 hstemhm
          300 236 -136 445 hintmask 11010000
          -91 callsubr
          hintmask 00101000
          326 1156 -100 callsubr
        </CharString>
        <CharString name="radical">
          209 629 95 hstem
          56 1615 vstem
          140 629 rmoveto
          229 hlineto
          412 -987 rlineto
          168 hlineto
          713 2246 rlineto
          5 17 4 27 17 vvcurveto
          43 -30 27 -40 -34 -29 -13 -61 -18 vhcurveto
          -213 -693 -212 -696 -213 -695 -2 -2 rcurveline
          -336 866 -402 -1 rlineto
          -57 -29 -24 -24 -23 28 -24 56 hvcurveto
          endchar
        </CharString>
        <CharString name="rcaron">
          28 callsubr
          574 -20 hstemhm
          177 687 -564 236 hintmask 11001000
          -91 callsubr
          hintmask 00110000
          412 1137 -90 callgsubr
        </CharString>
        <CharString name="rcommaaccent">
          -288 -504 -21 510 97 943 -20 hstemhm
          300 236 10 175 hintmask 01110000
          -91 callsubr
          hintmask 10001000
          320 -262 -94 callgsubr
        </CharString>
        <CharString name="registered">
          -64 639 105 176 51 178 53 177 72 -49 40 176 112 hstemhm
          119 117 247 137 505 128 -35 callsubr
          hintmask 1111011110000000
          691 639 rmoveto
          292 270 230 314 331 -274 216 -288 -346 -226 -262 -284 -300 252 -245 320 hvcurveto
          4 105 rmoveto
          -259 -200 194 242 246 192 192 252 230 215 -178 -259 -262 -205 -175 -225 hvcurveto
          -250 176 rmoveto
          41 26 7 39 44 33 -7 30 hhcurveto
          hintmask 1110111110000000
          33 8 14 16 12 -7 9 -16 hvcurveto
          -11 -11 -4 -6 hhcurveto
          -16 -12 18 81 hvcurveto
          79 vlineto
          33 -15 30 -28 19 -31 rrcurveto
          -102 64 71 -54 75 hhcurveto
          36 27 17 20 8 -4 11 -15 -4 -6 -1 -2 -6 hvcurveto
          1 hlineto
          -1 -4 -6 -1 -4 hhcurveto
          -13 -9 12 49 -31 hvcurveto
          -36 58 -42 40 -42 24 rrcurveto
          89 6 89 53 100 vvcurveto
          77 -76 66 -134 vhcurveto
          -77 -20 -9 -51 -77 -24 7 -28 hhcurveto
          -33 -10 -15 -14 -11 10 -11 16 3 4 0 1 4 hvcurveto
          4 7 3 4 hhcurveto
          17 12 -18 -79 hvcurveto
          -239 vlineto
          -81 -12 -18 -17 vhcurveto
          -8 -9 4 -12 hhcurveto
          -15 -8 -9 -12 -16 10 -14 33 hvcurveto
          175 299 rmoveto
          119 vlineto
          29 19 12 43 46 69 -28 -63 -61 -43 -25 -44 -25 -34 5 12 -31 vhcurveto
          endchar
        </CharString>
        <CharString name="ring">
          -781 1205 101 232 105 hstem
          96 117 226 118 vstem
          326 1205 -57 callgsubr
        </CharString>
        <CharString name="ring.cap">
          -781 1513 101 291 105 hstem
          66 118 285 121 vstem
          328 1513 -59 callgsubr
        </CharString>
        <CharString name="s">
          -15 callgsubr
          hstem
          166 225 502 226 vstem
          -100 callgsubr
          endchar
        </CharString>
        <CharString name="sacute">
          -15 callgsubr
          549 -20 hstemhm
          166 225 111 445 -54 226 hintmask 11010100
          -100 callgsubr
          hintmask 00101000
          395 857 -100 callsubr
        </CharString>
        <CharString name="scaron">
          -15 callgsubr
          526 -20 hstemhm
          166 225 -112 687 -73 226 hintmask 11010100
          -100 callgsubr
          hintmask 00101000
          481 838 -90 callgsubr
        </CharString>
        <CharString name="scedilla">
          -241 -521 78 211 80 131 115 840 119 hstemhm
          166 225 367 145 -10 226 hintmask 00000000
          hintmask 11111010
          140 95 rmoveto
          76 -55 202 -50 156 -11 -48 -230 rcurveline
          -63 callsubr
          hvcurveto
          hintmask 11111100
          -3 callsubr
          129 rlineto
          353 14 87 173 128 vvcurveto
          174 -121 91 -320 75 vhcurveto
          -233 55 -54 48 85 vvcurveto
          64 70 50 149 114 151 -35 -141 100 vhcurveto
          hintmask 11111010
          -32 16 10 -10 18 hhcurveto
          12 16 7 21 hvcurveto
          20 -16 93 153 vvcurveto
          30 -13 13 -20 vhcurveto
          -34 -24 -53 -24 -42 -67 53 -192 hhcurveto
          -305 -144 -163 -131 -144 96 -124 328 -82 hvcurveto
          225 -56 78 -55 -66 vvcurveto
          -114 -89 -24 -136 -221 -192 106 133 -45 vhcurveto
          29 -10 -11 11 -22 hhcurveto
          -14 -13 -13 -15 hvcurveto
          endchar
        </CharString>
        <CharString name="scircumflex">
          -15 callgsubr
          558 -20 hstemhm
          166 225 -110 701 -89 226 hintmask 11010100
          -100 callgsubr
          hintmask 00101000
          174 862 rmoveto
          -102 callsubr
        </CharString>
        <CharString name="scommaaccent">
          -241 -499 -21 496 118 840 119 hstemhm
          166 225 232 175 95 226 hintmask 01110100
          -100 callgsubr
          hintmask 10001000
          364 -556 -94 callgsubr
        </CharString>
        <CharString name="section">
          -318 -288 98 1679 98 hstemhm
          125 175 -145 210 388 208 -142 174 hintmask 00000000
          hintmask 11011000
          180 38 rmoveto
          -246 vlineto
          -49 95 101 -31 111 hhcurveto
          hintmask 11010100
          309 165 183 189 106 -50 95 -113 83 hvcurveto
          98 60 97 101 115 vvcurveto
          167 -84 109 -299 146 vhcurveto
          -175 86 -70 87 73 vvcurveto
          97 115 80 119 132 83 -78 -133 26 vhcurveto
          -33 6 14 -10 20 hhcurveto
          14 13 12 34 1 hvcurveto
          248 vlineto
          30 -66 -92 28 -128 hhcurveto
          hintmask 11101000
          -300 -167 -185 -165 -120 50 -102 116 -86 hvcurveto
          -99 -60 -97 -104 -121 vvcurveto
          -167 116 -117 266 -126 vhcurveto
          180 -86 66 -89 -72 vvcurveto
          -112 -108 -65 -125 -145 -96 89 143 -30 vhcurveto
          31 -6 -17 11 -18 hhcurveto
          hintmask 11011000
          -15 -12 -10 -36 -1 hvcurveto
          467 419 rmoveto
          hintmask 11100100
          -245 110 -102 87 88 vvcurveto
          54 39 44 65 36 vhcurveto
          21 -12 22 -10 25 -11 rrcurveto
          245 -113 102 -83 -89 vvcurveto
          -54 -39 -47 -66 -35 vhcurveto
          hintmask 11011000
          -20 11 -24 13 -23 11 rrcurveto
          endchar
        </CharString>
        <CharString name="semicolon">
          -758 -345 622 403 -21 hstemhm
          172 341 -154 151 hintmask 10010000
          165 -42 callsubr
          hintmask 01100000
          7 697 rmoveto
          -55 callgsubr
          endchar
        </CharString>
        <CharString name="seven">
          -242 13 -21 1370 199 63 -20 hstem
          68 1097 vstem
          362 33 rmoveto
          -27 -9 29 -14 22 35 36 8 37 33 34 -8 45 hhcurveto
          30 8 16 23 4 hvcurveto
          63 384 146 464 262 586 7 16 rcurveline
          11 25 10 16 15 vvcurveto
          23 -18 1 -46 vhcurveto
          -747 hlineto
          -78 -18 7 16 -13 hvcurveto
          32 -25 -11 8 -17 hhcurveto
          -14 -15 -9 -43 -7 hvcurveto
          -14 -91 -26 -81 -19 -62 rrcurveto
          1 vlineto
          -16 -50 -13 -38 -26 vvcurveto
          -22 10 -9 14 14 12 10 15 14 vhcurveto
          90 74 86 53 99 hhcurveto
          576 hlineto
          -316 -611 -256 -582 -33 -136 rrcurveto
          endchar
        </CharString>
        <CharString name="six">
          -72 -24 145 780 152 393 145 hstem
          78 245 703 233 vstem
          697 -24 rmoveto
          253 309 197 397 277 -193 206 -287 -206 -176 -95 -161 -74 hvcurveto
          439 15 184 210 248 hhcurveto
          159 106 -51 -100 52 hvcurveto
          -32 16 15 -11 21 hhcurveto
          20 12 37 27 97 -95 178 -307 -389 -302 -369 -439 -512 247 -295 372 hvcurveto
          -356 558 rmoveto
          241 42 148 126 153 hhcurveto
          159 183 -152 -316 -188 -108 -124 -160 -191 -171 135 278 -55 hvcurveto
          endchar
        </CharString>
        <CharString name="slash">
          -429 22 callgsubr
          91 826 vstem
          126 -96 rmoveto
          -29 -77 -6 -29 -15 vvcurveto
          -35 30 -36 51 39 27 34 38 14 vhcurveto
          643 1794 rlineto
          12 30 10 43 23 vvcurveto
          28 -33 28 -36 -43 -32 -25 -115 -44 vhcurveto
          -200 -555 -201 -576 -202 -555 rrcurveto
          endchar
        </CharString>
        <CharString name="space">
          -753 endchar
        </CharString>
        <CharString name="sterling">
          -70 -24 147 -122 -21 738 129 611 129 14 -20 hstemhm
          228 230 -53 235 hintmask 00000000
          hintmask 01110100
          57 27 rmoveto
          -23 25 -24 18 21 17 19 14 13 vhcurveto
          -1 vlineto
          54 53 66 24 82 hhcurveto
          55 70 -12 -45 144 hvcurveto
          -38 120 118 -19 103 hhcurveto
          170 190 90 89 16 -32 38 -22 hvcurveto
          hintmask 01101100
          -15 -17 -8 -23 -22 hvcurveto
          -38 -39 -37 -17 -62 hhcurveto
          -58 -61 18 63 -149 hvcurveto
          hintmask 01110100
          -124 53 -61 2 -109 8 rrcurveto
          70 62 56 91 97 vvcurveto
          66 -8 54 -24 81 vhcurveto
          379 hlineto
          48 52 17 43 55 -66 14 -45 hvcurveto
          -417 hlineto
          -86 184 -15 96 109 vvcurveto
          hintmask 01110010
          148 102 74 135 148 188 -104 -170 114 vhcurveto
          -10 10 13 -14 12 hhcurveto
          18 16 12 32 -4 hvcurveto
          -9 78 -49 155 6 110 rrcurveto
          42 2 -10 12 -23 hhcurveto
          -12 -13 -7 -36 -35 hvcurveto
          -32 -34 -17 -12 -9 1 rrcurveto
          -11 -22 7 9 -23 hvcurveto
          hintmask 10110010
          51 -129 -60 7 -80 hhcurveto
          -247 -209 -183 -257 -73 7 -80 58 -147 hvcurveto
          -85 hlineto
          -62 -29 -28 -34 -38 39 -29 59 hvcurveto
          132 hlineto
          40 -106 18 -78 -97 vvcurveto
          -63 -17 -51 -30 -40 vhcurveto
          -10 -14 -36 -27 -67 -36 rrcurveto
          -142 -75 -46 -65 -39 vvcurveto
          endchar
        </CharString>
        <CharString name="summation">
          99 -173 108 820 7 689 110 63 -20 hstem
          63 1365 vstem
          96 -63 rmoveto
          -22 -30 -11 -18 -18 vvcurveto
          -26 24 -18 53 vhcurveto
          1159 hlineto
          32 135 20 59 48 100 rrcurveto
          -1 hlineto
          23 44 7 25 14 vvcurveto
          18 -12 10 -15 -13 -12 -9 -26 -26 vhcurveto
          -208 -196 -106 -54 -179 hhcurveto
          -465 hlineto
          463 819 4 1 -2 2 4 6 -8 -1 -455 689 rlineto
          423 hlineto
          70 105 -12 -17 49 hvcurveto
          -64 151 133 -165 24 hhcurveto
          15 9 10 22 53 -59 128 -28 165 hvcurveto
          44 -7 -15 9 -16 hhcurveto
          -15 -12 -8 -33 -24 hvcurveto
          -14 -13 -20 -8 -76 hhcurveto
          -966 hlineto
          -44 -22 -15 -19 -14 7 -20 23 -29 hvcurveto
          475 -722 rlineto
          endchar
        </CharString>
        <CharString name="t">
          -422 -24 2 callsubr
          hstemhm
          257 29 callsubr
          hintmask 11010000
          257 289 -74 callsubr
          hintmask 10110000
          -53 callsubr
          hintmask 11010000
          -26 callgsubr
          100 hlineto
          endchar
        </CharString>
        <CharString name="tbar">
          -422 -24 147 455 93 228 139 -7 -20 hstemhm
          257 29 callsubr
          hintmask 11101000
          257 289 rmoveto
          -233 133 -80 205 119 114 45 115 85 vhcurveto
          32 42 6 33 13 vvcurveto
          23 -15 21 -20 -21 -37 -14 -30 -22 vhcurveto
          -80 -60 -63 -21 -46 hhcurveto
          -124 -48 97 119 hvcurveto
          239 311 vlineto
          47 48 6 38 47 -52 2 -44 hvcurveto
          -310 228 316 hlineto
          97 24 40 32 32 -23 35 -106 -44 -81 -2 -2 -80 hvcurveto
          -103 -3 rlineto
          365 vlineto
          hintmask 11011000
          78 -20 28 -33 -25 -30 -21 -85 -13 vhcurveto
          -31 -214 -56 -109 -149 -36 rrcurveto
          -26 callgsubr
          hintmask 11101000
          100 -228 -111 hlineto
          -59 -37 -14 -29 -34 37 -16 56 hvcurveto
          114 hlineto
          endchar
        </CharString>
        <CharString name="tcaron">
          -83 -19 2 callsubr
          540 -20 hstemhm
          257 238 630 148 hintmask 00000000
          hintmask 11001000
          257 294 -74 callsubr
          hintmask 10101000
          -53 callsubr
          hintmask 11001000
          -26 callgsubr
          100 hlineto
          hintmask 00010100
          765 42 -73 callgsubr
        </CharString>
</ttFont>
